Oxygen---0_ox0_75.ufo
<glyph name="exclam" format="1">
  <advance width="446"/>
  <unicode hex="0021"/>
  <outline>
    <contour>
      <point x="69" y="134" type="curve" smooth="yes"/>
      <point x="69" y="217"/>
      <point x="136" y="289"/>
      <point x="224" y="289" type="curve" smooth="yes"/>
      <point x="311" y="289"/>
      <point x="376" y="217"/>
      <point x="376" y="134" type="curve" smooth="yes"/>
      <point x="376" y="52"/>
      <point x="311" y="-18"/>
      <point x="224" y="-18" type="curve" smooth="yes"/>
      <point x="136" y="-18"/>
      <point x="69" y="52"/>
    </contour>
    <contour>
      <point x="349" y="1458" type="line"/>
      <point x="349" y="1237" type="line"/>
      <point x="285" y="449" type="line"/>
      <point x="178" y="449" type="line"/>
      <point x="108" y="1237" type="line"/>
      <point x="108" y="1458" type="line"/>
    </contour>
  </outline>
</glyph>
<glyph name="quotedbl" format="1">
  <advance width="784"/>
  <unicode hex="0022"/>
  <outline>
    <contour>
      <point x="487" y="955" type="line"/>
      <point x="454" y="1470" type="line"/>
      <point x="677" y="1470" type="line"/>
      <point x="654" y="955" type="line"/>
    </contour>
    <contour>
      <point x="143" y="955" type="line"/>
      <point x="108" y="1470" type="line"/>
      <point x="332" y="1470" type="line"/>
      <point x="310" y="955" type="line"/>
    </contour>
  </outline>
</glyph>
<glyph name="numbersign" format="1">
  <advance width="1192"/>
  <unicode hex="0023"/>
  <outline>
    <contour>
      <point x="1137" y="1077" type="line"/>
      <point x="1125" y="899" type="line"/>
      <point x="923" y="899" type="line"/>
      <point x="863" y="583" type="line"/>
      <point x="1058" y="583" type="line"/>
      <point x="1048" y="404" type="line"/>
      <point x="833" y="404" type="line"/>
      <point x="753" y="-15" type="line"/>
      <point x="557" y="-15" type="line"/>
      <point x="636" y="404" type="line"/>
      <point x="446" y="404" type="line"/>
      <point x="367" y="-15" type="line"/>
      <point x="178" y="-15" type="line"/>
      <point x="254" y="404" type="line"/>
      <point x="53" y="404" type="line"/>
      <point x="61" y="583" type="line"/>
      <point x="288" y="583" type="line"/>
      <point x="343" y="898" type="line"/>
      <point x="131" y="898" type="line"/>
      <point x="139" y="1077" type="line"/>
      <point x="375" y="1077" type="line"/>
      <point x="455" y="1458" type="line"/>
      <point x="650" y="1458" type="line"/>
      <point x="574" y="1077" type="line"/>
      <point x="767" y="1077" type="line"/>
      <point x="841" y="1458" type="line"/>
      <point x="1031" y="1458" type="line"/>
      <point x="956" y="1077" type="line"/>
    </contour>
    <contour>
      <point x="732" y="899" type="line"/>
      <point x="540" y="899" type="line"/>
      <point x="478" y="583" type="line"/>
      <point x="672" y="583" type="line"/>
    </contour>
  </outline>
</glyph>
<glyph name="dollar" format="1">
  <advance width="1194"/>
  <unicode hex="0024"/>
  <outline>
    <contour>
      <point x="553" y="1620" type="line"/>
      <point x="666" y="1620" type="line"/>
      <point x="666" y="1462" type="line"/>
      <point x="831" y="1455"/>
      <point x="972" y="1422"/>
      <point x="1081" y="1358" type="curve"/>
      <point x="1005" y="1160" type="line"/>
      <point x="916" y="1206"/>
      <point x="798" y="1238"/>
      <point x="666" y="1246" type="curve"/>
      <point x="666" y="865" type="line"/>
      <point x="681" y="859"/>
      <point x="722" y="848"/>
      <point x="736" y="842" type="curve" smooth="yes"/>
      <point x="977" y="756"/>
      <point x="1131" y="669"/>
      <point x="1131" y="435" type="curve" smooth="yes"/>
      <point x="1131" y="180"/>
      <point x="945" y="41"/>
      <point x="666" y="20" type="curve"/>
      <point x="666" y="-167" type="line"/>
      <point x="553" y="-167" type="line"/>
      <point x="553" y="18" type="line"/>
      <point x="353" y="22"/>
      <point x="197" y="63"/>
      <point x="81" y="127" type="curve"/>
      <point x="124" y="343" type="line"/>
      <point x="232" y="285"/>
      <point x="406" y="235"/>
      <point x="553" y="229" type="curve"/>
      <point x="553" y="646" type="line"/>
      <point x="445" y="680" type="line"/>
      <point x="224" y="754"/>
      <point x="85" y="861"/>
      <point x="85" y="1071" type="curve" smooth="yes"/>
      <point x="85" y="1311"/>
      <point x="277" y="1442"/>
      <point x="553" y="1460" type="curve"/>
    </contour>
    <contour>
      <point x="553" y="906" type="curve"/>
      <point x="553" y="1244" type="line"/>
      <point x="426" y="1233"/>
      <point x="356" y="1183"/>
      <point x="356" y="1084" type="curve" smooth="yes"/>
      <point x="356" y="993"/>
      <point x="412" y="952"/>
      <point x="507" y="920" type="curve" smooth="yes"/>
      <point x="515" y="917"/>
      <point x="544" y="909"/>
    </contour>
    <contour>
      <point x="666" y="607" type="curve"/>
      <point x="666" y="233" type="line"/>
      <point x="792" y="247"/>
      <point x="862" y="306"/>
      <point x="862" y="415" type="curve" smooth="yes"/>
      <point x="862" y="504"/>
      <point x="812" y="555"/>
      <point x="703" y="594" type="curve" smooth="yes"/>
      <point x="695" y="597"/>
      <point x="674" y="604"/>
    </contour>
  </outline>
</glyph>
<glyph name="ampersand" format="1">
  <advance width="1436"/>
  <unicode hex="0026"/>
  <outline>
    <contour>
      <point x="394" y="831" type="curve"/>
      <point x="311" y="926"/>
      <point x="230" y="1019"/>
      <point x="230" y="1150" type="curve" smooth="yes"/>
      <point x="230" y="1379"/>
      <point x="409" y="1484"/>
      <point x="612" y="1484" type="curve" smooth="yes"/>
      <point x="801" y="1484"/>
      <point x="1008" y="1392"/>
      <point x="1008" y="1168" type="curve" smooth="yes"/>
      <point x="1008" y="978"/>
      <point x="844" y="864"/>
      <point x="687" y="786" type="curve"/>
      <point x="1037" y="404" type="line"/>
      <point x="1095" y="467"/>
      <point x="1151" y="556"/>
      <point x="1191" y="634" type="curve"/>
      <point x="1361" y="521" type="line"/>
      <point x="1314" y="430"/>
      <point x="1248" y="330"/>
      <point x="1181" y="255" type="curve"/>
      <point x="1388" y="37" type="line"/>
      <point x="1375" y="33"/>
      <point x="1191" y="-12"/>
      <point x="1178" y="-16" type="curve"/>
      <point x="1036" y="132" type="line"/>
      <point x="902" y="32"/>
      <point x="747" y="-23"/>
      <point x="580" y="-23" type="curve" smooth="yes"/>
      <point x="306" y="-23"/>
      <point x="57" y="100"/>
      <point x="57" y="404" type="curve" smooth="yes"/>
      <point x="57" y="623"/>
      <point x="218" y="737"/>
    </contour>
    <contour>
      <point x="508" y="700" type="curve"/>
      <point x="390" y="635"/>
      <point x="289" y="570"/>
      <point x="289" y="426" type="curve" smooth="yes"/>
      <point x="289" y="249"/>
      <point x="421" y="168"/>
      <point x="587" y="168" type="curve" smooth="yes"/>
      <point x="702" y="168"/>
      <point x="817" y="209"/>
      <point x="899" y="276" type="curve"/>
      <point x="862" y="316"/>
      <point x="545" y="661"/>
    </contour>
    <contour>
      <point x="619" y="1315" type="curve" smooth="yes"/>
      <point x="520" y="1315"/>
      <point x="450" y="1266"/>
      <point x="450" y="1160" type="curve" smooth="yes"/>
      <point x="450" y="1066"/>
      <point x="506" y="991"/>
      <point x="571" y="924" type="curve"/>
      <point x="673" y="979"/>
      <point x="781" y="1045"/>
      <point x="781" y="1166" type="curve" smooth="yes"/>
      <point x="781" y="1267"/>
      <point x="710" y="1315"/>
    </contour>
  </outline>
</glyph>
<glyph name="quotesingle" format="1">
  <advance width="440"/>
  <unicode hex="0027"/>
  <outline>
    <contour>
      <point x="319" y="1464" type="line"/>
      <point x="299" y="928" type="line"/>
      <point x="140" y="928" type="line"/>
      <point x="105" y="1464" type="line"/>
    </contour>
  </outline>
</glyph>
<glyph name="parenleft" format="1">
  <advance width="650"/>
  <unicode hex="0028"/>
  <outline>
    <contour>
      <point x="92" y="597" type="curve" smooth="yes"/>
      <point x="92" y="952"/>
      <point x="206" y="1251"/>
      <point x="375" y="1488" type="curve"/>
      <point x="611" y="1488" type="line"/>
      <point x="498" y="1326"/>
      <point x="341" y="956"/>
      <point x="341" y="599" type="curve" smooth="yes"/>
      <point x="341" y="247"/>
      <point x="501" y="-121"/>
      <point x="610" y="-276" type="curve"/>
      <point x="376" y="-276" type="line"/>
      <point x="207" y="-45"/>
      <point x="92" y="247"/>
    </contour>
  </outline>
</glyph>
<glyph name="parenright" format="1">
  <advance width="650"/>
  <unicode hex="0029"/>
  <outline>
    <contour>
      <point x="558" y="597" type="curve" smooth="yes"/>
      <point x="558" y="246"/>
      <point x="442" y="-46"/>
      <point x="274" y="-276" type="curve"/>
      <point x="40" y="-276" type="line"/>
      <point x="148" y="-121"/>
      <point x="309" y="246"/>
      <point x="309" y="599" type="curve" smooth="yes"/>
      <point x="309" y="956"/>
      <point x="152" y="1326"/>
      <point x="39" y="1488" type="curve"/>
      <point x="275" y="1488" type="line"/>
      <point x="444" y="1250"/>
      <point x="558" y="950"/>
    </contour>
  </outline>
</glyph>
<glyph name="asterisk" format="1">
  <advance width="1103"/>
  <unicode hex="002A"/>
  <outline>
    <contour>
      <point x="666" y="1505" type="line"/>
      <point x="631" y="1134" type="line"/>
      <point x="979" y="1267" type="line"/>
      <point x="1040" y="1059" type="line"/>
      <point x="689" y="983" type="line"/>
      <point x="699" y="970"/>
      <point x="913" y="705"/>
      <point x="933" y="677" type="curve"/>
      <point x="921" y="669"/>
      <point x="745" y="571"/>
      <point x="732" y="563" type="curve"/>
      <point x="549" y="887" type="line"/>
      <point x="376" y="564" type="line"/>
      <point x="171" y="677" type="line"/>
      <point x="414" y="983" type="line"/>
      <point x="64" y="1060" type="line"/>
      <point x="128" y="1267" type="line"/>
      <point x="472" y="1134" type="line"/>
      <point x="437" y="1505" type="line"/>
    </contour>
  </outline>
</glyph>
<glyph name="plus" format="1">
  <advance width="1180"/>
  <unicode hex="002B"/>
  <outline>
    <contour>
      <point x="692" y="745" type="line"/>
      <point x="1098" y="745" type="line"/>
      <point x="1098" y="554" type="line"/>
      <point x="691" y="554" type="line"/>
      <point x="691" y="146" type="line"/>
      <point x="492" y="146" type="line"/>
      <point x="492" y="554" type="line"/>
      <point x="84" y="554" type="line"/>
      <point x="84" y="745" type="line"/>
      <point x="493" y="745" type="line"/>
      <point x="493" y="1153" type="line"/>
      <point x="692" y="1153" type="line"/>
    </contour>
  </outline>
</glyph>
<glyph name="comma" format="1">
  <advance width="508"/>
  <unicode hex="002C"/>
  <outline>
    <contour>
      <point x="64" y="-283" type="curve"/>
      <point x="241" y="-283" type="line"/>
      <point x="304" y="-120"/>
      <point x="358" y="41"/>
      <point x="399" y="183" type="curve"/>
      <point x="402" y="232" type="line"/>
      <point x="158" y="232" type="line"/>
      <point x="133" y="71"/>
      <point x="99" y="-113"/>
    </contour>
  </outline>
</glyph>
<glyph name="hyphen" format="1">
  <advance width="677"/>
  <unicode hex="002D"/>
  <outline>
    <contour>
      <point x="70" y="445" type="line"/>
      <point x="70" y="649" type="line"/>
      <point x="606" y="649" type="line"/>
      <point x="606" y="445" type="line"/>
    </contour>
  </outline>
</glyph>
<glyph name="period" format="1">
  <advance width="443"/>
  <unicode hex="002E"/>
  <outline>
    <contour>
      <point x="229" y="-18" type="curve" smooth="yes"/>
      <point x="141" y="-18"/>
      <point x="75" y="52"/>
      <point x="75" y="134" type="curve" smooth="yes"/>
      <point x="75" y="217"/>
      <point x="141" y="289"/>
      <point x="229" y="289" type="curve" smooth="yes"/>
      <point x="316" y="289"/>
      <point x="382" y="217"/>
      <point x="382" y="134" type="curve" smooth="yes"/>
      <point x="382" y="52"/>
      <point x="316" y="-18"/>
    </contour>
  </outline>
</glyph>
<glyph name="slash" format="1">
  <advance width="949"/>
  <unicode hex="002F"/>
  <outline>
    <contour>
      <point x="265" y="-189" type="line"/>
      <point x="52" y="-189" type="line"/>
      <point x="674" y="1489" type="line"/>
      <point x="892" y="1489" type="line"/>
    </contour>
  </outline>
</glyph>
<glyph name="zero" format="1">
  <advance width="1296"/>
  <unicode hex="0030"/>
  <outline>
    <contour>
      <point x="651" y="-21" type="curve" smooth="yes"/>
      <point x="242" y="-21"/>
      <point x="101" y="335"/>
      <point x="101" y="732" type="curve" smooth="yes"/>
      <point x="101" y="1136"/>
      <point x="247" y="1490"/>
      <point x="651" y="1490" type="curve" smooth="yes"/>
      <point x="1055" y="1490"/>
      <point x="1200" y="1134"/>
      <point x="1200" y="732" type="curve" smooth="yes"/>
      <point x="1200" y="335"/>
      <point x="1060" y="-21"/>
    </contour>
    <contour>
      <point x="651" y="1282" type="curve" smooth="yes"/>
      <point x="430" y="1282"/>
      <point x="373" y="1017"/>
      <point x="372" y="743" type="curve"/>
      <point x="372" y="463"/>
      <point x="429" y="187"/>
      <point x="652" y="187" type="curve" smooth="yes"/>
      <point x="874" y="187"/>
      <point x="930" y="461"/>
      <point x="930" y="740" type="curve" smooth="yes"/>
      <point x="930" y="1016"/>
      <point x="874" y="1282"/>
    </contour>
  </outline>
</glyph>
<glyph name="one" format="1">
  <advance width="686"/>
  <unicode hex="0031"/>
  <outline>
    <contour>
      <point x="336" y="1459" type="curve"/>
      <point x="556" y="1459" type="line"/>
      <point x="556" y="1" type="line"/>
      <point x="303" y="1" type="line"/>
      <point x="303" y="1219" type="line"/>
      <point x="283" y="1206"/>
      <point x="61" y="1115"/>
      <point x="43" y="1109" type="curve"/>
      <point x="43" y="1310" type="line"/>
      <point x="65" y="1320"/>
      <point x="316" y="1445"/>
    </contour>
  </outline>
</glyph>
<glyph name="two" format="1">
  <advance width="1054"/>
  <unicode hex="0032"/>
  <outline>
    <contour>
      <point x="69" y="0" type="line"/>
      <point x="941" y="0" type="line"/>
      <point x="958" y="197" type="line"/>
      <point x="368" y="197" type="line"/>
      <point x="690" y="531" type="line" smooth="yes"/>
      <point x="820" y="667"/>
      <point x="968" y="889"/>
      <point x="968" y="1060" type="curve" smooth="yes"/>
      <point x="968" y="1331"/>
      <point x="761" y="1490"/>
      <point x="483" y="1490" type="curve" smooth="yes"/>
      <point x="298" y="1490"/>
      <point x="177" y="1440"/>
      <point x="75" y="1350" type="curve"/>
      <point x="150" y="1153" type="line"/>
      <point x="224" y="1218"/>
      <point x="339" y="1281"/>
      <point x="468" y="1281" type="curve" smooth="yes"/>
      <point x="600" y="1281"/>
      <point x="700" y="1185"/>
      <point x="700" y="1057" type="curve" smooth="yes"/>
      <point x="700" y="959"/>
      <point x="628" y="825"/>
      <point x="534" y="724" type="curve" smooth="yes"/>
      <point x="64" y="216" type="line"/>
    </contour>
  </outline>
</glyph>
<glyph name="three" format="1">
  <advance width="1077"/>
  <unicode hex="0033"/>
  <outline>
    <contour>
      <point x="485" y="-21" type="curve" smooth="yes"/>
      <point x="775" y="-21"/>
      <point x="1009" y="123"/>
      <point x="1009" y="398" type="curve" smooth="yes"/>
      <point x="1009" y="450"/>
      <point x="906" y="726"/>
      <point x="728" y="770" type="curve"/>
      <point x="885" y="821"/>
      <point x="968" y="938"/>
      <point x="968" y="1097" type="curve" smooth="yes"/>
      <point x="968" y="1327"/>
      <point x="772" y="1490"/>
      <point x="493" y="1490" type="curve" smooth="yes"/>
      <point x="306" y="1490"/>
      <point x="174" y="1447"/>
      <point x="62" y="1378" type="curve"/>
      <point x="134" y="1188" type="line"/>
      <point x="220" y="1243"/>
      <point x="336" y="1282"/>
      <point x="469" y="1282" type="curve" smooth="yes"/>
      <point x="632" y="1282"/>
      <point x="713" y="1182"/>
      <point x="713" y="1077" type="curve" smooth="yes"/>
      <point x="713" y="903"/>
      <point x="552" y="867"/>
      <point x="338" y="866" type="curve" smooth="yes"/>
      <point x="334" y="866"/>
      <point x="287" y="866"/>
      <point x="282" y="866" type="curve"/>
      <point x="282" y="663" type="line"/>
      <point x="288" y="663"/>
      <point x="336" y="663"/>
      <point x="341" y="663" type="curve"/>
      <point x="582" y="659"/>
      <point x="742" y="623"/>
      <point x="742" y="411" type="curve" smooth="yes"/>
      <point x="742" y="278"/>
      <point x="640" y="187"/>
      <point x="486" y="187" type="curve" smooth="yes"/>
      <point x="349" y="187"/>
      <point x="208" y="231"/>
      <point x="135" y="292" type="curve"/>
      <point x="63" y="103" type="line"/>
      <point x="151" y="26"/>
      <point x="313" y="-21"/>
    </contour>
  </outline>
</glyph>
<glyph name="four" format="1">
  <advance width="1253"/>
  <unicode hex="0034"/>
  <outline>
    <contour>
      <point x="1185" y="324" type="line"/>
      <point x="1018" y="324" type="line"/>
      <point x="1018" y="0" type="line"/>
      <point x="752" y="0" type="line"/>
      <point x="752" y="324" type="line"/>
      <point x="91" y="324" type="line"/>
      <point x="91" y="503" type="line"/>
      <point x="685" y="1458" type="line"/>
      <point x="1018" y="1458" type="line"/>
      <point x="1018" y="523" type="line"/>
      <point x="1198" y="523" type="line"/>
    </contour>
    <contour>
      <point x="753" y="1201" type="line"/>
      <point x="352" y="522" type="line"/>
      <point x="753" y="522" type="line"/>
    </contour>
  </outline>
</glyph>
<glyph name="five" format="1">
  <advance width="1138"/>
  <unicode hex="0035"/>
  <outline>
    <contour>
      <point x="1001" y="1458" type="line"/>
      <point x="986" y="1252" type="line"/>
      <point x="437" y="1252" type="line"/>
      <point x="436" y="1216"/>
      <point x="424" y="926"/>
      <point x="423" y="890" type="curve"/>
      <point x="485" y="923"/>
      <point x="548" y="937"/>
      <point x="607" y="937" type="curve" smooth="yes"/>
      <point x="877" y="937"/>
      <point x="1056" y="745"/>
      <point x="1056" y="468" type="curve" smooth="yes"/>
      <point x="1056" y="178"/>
      <point x="874" y="-21"/>
      <point x="542" y="-21" type="curve" smooth="yes"/>
      <point x="323" y="-21"/>
      <point x="127" y="99"/>
      <point x="104" y="119" type="curve"/>
      <point x="184" y="307" type="line"/>
      <point x="200" y="294"/>
      <point x="346" y="189"/>
      <point x="515" y="189" type="curve" smooth="yes"/>
      <point x="709" y="189"/>
      <point x="799" y="311"/>
      <point x="799" y="470" type="curve" smooth="yes"/>
      <point x="799" y="631"/>
      <point x="701" y="734"/>
      <point x="564" y="734" type="curve" smooth="yes"/>
      <point x="488" y="734"/>
      <point x="409" y="700"/>
      <point x="342" y="626" type="curve"/>
      <point x="167" y="660" type="line"/>
      <point x="205" y="1458" type="line"/>
    </contour>
  </outline>
</glyph>
<glyph name="six" format="1">
  <advance width="1205"/>
  <unicode hex="0036"/>
  <outline>
    <contour>
      <point x="662" y="919" type="curve" smooth="yes"/>
      <point x="948" y="919"/>
      <point x="1158" y="732"/>
      <point x="1158" y="457" type="curve" smooth="yes"/>
      <point x="1158" y="168"/>
      <point x="927" y="-21"/>
      <point x="615" y="-21" type="curve" smooth="yes"/>
      <point x="291" y="-21"/>
      <point x="65" y="170"/>
      <point x="65" y="463" type="curve" smooth="yes"/>
      <point x="65" y="657"/>
      <point x="156" y="794"/>
      <point x="268" y="942" type="curve"/>
      <point x="289" y="969"/>
      <point x="663" y="1456"/>
      <point x="663" y="1456" type="curve"/>
      <point x="992" y="1456" type="line"/>
      <point x="542" y="896" type="line"/>
      <point x="583" y="909"/>
      <point x="615" y="919"/>
    </contour>
    <contour>
      <point x="334" y="451" type="curve" smooth="yes"/>
      <point x="334" y="291"/>
      <point x="427" y="179"/>
      <point x="603" y="179" type="curve" smooth="yes"/>
      <point x="782" y="179"/>
      <point x="884" y="292"/>
      <point x="884" y="453" type="curve" smooth="yes"/>
      <point x="884" y="620"/>
      <point x="795" y="730"/>
      <point x="606" y="730" type="curve" smooth="yes"/>
      <point x="411" y="730"/>
      <point x="334" y="614"/>
    </contour>
  </outline>
</glyph>
<glyph name="seven" format="1">
  <advance width="1036"/>
  <unicode hex="0037"/>
  <outline>
    <contour>
      <point x="228" y="-1" type="line"/>
      <point x="708" y="1258" type="line"/>
      <point x="65" y="1258" type="line"/>
      <point x="68" y="1458" type="line"/>
      <point x="1006" y="1458" type="line"/>
      <point x="1006" y="1302" type="line"/>
      <point x="496" y="-1" type="line"/>
    </contour>
  </outline>
</glyph>
<glyph name="eight" format="1">
  <advance width="1150"/>
  <unicode hex="0038"/>
  <outline>
    <contour>
      <point x="578" y="-21" type="curve" smooth="yes"/>
      <point x="298" y="-21"/>
      <point x="64" y="121"/>
      <point x="64" y="389" type="curve" smooth="yes"/>
      <point x="64" y="579"/>
      <point x="170" y="698"/>
      <point x="322" y="767" type="curve"/>
      <point x="187" y="832"/>
      <point x="92" y="936"/>
      <point x="92" y="1110" type="curve" smooth="yes"/>
      <point x="92" y="1363"/>
      <point x="309" y="1490"/>
      <point x="577" y="1490" type="curve" smooth="yes"/>
      <point x="847" y="1490"/>
      <point x="1063" y="1362"/>
      <point x="1063" y="1110" type="curve" smooth="yes"/>
      <point x="1063" y="938"/>
      <point x="974" y="832"/>
      <point x="849" y="767" type="curve"/>
      <point x="995" y="696"/>
      <point x="1090" y="575"/>
      <point x="1090" y="388" type="curve" smooth="yes"/>
      <point x="1090" y="119"/>
      <point x="857" y="-21"/>
    </contour>
    <contour>
      <point x="578" y="679" type="curve"/>
      <point x="423" y="640"/>
      <point x="308" y="548"/>
      <point x="308" y="392" type="curve" smooth="yes"/>
      <point x="308" y="245"/>
      <point x="412" y="161"/>
      <point x="578" y="161" type="curve" smooth="yes"/>
      <point x="746" y="161"/>
      <point x="845" y="246"/>
      <point x="845" y="394" type="curve" smooth="yes"/>
      <point x="845" y="549"/>
      <point x="727" y="641"/>
    </contour>
    <contour>
      <point x="578" y="1310" type="curve" smooth="yes"/>
      <point x="434" y="1310"/>
      <point x="322" y="1232"/>
      <point x="322" y="1110" type="curve" smooth="yes"/>
      <point x="322" y="961"/>
      <point x="422" y="870"/>
      <point x="578" y="835" type="curve"/>
      <point x="738" y="871"/>
      <point x="832" y="963"/>
      <point x="832" y="1110" type="curve" smooth="yes"/>
      <point x="832" y="1232"/>
      <point x="722" y="1310"/>
    </contour>
  </outline>
</glyph>
<glyph name="nine" format="1">
  <advance width="1215"/>
  <unicode hex="0039"/>
  <outline>
    <contour>
      <point x="568" y="554" type="curve" smooth="yes"/>
      <point x="282" y="554"/>
      <point x="71" y="737"/>
      <point x="71" y="1012" type="curve" smooth="yes"/>
      <point x="71" y="1300"/>
      <point x="303" y="1490"/>
      <point x="616" y="1490" type="curve" smooth="yes"/>
      <point x="940" y="1490"/>
      <point x="1165" y="1301"/>
      <point x="1165" y="1009" type="curve" smooth="yes"/>
      <point x="1165" y="821"/>
      <point x="1076" y="686"/>
      <point x="976" y="550" type="curve"/>
      <point x="952" y="518"/>
      <point x="562" y="0"/>
      <point x="562" y="0" type="curve"/>
      <point x="236" y="0" type="line"/>
      <point x="687" y="578" type="line"/>
      <point x="646" y="564"/>
      <point x="615" y="554"/>
    </contour>
    <contour>
      <point x="896" y="1023" type="curve" smooth="yes"/>
      <point x="896" y="1184"/>
      <point x="804" y="1290"/>
      <point x="629" y="1290" type="curve" smooth="yes"/>
      <point x="449" y="1290"/>
      <point x="345" y="1179"/>
      <point x="345" y="1018" type="curve" smooth="yes"/>
      <point x="345" y="851"/>
      <point x="435" y="739"/>
      <point x="624" y="739" type="curve" smooth="yes"/>
      <point x="819" y="739"/>
      <point x="896" y="860"/>
    </contour>
  </outline>
</glyph>
<glyph name="semicolon" format="1">
  <advance width="448"/>
  <unicode hex="003B"/>
  <outline>
    <contour>
      <point x="124" y="840" type="line"/>
      <point x="124" y="1105" type="line"/>
      <point x="389" y="1105" type="line"/>
      <point x="389" y="840" type="line"/>
    </contour>
    <contour>
      <point x="389" y="246" type="line"/>
      <point x="265" y="-322" type="line"/>
      <point x="107" y="-322" type="line"/>
      <point x="162" y="246" type="line"/>
    </contour>
  </outline>
</glyph>
<glyph name="equal" format="1">
  <advance width="1202"/>
  <unicode hex="003D"/>
  <outline>
    <contour>
      <point x="93" y="357" type="line"/>
      <point x="1111" y="357" type="line"/>
      <point x="1111" y="548" type="line"/>
      <point x="93" y="548" type="line"/>
    </contour>
    <contour>
      <point x="93" y="754" type="line"/>
      <point x="1111" y="754" type="line"/>
      <point x="1111" y="947" type="line"/>
      <point x="93" y="947" type="line"/>
    </contour>
  </outline>
</glyph>
<glyph name="greater" format="1">
  <advance width="1196"/>
  <unicode hex="003E"/>
  <outline>
    <contour>
      <point x="119" y="403" type="line"/>
      <point x="823" y="712" type="line"/>
      <point x="119" y="1047" type="line"/>
      <point x="119" y="1253" type="line"/>
      <point x="1086" y="769" type="line"/>
      <point x="1086" y="645" type="line"/>
      <point x="119" y="197" type="line"/>
    </contour>
  </outline>
</glyph>
<glyph name="question" format="1">
  <advance width="887"/>
  <unicode hex="003F"/>
  <outline>
    <contour>
      <point x="434" y="448" type="curve"/>
      <point x="323" y="448" type="line"/>
      <point x="360" y="735"/>
      <point x="606" y="927"/>
      <point x="606" y="1113" type="curve" smooth="yes"/>
      <point x="605" y="1229"/>
      <point x="529" y="1302"/>
      <point x="399" y="1302" type="curve" smooth="yes"/>
      <point x="264" y="1302"/>
      <point x="179" y="1254"/>
      <point x="121" y="1218" type="curve"/>
      <point x="51" y="1383" type="line"/>
      <point x="152" y="1450"/>
      <point x="261" y="1489"/>
      <point x="427" y="1489" type="curve" smooth="yes"/>
      <point x="610" y="1489"/>
      <point x="815" y="1381"/>
      <point x="815" y="1147" type="curve" smooth="yes"/>
      <point x="815" y="907"/>
      <point x="590" y="754"/>
    </contour>
    <contour>
      <point x="221" y="134" type="curve" smooth="yes"/>
      <point x="221" y="217"/>
      <point x="288" y="289"/>
      <point x="376" y="289" type="curve" smooth="yes"/>
      <point x="462" y="289"/>
      <point x="528" y="217"/>
      <point x="528" y="134" type="curve" smooth="yes"/>
      <point x="528" y="52"/>
      <point x="462" y="-18"/>
      <point x="376" y="-18" type="curve" smooth="yes"/>
      <point x="288" y="-18"/>
      <point x="221" y="52"/>
    </contour>
  </outline>
</glyph>
<glyph name="at" format="1">
  <advance width="1699"/>
  <unicode hex="0040"/>
  <outline>
    <contour>
      <point x="1632" y="701" type="curve" smooth="yes"/>
      <point x="1632" y="382"/>
      <point x="1419" y="156"/>
      <point x="1193" y="156" type="curve" smooth="yes"/>
      <point x="1088" y="156"/>
      <point x="1010" y="216"/>
      <point x="1007" y="374" type="curve"/>
      <point x="959" y="259"/>
      <point x="860" y="171"/>
      <point x="749" y="171" type="curve" smooth="yes"/>
      <point x="557" y="171"/>
      <point x="447" y="320"/>
      <point x="447" y="515" type="curve" smooth="yes"/>
      <point x="447" y="795"/>
      <point x="650" y="1032"/>
      <point x="926" y="1032" type="curve" smooth="yes"/>
      <point x="1043" y="1032"/>
      <point x="1152" y="999"/>
      <point x="1242" y="967" type="curve"/>
      <point x="1211" y="796"/>
      <point x="1166" y="622"/>
      <point x="1145" y="473" type="curve" smooth="yes"/>
      <point x="1125" y="322"/>
      <point x="1149" y="298"/>
      <point x="1214" y="298" type="curve" smooth="yes"/>
      <point x="1358" y="298"/>
      <point x="1477" y="511"/>
      <point x="1477" y="705" type="curve" smooth="yes"/>
      <point x="1477" y="1039"/>
      <point x="1230" y="1255"/>
      <point x="892" y="1255" type="curve" smooth="yes"/>
      <point x="422" y="1255"/>
      <point x="232" y="846"/>
      <point x="232" y="578" type="curve" smooth="yes"/>
      <point x="232" y="161"/>
      <point x="531" y="-62"/>
      <point x="889" y="-62" type="curve" smooth="yes"/>
      <point x="1062" y="-62"/>
      <point x="1239" y="-20"/>
      <point x="1391" y="92" type="curve"/>
      <point x="1446" y="-16" type="line"/>
      <point x="1308" y="-129"/>
      <point x="1129" y="-205"/>
      <point x="891" y="-205" type="curve" smooth="yes"/>
      <point x="405" y="-205"/>
      <point x="67" y="107"/>
      <point x="67" y="589" type="curve" smooth="yes"/>
      <point x="67" y="1054"/>
      <point x="419" y="1400"/>
      <point x="892" y="1400" type="curve" smooth="yes"/>
      <point x="1312" y="1400"/>
      <point x="1632" y="1117"/>
    </contour>
    <contour>
      <point x="632" y="506" type="curve" smooth="yes"/>
      <point x="632" y="405"/>
      <point x="665" y="312"/>
      <point x="752" y="312" type="curve" smooth="yes"/>
      <point x="898" y="312"/>
      <point x="976" y="506"/>
      <point x="1019" y="702" type="curve" smooth="yes"/>
      <point x="1034" y="771"/>
      <point x="1045" y="839"/>
      <point x="1054" y="899" type="curve"/>
      <point x="1019" y="906"/>
      <point x="981" y="910"/>
      <point x="941" y="910" type="curve" smooth="yes"/>
      <point x="765" y="910"/>
      <point x="632" y="697"/>
    </contour>
  </outline>
</glyph>
<glyph name="A" format="1">
  <advance width="1359"/>
  <unicode hex="0041"/>
  <outline>
    <contour>
      <point x="680" y="1453" type="move" name="top"/>
    </contour>
    <contour>
      <point x="1223" y="10" type="move" name="ogonek"/>
    </contour>
    <contour>
      <point x="1083" y="0" type="line"/>
      <point x="1362" y="0" type="line"/>
      <point x="831" y="1465" type="line"/>
      <point x="536" y="1465" type="line"/>
      <point x="-3" y="0" type="line"/>
      <point x="280" y="0" type="line"/>
      <point x="426" y="414" type="line"/>
      <point x="939" y="414" type="line"/>
    </contour>
    <contour>
      <point x="869" y="616" type="curve"/>
      <point x="494" y="616" type="line"/>
      <point x="494" y="616"/>
      <point x="680" y="1196"/>
      <point x="685" y="1212" type="curve"/>
      <point x="690" y="1193"/>
      <point x="869" y="616"/>
    </contour>
  </outline>
</glyph>
<glyph name="B" format="1">
  <advance width="1335"/>
  <unicode hex="0042"/>
  <outline>
    <contour>
      <point x="430" y="669" type="line"/>
      <point x="430" y="206" type="line"/>
      <point x="665" y="206" type="line" smooth="yes"/>
      <point x="870" y="206"/>
      <point x="977" y="274"/>
      <point x="977" y="442" type="curve" smooth="yes"/>
      <point x="977" y="609"/>
      <point x="872" y="669"/>
      <point x="658" y="669" type="curve" smooth="yes"/>
    </contour>
    <contour>
      <point x="430" y="871" type="line"/>
      <point x="662" y="871" type="line" smooth="yes"/>
      <point x="837" y="871"/>
      <point x="931" y="919"/>
      <point x="931" y="1062" type="curve" smooth="yes"/>
      <point x="931" y="1223"/>
      <point x="820" y="1256"/>
      <point x="607" y="1256" type="curve" smooth="yes"/>
      <point x="430" y="1256" type="line"/>
    </contour>
    <contour>
      <point x="159" y="1465" type="line"/>
      <point x="623" y="1465" type="line" smooth="yes"/>
      <point x="999" y="1465"/>
      <point x="1200" y="1369"/>
      <point x="1200" y="1097" type="curve" smooth="yes"/>
      <point x="1200" y="1004"/>
      <point x="1173" y="845"/>
      <point x="993" y="779" type="curve"/>
      <point x="1171" y="730"/>
      <point x="1254" y="605"/>
      <point x="1254" y="425" type="curve" smooth="yes"/>
      <point x="1254" y="145"/>
      <point x="1042" y="0"/>
      <point x="702" y="0" type="curve" smooth="yes"/>
      <point x="159" y="0" type="line"/>
    </contour>
  </outline>
</glyph>
<glyph name="C" format="1">
  <advance width="1301"/>
  <unicode hex="0043"/>
  <outline>
    <contour>
      <point x="651" y="1453" type="move" name="top"/>
    </contour>
    <contour>
      <point x="651" y="0" type="move" name="bottom"/>
    </contour>
    <contour>
      <point x="817" y="1266" type="curve" smooth="yes"/>
      <point x="546" y="1266"/>
      <point x="380" y="1054"/>
      <point x="380" y="731" type="curve" smooth="yes"/>
      <point x="380" y="393"/>
      <point x="537" y="199"/>
      <point x="817" y="199" type="curve" smooth="yes"/>
      <point x="937" y="199"/>
      <point x="1062" y="230"/>
      <point x="1182" y="291" type="curve"/>
      <point x="1218" y="79" type="line"/>
      <point x="1090" y="3"/>
      <point x="949" y="-20"/>
      <point x="796" y="-20" type="curve" smooth="yes"/>
      <point x="372" y="-20"/>
      <point x="100" y="260"/>
      <point x="100" y="739" type="curve" smooth="yes"/>
      <point x="100" y="1192"/>
      <point x="389" y="1486"/>
      <point x="811" y="1486" type="curve" smooth="yes"/>
      <point x="964" y="1486"/>
      <point x="1115" y="1453"/>
      <point x="1246" y="1367" type="curve"/>
      <point x="1161" y="1162" type="line"/>
      <point x="1063" y="1222"/>
      <point x="957" y="1266"/>
    </contour>
  </outline>
</glyph>
<glyph name="D" format="1">
  <advance width="1514"/>
  <unicode hex="0044"/>
  <outline>
    <contour>
      <point x="757" y="1453" type="move" name="top"/>
    </contour>
    <contour>
      <point x="757" y="726" type="move" name="center"/>
    </contour>
    <contour>
      <point x="1137" y="732" type="curve" smooth="yes"/>
      <point x="1137" y="396"/>
      <point x="958" y="217"/>
      <point x="624" y="217" type="curve" smooth="yes"/>
      <point x="430" y="217" type="line"/>
      <point x="430" y="1247" type="line"/>
      <point x="595" y="1247" type="line" smooth="yes"/>
      <point x="950" y="1247"/>
      <point x="1137" y="1099"/>
    </contour>
    <contour>
      <point x="1415" y="738" type="curve" smooth="yes"/>
      <point x="1415" y="1235"/>
      <point x="1090" y="1465"/>
      <point x="583" y="1465" type="curve" smooth="yes"/>
      <point x="159" y="1465" type="line"/>
      <point x="159" y="0" type="line"/>
      <point x="608" y="0" type="line" smooth="yes"/>
      <point x="1108" y="0"/>
      <point x="1415" y="259"/>
    </contour>
  </outline>
</glyph>
<glyph name="E" format="1">
  <advance width="1148"/>
  <unicode hex="0045"/>
  <outline>
    <contour>
      <point x="574" y="1453" type="move" name="top"/>
    </contour>
    <contour>
      <point x="1033" y="10" type="move" name="ogonek"/>
    </contour>
    <contour>
      <point x="574" y="0" type="move" name="bottom"/>
    </contour>
    <contour>
      <point x="159" y="0" type="line"/>
      <point x="1057" y="0" type="line"/>
      <point x="1059" y="216" type="line"/>
      <point x="430" y="216" type="line"/>
      <point x="430" y="657" type="line"/>
      <point x="1006" y="657" type="line"/>
      <point x="1006" y="872" type="line"/>
      <point x="430" y="872" type="line"/>
      <point x="430" y="1249" type="line"/>
      <point x="1037" y="1249" type="line"/>
      <point x="1048" y="1465" type="line"/>
      <point x="159" y="1465" type="line"/>
    </contour>
  </outline>
</glyph>
<glyph name="F" format="1">
  <advance width="1079"/>
  <unicode hex="0046"/>
  <outline>
    <contour>
      <point x="429" y="0" type="line"/>
      <point x="429" y="621" type="line"/>
      <point x="987" y="621" type="line"/>
      <point x="987" y="834" type="line"/>
      <point x="428" y="834" type="line"/>
      <point x="428" y="1249" type="line"/>
      <point x="1017" y="1249" type="line"/>
      <point x="1027" y="1465" type="line"/>
      <point x="159" y="1465" type="line"/>
      <point x="159" y="0" type="line"/>
    </contour>
  </outline>
</glyph>
<glyph name="G" format="1">
  <advance width="1466"/>
  <unicode hex="0047"/>
  <outline>
    <contour>
      <point x="733" y="1453" type="move" name="top"/>
    </contour>
    <contour>
      <point x="733" y="0" type="move" name="bottom"/>
    </contour>
    <contour>
      <point x="812" y="-20" type="curve" smooth="yes"/>
      <point x="1010" y="-20"/>
      <point x="1163" y="19"/>
      <point x="1333" y="89" type="curve"/>
      <point x="1333" y="796" type="line"/>
      <point x="773" y="796" type="line"/>
      <point x="771" y="583" type="line"/>
      <point x="1078" y="583" type="line"/>
      <point x="1078" y="243" type="line"/>
      <point x="1007" y="216"/>
      <point x="918" y="199"/>
      <point x="824" y="199" type="curve" smooth="yes"/>
      <point x="526" y="199"/>
      <point x="380" y="412"/>
      <point x="380" y="731" type="curve" smooth="yes"/>
      <point x="380" y="1060"/>
      <point x="559" y="1266"/>
      <point x="856" y="1266" type="curve" smooth="yes"/>
      <point x="991" y="1266"/>
      <point x="1117" y="1225"/>
      <point x="1221" y="1168" type="curve"/>
      <point x="1309" y="1371" type="line"/>
      <point x="1178" y="1449"/>
      <point x="1025" y="1486"/>
      <point x="851" y="1486" type="curve" smooth="yes"/>
      <point x="376" y="1486"/>
      <point x="100" y="1180"/>
      <point x="100" y="734" type="curve" smooth="yes"/>
      <point x="100" y="269"/>
      <point x="363" y="-20"/>
    </contour>
  </outline>
</glyph>
<glyph name="H" format="1">
  <advance width="1520"/>
  <unicode hex="0048"/>
  <outline>
    <contour>
      <point x="760" y="1453" type="move" name="top"/>
    </contour>
    <contour>
      <point x="760" y="726" type="move" name="center"/>
    </contour>
    <contour>
      <point x="1364" y="0" type="line"/>
      <point x="1364" y="1465" type="line"/>
      <point x="1092" y="1465" type="line"/>
      <point x="1092" y="866" type="line"/>
      <point x="430" y="866" type="line"/>
      <point x="430" y="1465" type="line"/>
      <point x="159" y="1465" type="line"/>
      <point x="159" y="0" type="line"/>
      <point x="430" y="0" type="line"/>
      <point x="430" y="652" type="line"/>
      <point x="1092" y="652" type="line"/>
      <point x="1092" y="0" type="line"/>
    </contour>
  </outline>
</glyph>
<glyph name="I" format="1">
  <advance width="602"/>
  <unicode hex="0049"/>
  <outline>
    <contour>
      <point x="301" y="1453" type="move" name="top"/>
    </contour>
    <contour>
      <point x="542" y="10" type="move" name="ogonek"/>
    </contour>
    <contour>
      <point x="165" y="0" type="line"/>
      <point x="165" y="1465" type="line"/>
      <point x="436" y="1465" type="line"/>
      <point x="436" y="0" type="line"/>
    </contour>
  </outline>
</glyph>
<glyph name="J" format="1">
  <advance width="633"/>
  <unicode hex="004A"/>
  <outline>
    <contour>
      <point x="317" y="1453" type="move" name="top"/>
    </contour>
    <contour>
      <point x="209" y="128" type="curve" smooth="yes"/>
      <point x="209" y="1469" type="line"/>
      <point x="482" y="1469" type="line"/>
      <point x="482" y="147" type="line" smooth="yes"/>
      <point x="482" y="-179"/>
      <point x="372" y="-329"/>
      <point x="22" y="-329" type="curve" smooth="yes"/>
      <point x="-10" y="-329"/>
      <point x="-48" y="-326"/>
      <point x="-73" y="-321" type="curve"/>
      <point x="-84" y="-108" type="line"/>
      <point x="-54" y="-113"/>
      <point x="-7" y="-116"/>
      <point x="20" y="-116" type="curve" smooth="yes"/>
      <point x="176" y="-116"/>
      <point x="209" y="-35"/>
    </contour>
  </outline>
</glyph>
<glyph name="K" format="1">
  <advance width="1322"/>
  <unicode hex="004B"/>
  <outline>
    <contour>
      <point x="661" y="1453" type="move" name="top"/>
    </contour>
    <contour>
      <point x="661" y="0" type="move" name="bottom"/>
    </contour>
    <contour>
      <point x="1339" y="0" type="line"/>
      <point x="1020" y="0" type="line"/>
      <point x="543" y="656" type="line"/>
      <point x="430" y="563" type="line"/>
      <point x="430" y="0" type="line"/>
      <point x="159" y="0" type="line"/>
      <point x="159" y="1465" type="line"/>
      <point x="430" y="1465" type="line"/>
      <point x="430" y="805" type="line"/>
      <point x="555" y="969"/>
      <point x="853" y="1306"/>
      <point x="983" y="1465" type="curve"/>
      <point x="1303" y="1465" type="line"/>
      <point x="750" y="806" type="line"/>
    </contour>
  </outline>
</glyph>
<glyph name="L" format="1">
  <advance width="1073"/>
  <unicode hex="004C"/>
  <outline>
    <contour>
      <point x="537" y="1453" type="move" name="top"/>
    </contour>
    <contour>
      <point x="537" y="0" type="move" name="bottom"/>
    </contour>
    <contour>
      <point x="159" y="0" type="line"/>
      <point x="159" y="1465" type="line"/>
      <point x="431" y="1465" type="line"/>
      <point x="431" y="216" type="line"/>
      <point x="1043" y="216" type="line"/>
      <point x="1036" y="0" type="line"/>
    </contour>
  </outline>
</glyph>
<glyph name="M" format="1">
  <advance width="1844"/>
  <unicode hex="004D"/>
  <outline>
    <contour>
      <point x="799" y="100" type="line"/>
      <point x="432" y="1034" type="line"/>
      <point x="395" y="1106" type="line"/>
      <point x="403" y="720" type="line"/>
      <point x="403" y="0" type="line"/>
      <point x="159" y="0" type="line"/>
      <point x="159" y="1465" type="line"/>
      <point x="479" y="1465" type="line"/>
      <point x="922" y="407" type="line"/>
      <point x="1368" y="1465" type="line"/>
      <point x="1685" y="1465" type="line"/>
      <point x="1685" y="0" type="line"/>
      <point x="1434" y="0" type="line"/>
      <point x="1434" y="723" type="line"/>
      <point x="1442" y="1101" type="line"/>
      <point x="1405" y="1029" type="line"/>
      <point x="1031" y="100" type="line"/>
    </contour>
  </outline>
</glyph>
<glyph name="N" format="1">
  <advance width="1557"/>
  <unicode hex="004E"/>
  <outline>
    <contour>
      <point x="1398" y="0" type="line"/>
      <point x="1106" y="0" type="line"/>
      <point x="446" y="1030" type="line"/>
      <point x="397" y="1093" type="line"/>
      <point x="398" y="1061"/>
      <point x="406" y="768"/>
      <point x="406" y="738" type="curve"/>
      <point x="406" y="0" type="line"/>
      <point x="159" y="0" type="line"/>
      <point x="159" y="1465" type="line"/>
      <point x="447" y="1465" type="line"/>
      <point x="1110" y="439" type="line"/>
      <point x="1158" y="376" type="line"/>
      <point x="1158" y="376"/>
      <point x="1151" y="711"/>
      <point x="1151" y="724" type="curve"/>
      <point x="1151" y="1465" type="line"/>
      <point x="1398" y="1465" type="line"/>
    </contour>
    <contour>
      <point x="778" y="1453" type="move" name="top"/>
    </contour>
    <contour>
      <point x="778" y="0" type="move" name="bottom"/>
    </contour>
  </outline>
</glyph>
<glyph name="O" format="1">
  <advance width="1626"/>
  <unicode hex="004F"/>
  <outline>
    <contour>
      <point x="381" y="730" type="curve" smooth="yes"/>
      <point x="381" y="401"/>
      <point x="524" y="200"/>
      <point x="814" y="200" type="curve" smooth="yes"/>
      <point x="1104" y="200"/>
      <point x="1247" y="400"/>
      <point x="1247" y="730" type="curve" smooth="yes"/>
      <point x="1247" y="1063"/>
      <point x="1103" y="1267"/>
      <point x="815" y="1267" type="curve" smooth="yes"/>
      <point x="526" y="1267"/>
      <point x="381" y="1063"/>
    </contour>
    <contour>
      <point x="1527" y="732" type="curve" smooth="yes"/>
      <point x="1527" y="262"/>
      <point x="1252" y="-20"/>
      <point x="813" y="-20" type="curve" smooth="yes"/>
      <point x="373" y="-20"/>
      <point x="99" y="260"/>
      <point x="99" y="733" type="curve" smooth="yes"/>
      <point x="99" y="1211"/>
      <point x="376" y="1486"/>
      <point x="814" y="1486" type="curve" smooth="yes"/>
      <point x="1251" y="1486"/>
      <point x="1527" y="1208"/>
    </contour>
    <contour>
      <point x="812" y="1453" type="move" name="top"/>
    </contour>
  </outline>
</glyph>
<glyph name="P" format="1">
  <advance width="1206"/>
  <unicode hex="0050"/>
  <outline>
    <contour>
      <point x="398" y="0" type="line"/>
      <point x="130" y="0" type="line"/>
      <point x="130" y="1469" type="line"/>
      <point x="619" y="1469" type="line" smooth="yes"/>
      <point x="956" y="1469"/>
      <point x="1180" y="1338"/>
      <point x="1180" y="1029" type="curve" smooth="yes"/>
      <point x="1180" y="765"/>
      <point x="1056" y="556"/>
      <point x="619" y="556" type="curve" smooth="yes"/>
      <point x="557" y="556"/>
      <point x="474" y="557"/>
      <point x="398" y="564" type="curve"/>
    </contour>
    <contour>
      <point x="589" y="752" type="curve" smooth="yes"/>
      <point x="877" y="752"/>
      <point x="918" y="891"/>
      <point x="918" y="1020" type="curve" smooth="yes"/>
      <point x="918" y="1183"/>
      <point x="807" y="1267"/>
      <point x="621" y="1267" type="curve" smooth="yes"/>
      <point x="398" y="1267" type="line"/>
      <point x="398" y="754" type="line"/>
      <point x="417" y="751"/>
      <point x="530" y="752"/>
    </contour>
  </outline>
</glyph>
<glyph name="Q" format="1">
  <advance width="1627"/>
  <unicode hex="0051"/>
  <outline>
    <contour>
      <point x="1282" y="-470" type="curve"/>
      <point x="1426" y="-327" type="line"/>
      <point x="1273" y="-185"/>
      <point x="1170" y="-41"/>
      <point x="1121" y="36" type="curve"/>
      <point x="1380" y="141"/>
      <point x="1543" y="386"/>
      <point x="1543" y="730" type="curve" smooth="yes"/>
      <point x="1543" y="1203"/>
      <point x="1241" y="1486"/>
      <point x="813" y="1486" type="curve" smooth="yes"/>
      <point x="385" y="1486"/>
      <point x="83" y="1204"/>
      <point x="83" y="730" type="curve" smooth="yes"/>
      <point x="83" y="262"/>
      <point x="383" y="-20"/>
      <point x="813" y="-20" type="curve" smooth="yes"/>
      <point x="848" y="-20"/>
      <point x="882" y="-19"/>
      <point x="915" y="-15" type="curve"/>
      <point x="997" y="-169"/>
      <point x="1165" y="-385"/>
    </contour>
    <contour>
      <point x="815" y="187" type="curve" smooth="yes"/>
      <point x="509" y="187"/>
      <point x="356" y="404"/>
      <point x="356" y="726" type="curve" smooth="yes"/>
      <point x="356" y="1051"/>
      <point x="509" y="1277"/>
      <point x="815" y="1277" type="curve" smooth="yes"/>
      <point x="1122" y="1277"/>
      <point x="1274" y="1051"/>
      <point x="1274" y="726" type="curve" smooth="yes"/>
      <point x="1274" y="404"/>
      <point x="1122" y="187"/>
    </contour>
  </outline>
</glyph>
<glyph name="R" format="1">
  <advance width="1356"/>
  <unicode hex="0052"/>
  <outline>
    <contour>
      <point x="1351" y="0" type="line"/>
      <point x="1064" y="0" type="line"/>
      <point x="891" y="383" type="line"/>
      <point x="853" y="463"/>
      <point x="775" y="614"/>
      <point x="768" y="627" type="curve"/>
      <point x="751" y="628"/>
      <point x="696" y="628"/>
      <point x="655" y="628" type="curve" smooth="yes"/>
      <point x="650" y="628"/>
      <point x="428" y="630"/>
      <point x="428" y="630" type="curve"/>
      <point x="428" y="0" type="line"/>
      <point x="159" y="0" type="line"/>
      <point x="159" y="1469" type="line"/>
      <point x="702" y="1469" type="line" smooth="yes"/>
      <point x="1049" y="1469"/>
      <point x="1268" y="1398"/>
      <point x="1268" y="1062" type="curve" smooth="yes"/>
      <point x="1268" y="864"/>
      <point x="1173" y="737"/>
      <point x="1003" y="677" type="curve"/>
      <point x="1050" y="623"/>
      <point x="1093" y="540"/>
      <point x="1136" y="452" type="curve"/>
    </contour>
    <contour>
      <point x="428" y="1267" type="line"/>
      <point x="428" y="825" type="line"/>
      <point x="459" y="825"/>
      <point x="696" y="824"/>
      <point x="726" y="824" type="curve" smooth="yes"/>
      <point x="936" y="824"/>
      <point x="1018" y="895"/>
      <point x="1018" y="1058" type="curve" smooth="yes"/>
      <point x="1018" y="1202"/>
      <point x="928" y="1267"/>
      <point x="738" y="1267" type="curve" smooth="yes"/>
    </contour>
    <contour>
      <point x="693" y="1453" type="move" name="top"/>
    </contour>
    <contour>
      <point x="693" y="0" type="move" name="bottom"/>
    </contour>
  </outline>
</glyph>
<glyph name="S" format="1">
  <advance width="1183"/>
  <unicode hex="0053"/>
  <outline>
    <contour>
      <point x="591" y="1453" type="move" name="top"/>
    </contour>
    <contour>
      <point x="591" y="0" type="move" name="bottom"/>
    </contour>
    <contour>
      <point x="126" y="315" type="line"/>
      <point x="273" y="241"/>
      <point x="427" y="198"/>
      <point x="582" y="198" type="curve" smooth="yes"/>
      <point x="748" y="198"/>
      <point x="845" y="260"/>
      <point x="845" y="395" type="curve" smooth="yes"/>
      <point x="845" y="481"/>
      <point x="803" y="536"/>
      <point x="707" y="576" type="curve" smooth="yes"/>
      <point x="630" y="619"/>
      <point x="381" y="687"/>
      <point x="294" y="754" type="curve" smooth="yes"/>
      <point x="174" y="820"/>
      <point x="94" y="922"/>
      <point x="94" y="1077" type="curve" smooth="yes"/>
      <point x="94" y="1351"/>
      <point x="309" y="1491"/>
      <point x="617" y="1491" type="curve" smooth="yes"/>
      <point x="796" y="1491"/>
      <point x="945" y="1455"/>
      <point x="1072" y="1383" type="curve"/>
      <point x="993" y="1182" type="line"/>
      <point x="877" y="1240"/>
      <point x="755" y="1271"/>
      <point x="612" y="1271" type="curve" smooth="yes"/>
      <point x="456" y="1271"/>
      <point x="365" y="1213"/>
      <point x="365" y="1095" type="curve" smooth="yes"/>
      <point x="365" y="1004"/>
      <point x="419" y="959"/>
      <point x="509" y="926" type="curve" smooth="yes"/>
      <point x="544" y="910"/>
      <point x="664" y="872"/>
      <point x="728" y="845" type="curve" smooth="yes"/>
      <point x="968" y="755"/>
      <point x="1116" y="653"/>
      <point x="1116" y="415" type="curve" smooth="yes"/>
      <point x="1116" y="128"/>
      <point x="893" y="-21"/>
      <point x="570" y="-21" type="curve" smooth="yes"/>
      <point x="362" y="-21"/>
      <point x="201" y="21"/>
      <point x="83" y="89" type="curve"/>
    </contour>
  </outline>
</glyph>
<glyph name="T" format="1">
  <advance width="1138"/>
  <unicode hex="0054"/>
  <outline>
    <contour>
      <point x="570" y="1453" type="move" name="top"/>
    </contour>
    <contour>
      <point x="570" y="726" type="move" name="center"/>
    </contour>
    <contour>
      <point x="570" y="0" type="move" name="bottom"/>
    </contour>
    <contour>
      <point x="704" y="0" type="line"/>
      <point x="433" y="0" type="line"/>
      <point x="433" y="1248" type="line"/>
      <point x="6" y="1248" type="line"/>
      <point x="6" y="1465" type="line"/>
      <point x="1131" y="1465" type="line"/>
      <point x="1131" y="1248" type="line"/>
      <point x="704" y="1248" type="line"/>
    </contour>
  </outline>
</glyph>
<glyph name="U" format="1">
  <advance width="1468"/>
  <unicode hex="0055"/>
  <outline>
    <contour>
      <point x="734" y="1453" type="move" name="top"/>
    </contour>
    <contour>
      <point x="1321" y="10" type="move" name="ogonek"/>
    </contour>
    <contour>
      <point x="1324" y="1465" type="line"/>
      <point x="1324" y="525" type="line" smooth="yes"/>
      <point x="1324" y="185"/>
      <point x="1122" y="-20"/>
      <point x="732" y="-20" type="curve" smooth="yes"/>
      <point x="341" y="-20"/>
      <point x="145" y="184"/>
      <point x="145" y="527" type="curve" smooth="yes"/>
      <point x="145" y="1465" type="line"/>
      <point x="417" y="1465" type="line"/>
      <point x="417" y="550" type="line" smooth="yes"/>
      <point x="417" y="309"/>
      <point x="507" y="199"/>
      <point x="736" y="199" type="curve" smooth="yes"/>
      <point x="961" y="199"/>
      <point x="1053" y="309"/>
      <point x="1053" y="551" type="curve" smooth="yes"/>
      <point x="1053" y="1465" type="line"/>
    </contour>
  </outline>
</glyph>
<glyph name="V" format="1">
  <advance width="1321"/>
  <unicode hex="0056"/>
  <outline>
    <contour>
      <point x="1051" y="1465" type="curve"/>
      <point x="1327" y="1465" type="line"/>
      <point x="801" y="0" type="line"/>
      <point x="527" y="0" type="line"/>
      <point x="-6" y="1465" type="line"/>
      <point x="273" y="1465" type="line"/>
      <point x="583" y="560" type="line"/>
      <point x="594" y="531"/>
      <point x="658" y="313"/>
      <point x="666" y="285" type="curve"/>
      <point x="669" y="298"/>
      <point x="731" y="518"/>
      <point x="746" y="558" type="curve"/>
      <point x="772" y="633"/>
      <point x="1026" y="1394"/>
    </contour>
  </outline>
</glyph>
<glyph name="W" format="1">
  <advance width="2051"/>
  <unicode hex="0057"/>
  <outline>
    <contour>
      <point x="1026" y="1453" type="move" name="top"/>
    </contour>
    <contour>
      <point x="1624" y="0" type="line"/>
      <point x="1335" y="0" type="line"/>
      <point x="1026" y="1125" type="line"/>
      <point x="695" y="0" type="line"/>
      <point x="408" y="0" type="line"/>
      <point x="-5" y="1465" type="line"/>
      <point x="265" y="1465" type="line"/>
      <point x="564" y="302" type="line"/>
      <point x="900" y="1458" type="line"/>
      <point x="1154" y="1458" type="line"/>
      <point x="1474" y="298" type="line"/>
      <point x="1786" y="1465" type="line"/>
      <point x="2057" y="1465" type="line"/>
    </contour>
  </outline>
</glyph>
<glyph name="X" format="1">
  <advance width="1337"/>
  <unicode hex="0058"/>
  <outline>
    <contour>
      <point x="1347" y="0" type="line"/>
      <point x="1033" y="0" type="line"/>
      <point x="664" y="570" type="line"/>
      <point x="286" y="0" type="line"/>
      <point x="-11" y="0" type="line"/>
      <point x="502" y="750" type="line"/>
      <point x="27" y="1465" type="line"/>
      <point x="332" y="1465" type="line"/>
      <point x="677" y="919" type="line"/>
      <point x="1032" y="1465" type="line"/>
      <point x="1321" y="1465" type="line"/>
      <point x="836" y="746" type="line"/>
    </contour>
  </outline>
</glyph>
<glyph name="Y" format="1">
  <advance width="1256"/>
  <unicode hex="0059"/>
  <outline>
    <contour>
      <point x="628" y="1453" type="move" name="top"/>
    </contour>
    <contour>
      <point x="627" y="831" type="line"/>
      <point x="978" y="1465" type="line"/>
      <point x="1269" y="1465" type="line"/>
      <point x="763" y="585" type="line"/>
      <point x="763" y="0" type="line"/>
      <point x="492" y="0" type="line"/>
      <point x="492" y="581" type="line"/>
      <point x="-15" y="1465" type="line"/>
      <point x="278" y="1465" type="line"/>
    </contour>
  </outline>
</glyph>
<glyph name="Z" format="1">
  <advance width="1209"/>
  <unicode hex="005A"/>
  <outline>
    <contour>
      <point x="605" y="1453" type="move" name="top"/>
    </contour>
    <contour>
      <point x="62" y="0" type="line"/>
      <point x="1159" y="0" type="line"/>
      <point x="1160" y="216" type="line"/>
      <point x="396" y="216" type="line"/>
      <point x="1155" y="1298" type="line"/>
      <point x="1155" y="1465" type="line"/>
      <point x="89" y="1465" type="line"/>
      <point x="89" y="1248" type="line"/>
      <point x="818" y="1248" type="line"/>
      <point x="62" y="174" type="line"/>
    </contour>
  </outline>
</glyph>
<glyph name="bracketleft" format="1">
  <advance width="650"/>
  <unicode hex="005B"/>
  <outline>
    <contour>
      <point x="599" y="-266" type="line"/>
      <point x="135" y="-266" type="line"/>
      <point x="135" y="1507" type="line"/>
      <point x="599" y="1507" type="line"/>
      <point x="599" y="1327" type="line"/>
      <point x="387" y="1327" type="line"/>
      <point x="387" y="-85" type="line"/>
      <point x="599" y="-85" type="line"/>
    </contour>
  </outline>
</glyph>
<glyph name="asciicircum" format="1">
  <advance width="1154"/>
  <unicode hex="005E"/>
  <outline>
    <contour>
      <point x="36" y="548" type="line"/>
      <point x="498" y="1471" type="line"/>
      <point x="627" y="1471" type="line"/>
      <point x="1120" y="548" type="line"/>
      <point x="911" y="548" type="line"/>
      <point x="564" y="1216" type="line"/>
      <point x="245" y="548" type="line"/>
    </contour>
  </outline>
</glyph>
<glyph name="underscore" format="1">
  <advance width="1155"/>
  <unicode hex="005F"/>
  <outline>
    <contour>
      <point x="1086" y="-318" type="line"/>
      <point x="72" y="-318" type="line"/>
      <point x="72" y="-144" type="line"/>
      <point x="1086" y="-144" type="line"/>
    </contour>
  </outline>
</glyph>
<glyph name="grave" format="1">
  <advance width="514"/>
  <unicode hex="0060"/>
  <outline>
    <contour>
      <point x="239" y="1098" type="move" name="_top"/>
    </contour>
    <contour>
      <point x="323" y="1195" type="line"/>
      <point x="-8" y="1578" type="line"/>
      <point x="297" y="1578" type="line"/>
      <point x="485" y="1195" type="line"/>
    </contour>
  </outline>
</glyph>
<glyph name="a" format="1">
  <advance width="1143"/>
  <unicode hex="0061"/>
  <outline>
    <contour>
      <point x="572" y="1098" type="move" name="top"/>
    </contour>
    <contour>
      <point x="1029" y="10" type="move" name="ogonek"/>
    </contour>
    <contour>
      <point x="495" y="165" type="curve" smooth="yes"/>
      <point x="626" y="165"/>
      <point x="715" y="239"/>
      <point x="751" y="314" type="curve"/>
      <point x="751" y="526" type="line"/>
      <point x="744" y="526"/>
      <point x="651" y="518"/>
      <point x="644" y="517" type="curve"/>
      <point x="445" y="500"/>
      <point x="338" y="452"/>
      <point x="338" y="310" type="curve" smooth="yes"/>
      <point x="338" y="216"/>
      <point x="395" y="165"/>
    </contour>
    <contour>
      <point x="818" y="0" type="line"/>
      <point x="817" y="6"/>
      <point x="776" y="127"/>
      <point x="775" y="133" type="curve"/>
      <point x="675" y="35"/>
      <point x="582" y="-21"/>
      <point x="424" y="-21" type="curve" smooth="yes"/>
      <point x="229" y="-21"/>
      <point x="83" y="87"/>
      <point x="83" y="307" type="curve" smooth="yes"/>
      <point x="83" y="545"/>
      <point x="246" y="637"/>
      <point x="533" y="665" type="curve"/>
      <point x="602" y="674"/>
      <point x="675" y="680"/>
      <point x="751" y="688" type="curve"/>
      <point x="751" y="746" type="line" smooth="yes"/>
      <point x="751" y="881"/>
      <point x="688" y="937"/>
      <point x="566" y="937" type="curve" smooth="yes"/>
      <point x="464" y="937"/>
      <point x="339" y="902"/>
      <point x="235" y="862" type="curve"/>
      <point x="233" y="867"/>
      <point x="170" y="1038"/>
      <point x="168" y="1043" type="curve"/>
      <point x="292" y="1096"/>
      <point x="420" y="1126"/>
      <point x="588" y="1126" type="curve" smooth="yes"/>
      <point x="883" y="1126"/>
      <point x="1012" y="1007"/>
      <point x="1012" y="717" type="curve" smooth="yes"/>
      <point x="1012" y="0" type="line"/>
    </contour>
  </outline>
</glyph>
<glyph name="b" format="1">
  <advance width="1261"/>
  <unicode hex="0062"/>
  <outline>
    <contour>
      <point x="665" y="928" type="curve" smooth="yes"/>
      <point x="503" y="928"/>
      <point x="397" y="825"/>
      <point x="396" y="570" type="curve"/>
      <point x="396" y="295"/>
      <point x="490" y="178"/>
      <point x="661" y="178" type="curve" smooth="yes"/>
      <point x="813" y="178"/>
      <point x="919" y="309"/>
      <point x="919" y="558" type="curve" smooth="yes"/>
      <point x="919" y="809"/>
      <point x="816" y="928"/>
    </contour>
    <contour>
      <point x="731" y="1126" type="curve" smooth="yes"/>
      <point x="1017" y="1126"/>
      <point x="1180" y="890"/>
      <point x="1180" y="562" type="curve" smooth="yes"/>
      <point x="1180" y="215"/>
      <point x="1005" y="-21"/>
      <point x="725" y="-21" type="curve" smooth="yes"/>
      <point x="563" y="-21"/>
      <point x="437" y="68"/>
      <point x="388" y="141" type="curve"/>
      <point x="363" y="1" type="line"/>
      <point x="135" y="1" type="line"/>
      <point x="135" y="1526" type="line"/>
      <point x="398" y="1535" type="line"/>
      <point x="398" y="1181" type="line" smooth="yes"/>
      <point x="398" y="1115"/>
      <point x="396" y="1040"/>
      <point x="392" y="956" type="curve"/>
      <point x="446" y="1028"/>
      <point x="550" y="1126"/>
    </contour>
  </outline>
</glyph>
<glyph name="c" format="1">
  <advance width="1003"/>
  <unicode hex="0063"/>
  <outline>
    <contour>
      <point x="501" y="1098" type="move" name="top"/>
    </contour>
    <contour>
      <point x="501" y="0" type="move" name="bottom"/>
    </contour>
    <contour>
      <point x="614" y="-21" type="curve" smooth="yes"/>
      <point x="281" y="-21"/>
      <point x="81" y="182"/>
      <point x="81" y="558" type="curve" smooth="yes"/>
      <point x="81" y="927"/>
      <point x="304" y="1126"/>
      <point x="617" y="1126" type="curve" smooth="yes"/>
      <point x="749" y="1126"/>
      <point x="858" y="1096"/>
      <point x="943" y="1042" type="curve"/>
      <point x="881" y="856" type="line"/>
      <point x="808" y="894"/>
      <point x="714" y="927"/>
      <point x="628" y="927" type="curve" smooth="yes"/>
      <point x="455" y="927"/>
      <point x="342" y="804"/>
      <point x="342" y="555" type="curve" smooth="yes"/>
      <point x="342" y="307"/>
      <point x="449" y="179"/>
      <point x="631" y="179" type="curve" smooth="yes"/>
      <point x="736" y="179"/>
      <point x="828" y="213"/>
      <point x="908" y="264" type="curve"/>
      <point x="933" y="65" type="line"/>
      <point x="842" y="5"/>
      <point x="752" y="-21"/>
    </contour>
  </outline>
</glyph>
<glyph name="d" format="1">
  <advance width="1259"/>
  <unicode hex="0064"/>
  <outline>
    <contour>
      <point x="630" y="549" type="move" name="center"/>
    </contour>
    <contour>
      <point x="604" y="178" type="curve" smooth="yes"/>
      <point x="769" y="178"/>
      <point x="869" y="283"/>
      <point x="871" y="537" type="curve"/>
      <point x="871" y="814"/>
      <point x="777" y="926"/>
      <point x="601" y="926" type="curve" smooth="yes"/>
      <point x="450" y="926"/>
      <point x="342" y="807"/>
      <point x="342" y="553" type="curve" smooth="yes"/>
      <point x="342" y="302"/>
      <point x="448" y="178"/>
    </contour>
    <contour>
      <point x="868" y="150" type="line"/>
      <point x="823" y="76"/>
      <point x="750" y="-20"/>
      <point x="541" y="-20" type="curve" smooth="yes"/>
      <point x="252" y="-20"/>
      <point x="81" y="212"/>
      <point x="81" y="559" type="curve" smooth="yes"/>
      <point x="81" y="896"/>
      <point x="251" y="1126"/>
      <point x="541" y="1126" type="curve" smooth="yes"/>
      <point x="744" y="1126"/>
      <point x="833" y="1027"/>
      <point x="872" y="960" type="curve"/>
      <point x="866" y="1019"/>
      <point x="862" y="1098"/>
      <point x="862" y="1149" type="curve" smooth="yes"/>
      <point x="862" y="1526" type="line"/>
      <point x="1125" y="1535" type="line"/>
      <point x="1125" y="0" type="line"/>
      <point x="897" y="0" type="line"/>
    </contour>
  </outline>
</glyph>
<glyph name="e" format="1">
  <advance width="1152"/>
  <unicode hex="0065"/>
  <outline>
    <contour>
      <point x="577" y="1098" type="move" name="top"/>
    </contour>
    <contour>
      <point x="1037" y="10" type="move" name="ogonek"/>
    </contour>
    <contour>
      <point x="577" y="0" type="move" name="bottom"/>
    </contour>
    <contour>
      <point x="600" y="938" type="curve" smooth="yes"/>
      <point x="473" y="938"/>
      <point x="364" y="854"/>
      <point x="350" y="661" type="curve"/>
      <point x="830" y="661" type="line"/>
      <point x="829" y="841"/>
      <point x="743" y="938"/>
    </contour>
    <contour>
      <point x="641" y="-21" type="curve" smooth="yes"/>
      <point x="287" y="-21"/>
      <point x="81" y="195"/>
      <point x="81" y="553" type="curve" smooth="yes"/>
      <point x="81" y="900"/>
      <point x="277" y="1125"/>
      <point x="599" y="1126" type="curve" smooth="yes"/>
      <point x="908" y="1126"/>
      <point x="1077" y="913"/>
      <point x="1077" y="607" type="curve" smooth="yes"/>
      <point x="1077" y="572"/>
      <point x="1076" y="531"/>
      <point x="1076" y="495" type="curve"/>
      <point x="345" y="495" type="line"/>
      <point x="350" y="290"/>
      <point x="463" y="173"/>
      <point x="651" y="173" type="curve" smooth="yes"/>
      <point x="787" y="173"/>
      <point x="900" y="212"/>
      <point x="997" y="267" type="curve"/>
      <point x="1034" y="81" type="line"/>
      <point x="932" y="18"/>
      <point x="816" y="-21"/>
    </contour>
  </outline>
</glyph>
<glyph name="f" format="1">
  <advance width="737"/>
  <unicode hex="0066"/>
  <outline>
    <contour>
      <point x="579" y="1346" type="curve"/>
      <point x="493" y="1337"/>
      <point x="465" y="1280"/>
      <point x="465" y="1174" type="curve" smooth="yes"/>
      <point x="465" y="1099" type="line"/>
      <point x="723" y="1099" type="line"/>
      <point x="723" y="925" type="line"/>
      <point x="465" y="925" type="line"/>
      <point x="465" y="0" type="line"/>
      <point x="203" y="0" type="line"/>
      <point x="203" y="925" type="line"/>
      <point x="29" y="925" type="line"/>
      <point x="29" y="1073" type="line"/>
      <point x="203" y="1105" type="line"/>
      <point x="203" y="1160" type="line" smooth="yes"/>
      <point x="204" y="1410"/>
      <point x="281" y="1537"/>
      <point x="535" y="1551" type="curve"/>
      <point x="611" y="1554"/>
      <point x="694" y="1547"/>
      <point x="772" y="1533" type="curve"/>
      <point x="749" y="1338" type="line"/>
      <point x="686" y="1346"/>
      <point x="623" y="1353"/>
    </contour>
  </outline>
</glyph>
<glyph name="g" format="1">
  <advance width="1267"/>
  <unicode hex="0067"/>
  <outline>
    <contour>
      <point x="353" y="-491" type="line"/>
      <point x="504" y="-491" type="line" smooth="yes"/>
      <point x="1021" y="-491"/>
      <point x="1142" y="-289"/>
      <point x="1142" y="77" type="curve" smooth="yes"/>
      <point x="1142" y="1099" type="line"/>
      <point x="908" y="1099" type="line"/>
      <point x="890" y="965" type="line"/>
      <point x="824" y="1062"/>
      <point x="723" y="1126"/>
      <point x="561" y="1126" type="curve" smooth="yes"/>
      <point x="299" y="1126"/>
      <point x="75" y="925"/>
      <point x="75" y="562" type="curve" smooth="yes"/>
      <point x="75" y="229"/>
      <point x="284" y="0"/>
      <point x="574" y="0" type="curve" smooth="yes"/>
      <point x="750" y="0"/>
      <point x="820" y="69"/>
      <point x="879" y="152" type="curve"/>
      <point x="884" y="113"/>
      <point x="886" y="48"/>
      <point x="886" y="7" type="curve" smooth="yes"/>
      <point x="886" y="-216"/>
      <point x="773" y="-280"/>
      <point x="471" y="-280" type="curve" smooth="yes"/>
      <point x="338" y="-280" type="line"/>
    </contour>
    <contour>
      <point x="616" y="183" type="curve" smooth="yes"/>
      <point x="436" y="183"/>
      <point x="337" y="357"/>
      <point x="337" y="562" type="curve" smooth="yes"/>
      <point x="337" y="777"/>
      <point x="431" y="926"/>
      <point x="629" y="926" type="curve"/>
      <point x="802" y="924"/>
      <point x="890" y="795"/>
      <point x="890" y="573" type="curve" smooth="yes"/>
      <point x="890" y="569"/>
      <point x="890" y="545"/>
      <point x="890" y="542" type="curve" smooth="yes"/>
      <point x="888" y="333"/>
      <point x="819" y="183"/>
    </contour>
    <contour>
      <point x="634" y="1098" type="move" name="top"/>
    </contour>
  </outline>
</glyph>
<glyph name="h" format="1">
  <advance width="1237"/>
  <unicode hex="0068"/>
  <outline>
    <contour>
      <point x="618" y="1098" type="move" name="top"/>
    </contour>
    <contour>
      <point x="618" y="549" type="move" name="center"/>
    </contour>
    <contour>
      <point x="867" y="0" type="line"/>
      <point x="867" y="667" type="line" smooth="yes"/>
      <point x="867" y="841"/>
      <point x="818" y="928"/>
      <point x="678" y="928" type="curve" smooth="yes"/>
      <point x="557" y="928"/>
      <point x="464" y="858"/>
      <point x="420" y="769" type="curve"/>
      <point x="404" y="704"/>
      <point x="396" y="624"/>
      <point x="396" y="529" type="curve" smooth="yes"/>
      <point x="396" y="0" type="line"/>
      <point x="134" y="0" type="line"/>
      <point x="134" y="1526" type="line"/>
      <point x="396" y="1535" type="line"/>
      <point x="396" y="1204" type="line" smooth="yes"/>
      <point x="396" y="1165"/>
      <point x="390" y="980"/>
      <point x="390" y="970" type="curve"/>
      <point x="454" y="1046"/>
      <point x="564" y="1126"/>
      <point x="742" y="1126" type="curve" smooth="yes"/>
      <point x="980" y="1126"/>
      <point x="1129" y="997"/>
      <point x="1129" y="696" type="curve" smooth="yes"/>
      <point x="1129" y="0" type="line"/>
    </contour>
  </outline>
</glyph>
<glyph name="i" format="1">
  <advance width="512"/>
  <unicode hex="0069"/>
  <outline>
    <contour>
      <point x="400" y="1099" type="line"/>
      <point x="400" y="0" type="line"/>
      <point x="137" y="0" type="line"/>
      <point x="137" y="1099" type="line"/>
    </contour>
    <contour>
      <point x="401" y="1482" type="line"/>
      <point x="401" y="1259" type="line"/>
      <point x="137" y="1259" type="line"/>
      <point x="137" y="1482" type="line"/>
    </contour>
  </outline>
</glyph>
<glyph name="j" format="1">
  <advance width="527"/>
  <unicode hex="006A"/>
  <outline>
    <contour>
      <point x="426" y="1099" type="line"/>
      <point x="426" y="26" type="line" smooth="yes"/>
      <point x="426" y="-282"/>
      <point x="361" y="-427"/>
      <point x="11" y="-427" type="curve" smooth="yes"/>
      <point x="-48" y="-427" type="line"/>
      <point x="-77" y="-232" type="line"/>
      <point x="-19" y="-232" type="line" smooth="yes"/>
      <point x="145" y="-232"/>
      <point x="164" y="-181"/>
      <point x="164" y="-16" type="curve" smooth="yes"/>
      <point x="164" y="1099" type="line"/>
    </contour>
    <contour>
      <point x="426" y="1482" type="line"/>
      <point x="426" y="1259" type="line"/>
      <point x="164" y="1259" type="line"/>
      <point x="164" y="1482" type="line"/>
    </contour>
  </outline>
</glyph>
<glyph name="k" format="1">
  <advance width="1160"/>
  <unicode hex="006B"/>
  <outline>
    <contour>
      <point x="580" y="0" type="move" name="bottom"/>
    </contour>
    <contour>
      <point x="135" y="0" type="line"/>
      <point x="397" y="0" type="line"/>
      <point x="397" y="412" type="line"/>
      <point x="506" y="499" type="line"/>
      <point x="868" y="0" type="line"/>
      <point x="1185" y="0" type="line"/>
      <point x="704" y="631" type="line"/>
      <point x="1156" y="1099" type="line"/>
      <point x="844" y="1099" type="line"/>
      <point x="709" y="959"/>
      <point x="556" y="809"/>
      <point x="433" y="665" type="curve"/>
      <point x="430" y="661"/>
      <point x="394" y="627"/>
      <point x="391" y="624" type="curve"/>
      <point x="391" y="624"/>
      <point x="397" y="842"/>
      <point x="397" y="846" type="curve"/>
      <point x="397" y="1535" type="line"/>
      <point x="135" y="1525" type="line"/>
    </contour>
  </outline>
</glyph>
<glyph name="l" format="1">
  <advance width="658"/>
  <unicode hex="006C"/>
  <outline>
    <contour>
      <point x="329" y="1098" type="move" name="top"/>
    </contour>
    <contour>
      <point x="638" y="1098" type="move" name="topright"/>
    </contour>
    <contour>
      <point x="329" y="0" type="move" name="bottom"/>
    </contour>
    <contour>
      <point x="382" y="438" type="line"/>
      <point x="382" y="215"/>
      <point x="404" y="177"/>
      <point x="541" y="177" type="curve" smooth="yes"/>
      <point x="578" y="177"/>
      <point x="632" y="187"/>
      <point x="679" y="196" type="curve"/>
      <point x="687" y="9" type="line"/>
      <point x="669" y="6"/>
      <point x="582" y="-15"/>
      <point x="502" y="-15" type="curve" smooth="yes"/>
      <point x="198" y="-15"/>
      <point x="119" y="129"/>
      <point x="119" y="433" type="curve" smooth="yes"/>
      <point x="119" y="1525" type="line"/>
      <point x="382" y="1535" type="line"/>
    </contour>
  </outline>
</glyph>
<glyph name="m" format="1">
  <advance width="1895"/>
  <unicode hex="006D"/>
  <outline>
    <contour>
      <point x="1524" y="0" type="line"/>
      <point x="1524" y="624" type="line" smooth="yes"/>
      <point x="1524" y="824"/>
      <point x="1493" y="927"/>
      <point x="1352" y="927" type="curve" smooth="yes"/>
      <point x="1250" y="927"/>
      <point x="1175" y="878"/>
      <point x="1133" y="791" type="curve" smooth="yes"/>
      <point x="1114" y="750"/>
      <point x="1101" y="700"/>
      <point x="1095" y="643" type="curve"/>
      <point x="1095" y="0" type="line"/>
      <point x="832" y="0" type="line"/>
      <point x="832" y="636" type="line" smooth="yes"/>
      <point x="832" y="817"/>
      <point x="797" y="927"/>
      <point x="653" y="927" type="curve" smooth="yes"/>
      <point x="536" y="927"/>
      <point x="458" y="859"/>
      <point x="419" y="775" type="curve"/>
      <point x="404" y="709"/>
      <point x="396" y="628"/>
      <point x="396" y="533" type="curve" smooth="yes"/>
      <point x="396" y="0" type="line"/>
      <point x="134" y="0" type="line"/>
      <point x="134" y="0"/>
      <point x="133" y="1082"/>
      <point x="133" y="1099" type="curve"/>
      <point x="345" y="1099" type="line"/>
      <point x="375" y="959" type="line"/>
      <point x="430" y="1028"/>
      <point x="525" y="1126"/>
      <point x="739" y="1126" type="curve" smooth="yes"/>
      <point x="932" y="1126"/>
      <point x="1024" y="1026"/>
      <point x="1059" y="949" type="curve"/>
      <point x="1138" y="1062"/>
      <point x="1266" y="1126"/>
      <point x="1421" y="1126" type="curve" smooth="yes"/>
      <point x="1677" y="1126"/>
      <point x="1786" y="976"/>
      <point x="1786" y="702" type="curve" smooth="yes"/>
      <point x="1786" y="0" type="line"/>
    </contour>
  </outline>
</glyph>
<glyph name="n" format="1">
  <advance width="1255"/>
  <unicode hex="006E"/>
  <outline>
    <contour>
      <point x="627" y="1098" type="move" name="top"/>
    </contour>
    <contour>
      <point x="627" y="0" type="move" name="bottom"/>
    </contour>
    <contour>
      <point x="133" y="0" type="line"/>
      <point x="133" y="1099" type="line"/>
      <point x="345" y="1099" type="line"/>
      <point x="374" y="960" type="line"/>
      <point x="466" y="1052"/>
      <point x="581" y="1126"/>
      <point x="747" y="1126" type="curve" smooth="yes"/>
      <point x="1007" y="1126"/>
      <point x="1129" y="969"/>
      <point x="1129" y="695" type="curve" smooth="yes"/>
      <point x="1129" y="0" type="line"/>
      <point x="867" y="0" type="line"/>
      <point x="867" y="0"/>
      <point x="867" y="651"/>
      <point x="867" y="663" type="curve" smooth="yes"/>
      <point x="865" y="826"/>
      <point x="826" y="927"/>
      <point x="673" y="927" type="curve" smooth="yes"/>
      <point x="556" y="927"/>
      <point x="461" y="860"/>
      <point x="420" y="774" type="curve"/>
      <point x="404" y="709"/>
      <point x="396" y="630"/>
      <point x="396" y="535" type="curve" smooth="yes"/>
      <point x="396" y="0" type="line"/>
    </contour>
  </outline>
</glyph>
<glyph name="o" format="1">
  <advance width="1222"/>
  <unicode hex="006F"/>
  <outline>
    <contour>
      <point x="612" y="1098" type="move" name="top"/>
    </contour>
    <contour>
      <point x="342" y="552" type="curve" smooth="yes"/>
      <point x="342" y="316"/>
      <point x="431" y="178"/>
      <point x="612" y="178" type="curve" smooth="yes"/>
      <point x="792" y="178"/>
      <point x="879" y="315"/>
      <point x="879" y="553" type="curve" smooth="yes"/>
      <point x="879" y="793"/>
      <point x="791" y="927"/>
      <point x="610" y="927" type="curve" smooth="yes"/>
      <point x="431" y="927"/>
      <point x="342" y="792"/>
    </contour>
    <contour>
      <point x="1141" y="553" type="curve" smooth="yes"/>
      <point x="1141" y="207"/>
      <point x="948" y="-21"/>
      <point x="605" y="-21" type="curve" smooth="yes"/>
      <point x="275" y="-21"/>
      <point x="81" y="214"/>
      <point x="81" y="553" type="curve" smooth="yes"/>
      <point x="81" y="903"/>
      <point x="272" y="1126"/>
      <point x="616" y="1126" type="curve" smooth="yes"/>
      <point x="948" y="1126"/>
      <point x="1141" y="894"/>
    </contour>
  </outline>
</glyph>
<glyph name="p" format="1">
  <advance width="1257"/>
  <unicode hex="0070"/>
  <outline>
    <contour>
      <point x="133" y="-457" type="line"/>
      <point x="396" y="-444" type="line"/>
      <point x="396" y="-28" type="line" smooth="yes"/>
      <point x="396" y="10"/>
      <point x="394" y="64"/>
      <point x="388" y="133" type="curve"/>
      <point x="460" y="42"/>
      <point x="575" y="-21"/>
      <point x="717" y="-21" type="curve" smooth="yes"/>
      <point x="1005" y="-21"/>
      <point x="1176" y="221"/>
      <point x="1176" y="555" type="curve" smooth="yes"/>
      <point x="1176" y="876"/>
      <point x="1015" y="1126"/>
      <point x="740" y="1126" type="curve" smooth="yes"/>
      <point x="587" y="1126"/>
      <point x="445" y="1044"/>
      <point x="387" y="960" type="curve"/>
      <point x="359" y="1099" type="line"/>
      <point x="133" y="1099" type="line"/>
    </contour>
    <contour>
      <point x="662" y="179" type="curve" smooth="yes"/>
      <point x="488" y="179"/>
      <point x="394" y="296"/>
      <point x="394" y="574" type="curve"/>
      <point x="395" y="823"/>
      <point x="495" y="928"/>
      <point x="657" y="928" type="curve" smooth="yes"/>
      <point x="812" y="928"/>
      <point x="914" y="811"/>
      <point x="914" y="557" type="curve" smooth="yes"/>
      <point x="914" y="311"/>
      <point x="815" y="179"/>
    </contour>
  </outline>
</glyph>
<glyph name="q" format="1">
  <advance width="1259"/>
  <unicode hex="0071"/>
  <outline>
    <contour>
      <point x="535" y="-21" type="curve" smooth="yes"/>
      <point x="244" y="-21"/>
      <point x="82" y="222"/>
      <point x="82" y="555" type="curve" smooth="yes"/>
      <point x="82" y="884"/>
      <point x="242" y="1126"/>
      <point x="542" y="1126" type="curve" smooth="yes"/>
      <point x="732" y="1126"/>
      <point x="823" y="1038"/>
      <point x="874" y="959" type="curve"/>
      <point x="895" y="1099" type="line"/>
      <point x="1125" y="1099" type="line"/>
      <point x="1125" y="-443" type="line"/>
      <point x="862" y="-457" type="line"/>
      <point x="862" y="8" type="line" smooth="yes"/>
      <point x="862" y="51"/>
      <point x="864" y="98"/>
      <point x="868" y="150" type="curve"/>
      <point x="818" y="76"/>
      <point x="760" y="-21"/>
    </contour>
    <contour>
      <point x="606" y="177" type="curve" smooth="yes"/>
      <point x="771" y="177"/>
      <point x="869" y="279"/>
      <point x="872" y="535" type="curve"/>
      <point x="872" y="812"/>
      <point x="777" y="926"/>
      <point x="603" y="926" type="curve" smooth="yes"/>
      <point x="448" y="926"/>
      <point x="343" y="808"/>
      <point x="343" y="552" type="curve" smooth="yes"/>
      <point x="343" y="301"/>
      <point x="445" y="177"/>
    </contour>
  </outline>
</glyph>
<glyph name="r" format="1">
  <advance width="799"/>
  <unicode hex="0072"/>
  <outline>
    <contour>
      <point x="399" y="1098" type="move" name="top"/>
    </contour>
    <contour>
      <point x="399" y="0" type="move" name="bottom"/>
    </contour>
    <contour>
      <point x="702" y="1115" type="curve" smooth="yes"/>
      <point x="728" y="1115"/>
      <point x="751" y="1114"/>
      <point x="772" y="1111" type="curve"/>
      <point x="767" y="884" type="line"/>
      <point x="741" y="888"/>
      <point x="713" y="890"/>
      <point x="684" y="890" type="curve" smooth="yes"/>
      <point x="485" y="890"/>
      <point x="397" y="772"/>
      <point x="397" y="596" type="curve" smooth="yes"/>
      <point x="397" y="0" type="line"/>
      <point x="135" y="0" type="line"/>
      <point x="135" y="0"/>
      <point x="134" y="1078"/>
      <point x="134" y="1099" type="curve"/>
      <point x="355" y="1099" type="line"/>
      <point x="389" y="931" type="line"/>
      <point x="459" y="1043"/>
      <point x="565" y="1115"/>
    </contour>
  </outline>
</glyph>
<glyph name="s" format="1">
  <advance width="972"/>
  <unicode hex="0073"/>
  <outline>
    <contour>
      <point x="486" y="1098" type="move" name="top"/>
    </contour>
    <contour>
      <point x="486" y="0" type="move" name="bottom"/>
    </contour>
    <contour>
      <point x="476" y="-20" type="curve" smooth="yes"/>
      <point x="748" y="-20"/>
      <point x="902" y="105"/>
      <point x="903" y="325" type="curve" smooth="yes"/>
      <point x="903" y="494"/>
      <point x="803" y="585"/>
      <point x="610" y="656" type="curve" smooth="yes"/>
      <point x="588" y="663"/>
      <point x="568" y="671"/>
      <point x="550" y="677" type="curve" smooth="yes"/>
      <point x="399" y="732"/>
      <point x="339" y="759"/>
      <point x="339" y="832" type="curve" smooth="yes"/>
      <point x="339" y="906"/>
      <point x="404" y="939"/>
      <point x="507" y="939" type="curve" smooth="yes"/>
      <point x="612" y="939"/>
      <point x="721" y="905"/>
      <point x="806" y="866" type="curve"/>
      <point x="870" y="1047" type="line"/>
      <point x="764" y="1100"/>
      <point x="643" y="1126"/>
      <point x="502" y="1126" type="curve" smooth="yes"/>
      <point x="247" y="1126"/>
      <point x="90" y="1019"/>
      <point x="90" y="816" type="curve" smooth="yes"/>
      <point x="90" y="645"/>
      <point x="182" y="563"/>
      <point x="377" y="488" type="curve"/>
      <point x="390" y="483"/>
      <point x="422" y="471"/>
      <point x="433" y="466" type="curve" smooth="yes"/>
      <point x="589" y="407"/>
      <point x="653" y="376"/>
      <point x="653" y="295" type="curve" smooth="yes"/>
      <point x="652" y="209"/>
      <point x="580" y="167"/>
      <point x="467" y="167" type="curve" smooth="yes"/>
      <point x="348" y="167"/>
      <point x="195" y="216"/>
      <point x="114" y="260" type="curve"/>
      <point x="87" y="63" type="line"/>
      <point x="180" y="10"/>
      <point x="309" y="-20"/>
    </contour>
  </outline>
</glyph>
<glyph name="t" format="1">
  <advance width="796"/>
  <unicode hex="0074"/>
  <outline>
    <contour>
      <point x="398" y="549" type="move" name="center"/>
    </contour>
    <contour>
      <point x="398" y="0" type="move" name="bottom"/>
    </contour>
    <contour>
      <point x="573" y="-15" type="curve" smooth="yes"/>
      <point x="625" y="-15"/>
      <point x="726" y="-2"/>
      <point x="746" y="1" type="curve"/>
      <point x="734" y="168" type="line"/>
      <point x="720" y="166"/>
      <point x="614" y="158"/>
      <point x="599" y="158" type="curve" smooth="yes"/>
      <point x="477" y="158"/>
      <point x="455" y="238"/>
      <point x="455" y="416" type="curve" smooth="yes"/>
      <point x="455" y="912" type="line"/>
      <point x="728" y="912" type="line"/>
      <point x="728" y="1071" type="line"/>
      <point x="455" y="1071" type="line"/>
      <point x="455" y="1354" type="line"/>
      <point x="295" y="1353" type="line"/>
      <point x="208" y="1074" type="line"/>
      <point x="28" y="1065" type="line"/>
      <point x="14" y="912" type="line"/>
      <point x="193" y="912" type="line"/>
      <point x="193" y="912"/>
      <point x="193" y="432"/>
      <point x="193" y="421" type="curve" smooth="yes"/>
      <point x="194" y="130"/>
      <point x="271" y="-15"/>
    </contour>
  </outline>
</glyph>
<glyph name="u" format="1">
  <advance width="1129"/>
  <unicode hex="0075"/>
  <outline>
    <contour>
      <point x="564" y="1098" type="move" name="top"/>
    </contour>
    <contour>
      <point x="1016" y="10" type="move" name="ogonek"/>
    </contour>
    <contour>
      <point x="88" y="391" type="curve" smooth="yes"/>
      <point x="88" y="1099" type="line"/>
      <point x="351" y="1099" type="line"/>
      <point x="351" y="390" type="line" smooth="yes"/>
      <point x="351" y="223"/>
      <point x="417" y="157"/>
      <point x="564" y="157" type="curve" smooth="yes"/>
      <point x="710" y="157"/>
      <point x="776" y="224"/>
      <point x="776" y="390" type="curve" smooth="yes"/>
      <point x="776" y="1099" type="line"/>
      <point x="1039" y="1099" type="line"/>
      <point x="1039" y="391" type="line" smooth="yes"/>
      <point x="1039" y="106"/>
      <point x="837" y="-21"/>
      <point x="564" y="-21" type="curve" smooth="yes"/>
      <point x="291" y="-21"/>
      <point x="88" y="104"/>
    </contour>
  </outline>
</glyph>
<glyph name="v" format="1">
  <advance width="1125"/>
  <unicode hex="0076"/>
  <outline>
    <contour>
      <point x="441" y="0" type="line"/>
      <point x="2" y="1099" type="line"/>
      <point x="281" y="1099" type="line"/>
      <point x="496" y="505" type="line"/>
      <point x="504" y="481"/>
      <point x="577" y="251"/>
      <point x="577" y="251" type="curve"/>
      <point x="584" y="272"/>
      <point x="637" y="478"/>
      <point x="646" y="504" type="curve"/>
      <point x="659" y="542"/>
      <point x="817" y="1022"/>
      <point x="845" y="1099" type="curve"/>
      <point x="1122" y="1099" type="line"/>
      <point x="706" y="0" type="line"/>
    </contour>
  </outline>
</glyph>
<glyph name="w" format="1">
  <advance width="1713"/>
  <unicode hex="0077"/>
  <outline>
    <contour>
      <point x="857" y="1098" type="move" name="top"/>
    </contour>
    <contour>
      <point x="1090" y="0" type="line"/>
      <point x="1066" y="76"/>
      <point x="879" y="780"/>
      <point x="856" y="857" type="curve"/>
      <point x="833" y="779"/>
      <point x="625" y="76"/>
      <point x="600" y="0" type="curve"/>
      <point x="341" y="0" type="line"/>
      <point x="13" y="1099" type="line"/>
      <point x="280" y="1099" type="line"/>
      <point x="486" y="293" type="line"/>
      <point x="509" y="369"/>
      <point x="702" y="1025"/>
      <point x="726" y="1099" type="curve"/>
      <point x="995" y="1099" type="line"/>
      <point x="1018" y="1025"/>
      <point x="1193" y="371"/>
      <point x="1216" y="296" type="curve"/>
      <point x="1437" y="1099" type="line"/>
      <point x="1700" y="1099" type="line"/>
      <point x="1351" y="0" type="line"/>
    </contour>
  </outline>
</glyph>
<glyph name="x" format="1">
  <advance width="1158"/>
  <unicode hex="0078"/>
  <outline>
    <contour>
      <point x="407" y="563" type="line"/>
      <point x="39" y="1099" type="line"/>
      <point x="337" y="1099" type="line"/>
      <point x="580" y="725" type="line"/>
      <point x="832" y="1099" type="line"/>
      <point x="1123" y="1099" type="line"/>
      <point x="749" y="564" type="line"/>
      <point x="1136" y="0" type="line"/>
      <point x="837" y="0" type="line"/>
      <point x="581" y="399" type="line"/>
      <point x="317" y="0" type="line"/>
      <point x="20" y="0" type="line"/>
    </contour>
  </outline>
</glyph>
<glyph name="y" format="1">
  <advance width="1111"/>
  <unicode hex="0079"/>
  <outline>
    <contour>
      <point x="555" y="1098" type="move" name="top"/>
    </contour>
    <contour>
      <point x="-6" y="1099" type="line"/>
      <point x="274" y="1099" type="line"/>
      <point x="562" y="295" type="line"/>
      <point x="618" y="496"/>
      <point x="766" y="905"/>
      <point x="829" y="1099" type="curve"/>
      <point x="1109" y="1099" type="line"/>
      <point x="1109" y="1099"/>
      <point x="652" y="-109"/>
      <point x="648" y="-119" type="curve" smooth="yes"/>
      <point x="552" y="-368"/>
      <point x="415" y="-462"/>
      <point x="191" y="-462" type="curve" smooth="yes"/>
      <point x="145" y="-462"/>
      <point x="100" y="-459"/>
      <point x="55" y="-454" type="curve"/>
      <point x="42" y="-252" type="line"/>
      <point x="79" y="-256"/>
      <point x="120" y="-257"/>
      <point x="159" y="-257" type="curve" smooth="yes"/>
      <point x="277" y="-257"/>
      <point x="346" y="-219"/>
      <point x="396" y="-92" type="curve" smooth="yes"/>
      <point x="409" y="-61"/>
      <point x="421" y="-23"/>
      <point x="435" y="20" type="curve"/>
    </contour>
  </outline>
</glyph>
<glyph name="z" format="1">
  <advance width="977"/>
  <unicode hex="007A"/>
  <outline>
    <contour>
      <point x="488" y="1098" type="move" name="top"/>
    </contour>
    <contour>
      <point x="921" y="0" type="line"/>
      <point x="69" y="0" type="line"/>
      <point x="69" y="159" type="line"/>
      <point x="591" y="917" type="line"/>
      <point x="95" y="917" type="line"/>
      <point x="95" y="1099" type="line"/>
      <point x="904" y="1099" type="line"/>
      <point x="904" y="943" type="line"/>
      <point x="388" y="191" type="line"/>
      <point x="921" y="191" type="line"/>
    </contour>
  </outline>
</glyph>
<glyph name="braceleft" format="1">
  <advance width="786"/>
  <unicode hex="007B"/>
  <outline>
    <contour>
      <point x="529" y="88" type="line"/>
      <point x="529" y="-43"/>
      <point x="556" y="-84"/>
      <point x="703" y="-86" type="curve"/>
      <point x="703" y="-287" type="line"/>
      <point x="415" y="-287"/>
      <point x="277" y="-223"/>
      <point x="277" y="12" type="curve" smooth="yes"/>
      <point x="277" y="290" type="line" smooth="yes"/>
      <point x="277" y="447"/>
      <point x="229" y="505"/>
      <point x="52" y="505" type="curve"/>
      <point x="52" y="719" type="line"/>
      <point x="237" y="720"/>
      <point x="277" y="772"/>
      <point x="277" y="930" type="curve" smooth="yes"/>
      <point x="277" y="1221" type="line" smooth="yes"/>
      <point x="277" y="1449"/>
      <point x="421" y="1511"/>
      <point x="703" y="1511" type="curve"/>
      <point x="703" y="1311" type="line"/>
      <point x="557" y="1309"/>
      <point x="529" y="1267"/>
      <point x="529" y="1137" type="curve" smooth="yes"/>
      <point x="529" y="868" type="line"/>
      <point x="527" y="730"/>
      <point x="464" y="664"/>
      <point x="317" y="609" type="curve"/>
      <point x="456" y="581"/>
      <point x="529" y="501"/>
      <point x="529" y="360" type="curve" smooth="yes"/>
    </contour>
  </outline>
</glyph>
<glyph name="braceright" format="1">
  <advance width="787"/>
  <unicode hex="007D"/>
  <outline>
    <contour>
      <point x="471" y="611" type="curve"/>
      <point x="327" y="656"/>
      <point x="260" y="730"/>
      <point x="259" y="868" type="curve"/>
      <point x="259" y="1137" type="line" smooth="yes"/>
      <point x="259" y="1267"/>
      <point x="232" y="1309"/>
      <point x="85" y="1311" type="curve"/>
      <point x="85" y="1511" type="line"/>
      <point x="372" y="1511"/>
      <point x="511" y="1451"/>
      <point x="511" y="1212" type="curve" smooth="yes"/>
      <point x="511" y="929" type="line" smooth="yes"/>
      <point x="511" y="774"/>
      <point x="552" y="720"/>
      <point x="737" y="719" type="curve"/>
      <point x="737" y="505" type="line"/>
      <point x="559" y="505"/>
      <point x="511" y="451"/>
      <point x="511" y="290" type="curve" smooth="yes"/>
      <point x="511" y="4" type="line" smooth="yes"/>
      <point x="511" y="-225"/>
      <point x="374" y="-287"/>
      <point x="85" y="-287" type="curve"/>
      <point x="85" y="-86" type="line"/>
      <point x="231" y="-84"/>
      <point x="259" y="-44"/>
      <point x="259" y="88" type="curve" smooth="yes"/>
      <point x="259" y="360" type="line" smooth="yes"/>
      <point x="259" y="502"/>
      <point x="332" y="570"/>
    </contour>
  </outline>
</glyph>
<glyph name="asciitilde" format="1">
  <advance width="1297"/>
  <unicode hex="007E"/>
  <outline>
    <contour>
      <point x="408" y="619" type="curve" smooth="yes"/>
      <point x="314" y="619"/>
      <point x="248" y="548"/>
      <point x="207" y="471" type="curve"/>
      <point x="130" y="616" type="line"/>
      <point x="182" y="722"/>
      <point x="267" y="811"/>
      <point x="417" y="811" type="curve" smooth="yes"/>
      <point x="504" y="811"/>
      <point x="594" y="782"/>
      <point x="681" y="745" type="curve" smooth="yes"/>
      <point x="770" y="706"/>
      <point x="839" y="681"/>
      <point x="900" y="681" type="curve" smooth="yes"/>
      <point x="981" y="681"/>
      <point x="1050" y="723"/>
      <point x="1134" y="817" type="curve"/>
      <point x="1205" y="681" type="line"/>
      <point x="1152" y="583"/>
      <point x="1027" y="486"/>
      <point x="883" y="486" type="curve" smooth="yes"/>
      <point x="787" y="486"/>
      <point x="714" y="516"/>
      <point x="618" y="560" type="curve"/>
      <point x="543" y="594"/>
      <point x="484" y="619"/>
    </contour>
  </outline>
</glyph>
<glyph name="exclamdown" format="1">
  <advance width="446"/>
  <unicode hex="00A1"/>
  <outline>
    <contour>
      <point x="376" y="1309" type="curve" smooth="yes"/>
      <point x="376" y="1226"/>
      <point x="310" y="1154"/>
      <point x="224" y="1154" type="curve" smooth="yes"/>
      <point x="136" y="1154"/>
      <point x="69" y="1226"/>
      <point x="69" y="1309" type="curve" smooth="yes"/>
      <point x="69" y="1391"/>
      <point x="136" y="1461"/>
      <point x="224" y="1461" type="curve" smooth="yes"/>
      <point x="310" y="1461"/>
      <point x="376" y="1391"/>
    </contour>
    <contour>
      <point x="108" y="-15" type="line"/>
      <point x="108" y="206" type="line"/>
      <point x="177" y="994" type="line"/>
      <point x="284" y="994" type="line"/>
      <point x="349" y="206" type="line"/>
      <point x="349" y="-15" type="line"/>
    </contour>
  </outline>
</glyph>
<glyph name="cent" format="1">
  <advance width="1082"/>
  <unicode hex="00A2"/>
  <outline>
    <contour>
      <point x="573" y="1402" type="line"/>
      <point x="674" y="1402" type="line"/>
      <point x="674" y="1181" type="line"/>
      <point x="784" y="1172"/>
      <point x="866" y="1142"/>
      <point x="934" y="1090" type="curve"/>
      <point x="889" y="916" type="line"/>
      <point x="842" y="948"/>
      <point x="756" y="984"/>
      <point x="674" y="992" type="curve"/>
      <point x="674" y="242" type="line"/>
      <point x="762" y="249"/>
      <point x="838" y="285"/>
      <point x="892" y="323" type="curve"/>
      <point x="944" y="148" type="line"/>
      <point x="866" y="93"/>
      <point x="781" y="61"/>
      <point x="674" y="54" type="curve"/>
      <point x="674" y="-202" type="line"/>
      <point x="573" y="-202" type="line"/>
      <point x="573" y="54" type="line"/>
      <point x="280" y="76"/>
      <point x="82" y="283"/>
      <point x="82" y="636" type="curve" smooth="yes"/>
      <point x="83" y="979"/>
      <point x="305" y="1167"/>
      <point x="573" y="1183" type="curve"/>
    </contour>
    <contour>
      <point x="573" y="247" type="curve"/>
      <point x="573" y="989" type="line"/>
      <point x="433" y="964"/>
      <point x="329" y="849"/>
      <point x="329" y="627" type="curve" smooth="yes"/>
      <point x="329" y="400"/>
      <point x="424" y="275"/>
    </contour>
  </outline>
</glyph>
<glyph name="sterling" format="1">
  <advance width="1149"/>
  <unicode hex="00A3"/>
  <outline>
    <contour>
      <point x="703" y="1486" type="curve" smooth="yes"/>
      <point x="861" y="1486"/>
      <point x="988" y="1431"/>
      <point x="1088" y="1347" type="curve"/>
      <point x="985" y="1178" type="line"/>
      <point x="897" y="1237"/>
      <point x="815" y="1278"/>
      <point x="713" y="1278" type="curve" smooth="yes"/>
      <point x="561" y="1278"/>
      <point x="501" y="1179"/>
      <point x="501" y="1017" type="curve" smooth="yes"/>
      <point x="501" y="838" type="line"/>
      <point x="892" y="838" type="line"/>
      <point x="892" y="659" type="line"/>
      <point x="501" y="659" type="line"/>
      <point x="501" y="508" type="line" smooth="yes"/>
      <point x="501" y="382"/>
      <point x="471" y="283"/>
      <point x="389" y="213" type="curve"/>
      <point x="397" y="214"/>
      <point x="486" y="214"/>
      <point x="494" y="214" type="curve"/>
      <point x="1105" y="214" type="line"/>
      <point x="1097" y="0" type="line"/>
      <point x="85" y="0" type="line"/>
      <point x="69" y="190" type="line"/>
      <point x="202" y="246"/>
      <point x="252" y="313"/>
      <point x="252" y="469" type="curve" smooth="yes"/>
      <point x="252" y="658" type="line"/>
      <point x="66" y="658" type="line"/>
      <point x="66" y="838" type="line"/>
      <point x="252" y="838" type="line"/>
      <point x="252" y="943" type="line" smooth="yes"/>
      <point x="252" y="1261"/>
      <point x="374" y="1486"/>
    </contour>
  </outline>
</glyph>
<glyph name="currency" format="1">
  <advance width="1162"/>
  <unicode hex="00A4"/>
  <outline>
    <contour>
      <point x="299" y="732" type="curve" smooth="yes"/>
      <point x="299" y="579"/>
      <point x="425" y="455"/>
      <point x="581" y="455" type="curve" smooth="yes"/>
      <point x="738" y="455"/>
      <point x="864" y="579"/>
      <point x="864" y="732" type="curve" smooth="yes"/>
      <point x="864" y="885"/>
      <point x="737" y="1010"/>
      <point x="581" y="1010" type="curve" smooth="yes"/>
      <point x="426" y="1010"/>
      <point x="299" y="884"/>
    </contour>
    <contour>
      <point x="161" y="732" type="curve" smooth="yes"/>
      <point x="161" y="818"/>
      <point x="188" y="899"/>
      <point x="236" y="969" type="curve"/>
      <point x="51" y="1143" type="line"/>
      <point x="146" y="1236" type="line"/>
      <point x="329" y="1063" type="line"/>
      <point x="400" y="1118"/>
      <point x="487" y="1148"/>
      <point x="581" y="1148" type="curve" smooth="yes"/>
      <point x="677" y="1148"/>
      <point x="763" y="1117"/>
      <point x="834" y="1061" type="curve"/>
      <point x="1020" y="1236" type="line"/>
      <point x="1111" y="1142" type="line"/>
      <point x="927" y="969" type="line"/>
      <point x="975" y="900"/>
      <point x="1002" y="819"/>
      <point x="1002" y="732" type="curve" smooth="yes"/>
      <point x="1002" y="644"/>
      <point x="976" y="564"/>
      <point x="928" y="495" type="curve"/>
      <point x="1109" y="323" type="line"/>
      <point x="1020" y="229" type="line"/>
      <point x="834" y="402" type="line"/>
      <point x="762" y="347"/>
      <point x="676" y="317"/>
      <point x="581" y="317" type="curve" smooth="yes"/>
      <point x="483" y="317"/>
      <point x="396" y="347"/>
      <point x="327" y="401" type="curve"/>
      <point x="146" y="230" type="line"/>
      <point x="52" y="322" type="line"/>
      <point x="236" y="495" type="line"/>
      <point x="188" y="564"/>
      <point x="161" y="645"/>
    </contour>
  </outline>
</glyph>
<glyph name="brokenbar" format="1">
  <advance width="817"/>
  <unicode hex="00A6"/>
  <outline>
    <contour>
      <point x="306" y="340" type="line"/>
      <point x="509" y="340" type="line"/>
      <point x="509" y="-379" type="line"/>
      <point x="306" y="-379" type="line"/>
    </contour>
    <contour>
      <point x="306" y="1538" type="line"/>
      <point x="509" y="1538" type="line"/>
      <point x="509" y="819" type="line"/>
      <point x="306" y="819" type="line"/>
    </contour>
  </outline>
</glyph>
<glyph name="dieresis" format="1">
  <advance width="772"/>
  <unicode hex="00A8"/>
  <outline>
    <contour>
      <point x="386" y="1098" type="move" name="_top"/>
    </contour>
    <contour>
      <point x="695" y="1236" type="line"/>
      <point x="499" y="1236" type="line"/>
      <point x="499" y="1490" type="line"/>
      <point x="695" y="1490" type="line"/>
    </contour>
    <contour>
      <point x="273" y="1236" type="line"/>
      <point x="78" y="1236" type="line"/>
      <point x="78" y="1490" type="line"/>
      <point x="273" y="1490" type="line"/>
    </contour>
  </outline>
</glyph>
<glyph name="copyright" format="1">
  <advance width="1743"/>
  <unicode hex="00A9"/>
  <outline>
    <contour>
      <point x="1651" y="741" type="curve" smooth="yes"/>
      <point x="1651" y="293"/>
      <point x="1292" y="-22"/>
      <point x="869" y="-22" type="curve" smooth="yes"/>
      <point x="449" y="-22"/>
      <point x="91" y="293"/>
      <point x="91" y="741" type="curve" smooth="yes"/>
      <point x="91" y="1188"/>
      <point x="448" y="1505"/>
      <point x="868" y="1505" type="curve" smooth="yes"/>
      <point x="1291" y="1505"/>
      <point x="1651" y="1188"/>
    </contour>
    <contour>
      <point x="869" y="78" type="curve" smooth="yes"/>
      <point x="1256" y="78"/>
      <point x="1535" y="375"/>
      <point x="1535" y="740" type="curve" smooth="yes"/>
      <point x="1535" y="1106"/>
      <point x="1255" y="1404"/>
      <point x="868" y="1404" type="curve" smooth="yes"/>
      <point x="485" y="1404"/>
      <point x="207" y="1106"/>
      <point x="207" y="742" type="curve" smooth="yes"/>
      <point x="207" y="375"/>
      <point x="486" y="78"/>
    </contour>
    <contour>
      <point x="1119" y="449" type="curve"/>
      <point x="1163" y="335" type="line"/>
      <point x="1083" y="283"/>
      <point x="977" y="254"/>
      <point x="856" y="254" type="curve" smooth="yes"/>
      <point x="590" y="254"/>
      <point x="394" y="460"/>
      <point x="394" y="743" type="curve" smooth="yes"/>
      <point x="394" y="1019"/>
      <point x="581" y="1238"/>
      <point x="855" y="1238" type="curve" smooth="yes"/>
      <point x="976" y="1238"/>
      <point x="1080" y="1211"/>
      <point x="1162" y="1155" type="curve"/>
      <point x="1113" y="1047" type="line"/>
      <point x="1036" y="1093"/>
      <point x="936" y="1114"/>
      <point x="858" y="1114" type="curve" smooth="yes"/>
      <point x="650" y="1114"/>
      <point x="539" y="940"/>
      <point x="539" y="742" type="curve" smooth="yes"/>
      <point x="539" y="547"/>
      <point x="642" y="381"/>
      <point x="864" y="381" type="curve" smooth="yes"/>
      <point x="942" y="381"/>
      <point x="1043" y="405"/>
    </contour>
  </outline>
</glyph>
<glyph name="ordfeminine" format="1">
  <advance width="757"/>
  <unicode hex="00AA"/>
  <outline>
    <contour>
      <point x="299" y="750" type="curve" smooth="yes"/>
      <point x="178" y="750"/>
      <point x="75" y="823"/>
      <point x="75" y="963" type="curve" smooth="yes"/>
      <point x="75" y="1174"/>
      <point x="322" y="1190"/>
      <point x="505" y="1211" type="curve"/>
      <point x="505" y="1213"/>
      <point x="505" y="1242"/>
      <point x="505" y="1243" type="curve" smooth="yes"/>
      <point x="505" y="1346"/>
      <point x="467" y="1384"/>
      <point x="382" y="1384" type="curve" smooth="yes"/>
      <point x="317" y="1384"/>
      <point x="232" y="1366"/>
      <point x="133" y="1326" type="curve"/>
      <point x="90" y="1436" type="line"/>
      <point x="183" y="1486"/>
      <point x="294" y="1513"/>
      <point x="399" y="1513" type="curve" smooth="yes"/>
      <point x="546" y="1513"/>
      <point x="669" y="1451"/>
      <point x="669" y="1268" type="curve" smooth="yes"/>
      <point x="669" y="882" type="line"/>
      <point x="669" y="879"/>
      <point x="669" y="786"/>
      <point x="670" y="764" type="curve"/>
      <point x="535" y="764" type="line"/>
      <point x="517" y="849" type="line"/>
      <point x="474" y="790"/>
      <point x="380" y="750"/>
    </contour>
    <contour>
      <point x="317" y="878" type="curve" smooth="yes"/>
      <point x="385" y="878"/>
      <point x="456" y="921"/>
      <point x="505" y="995" type="curve"/>
      <point x="505" y="1106" type="line"/>
      <point x="341" y="1084"/>
      <point x="231" y="1065"/>
      <point x="231" y="968" type="curve" smooth="yes"/>
      <point x="231" y="908"/>
      <point x="269" y="878"/>
    </contour>
    <contour>
      <point x="112" y="656" type="line"/>
      <point x="673" y="656" type="line"/>
      <point x="673" y="536" type="line"/>
      <point x="112" y="536" type="line"/>
    </contour>
  </outline>
</glyph>
<glyph name="logicalnot" format="1">
  <advance width="1287"/>
  <unicode hex="00AC"/>
  <outline>
    <contour>
      <point x="1152" y="834" type="line"/>
      <point x="1152" y="247" type="line"/>
      <point x="960" y="247" type="line"/>
      <point x="960" y="641" type="line"/>
      <point x="132" y="641" type="line"/>
      <point x="132" y="834" type="line"/>
    </contour>
  </outline>
</glyph>
<glyph name="uni00AD" format="1">
  <advance width="745"/>
  <unicode hex="00AD"/>
  <outline>
    <contour>
      <point x="76" y="380" type="line"/>
      <point x="76" y="584" type="line"/>
      <point x="670" y="584" type="line"/>
      <point x="670" y="380" type="line"/>
    </contour>
  </outline>
</glyph>
<glyph name="registered" format="1">
  <advance width="1735"/>
  <unicode hex="00AE"/>
  <outline>
    <contour>
      <point x="1647" y="741" type="curve" smooth="yes"/>
      <point x="1647" y="293"/>
      <point x="1290" y="-22"/>
      <point x="867" y="-22" type="curve" smooth="yes"/>
      <point x="448" y="-22"/>
      <point x="91" y="293"/>
      <point x="91" y="741" type="curve" smooth="yes"/>
      <point x="91" y="1188"/>
      <point x="447" y="1505"/>
      <point x="866" y="1505" type="curve" smooth="yes"/>
      <point x="1289" y="1505"/>
      <point x="1647" y="1188"/>
    </contour>
    <contour>
      <point x="867" y="78" type="curve" smooth="yes"/>
      <point x="1254" y="78"/>
      <point x="1531" y="375"/>
      <point x="1531" y="740" type="curve" smooth="yes"/>
      <point x="1531" y="1106"/>
      <point x="1253" y="1404"/>
      <point x="866" y="1404" type="curve" smooth="yes"/>
      <point x="485" y="1404"/>
      <point x="207" y="1106"/>
      <point x="207" y="742" type="curve" smooth="yes"/>
      <point x="207" y="375"/>
      <point x="485" y="78"/>
    </contour>
    <contour>
      <point x="825" y="813" type="line"/>
      <point x="975" y="813"/>
      <point x="1066" y="833"/>
      <point x="1066" y="962" type="curve" smooth="yes"/>
      <point x="1066" y="1094"/>
      <point x="981" y="1099"/>
      <point x="816" y="1099" type="curve" smooth="yes"/>
      <point x="705" y="1099" type="line"/>
      <point x="705" y="813" type="line"/>
    </contour>
    <contour>
      <point x="858" y="687" type="curve" smooth="yes"/>
      <point x="706" y="687" type="line"/>
      <point x="706" y="271" type="line"/>
      <point x="558" y="271" type="line"/>
      <point x="558" y="1226" type="line"/>
      <point x="859" y="1226" type="line" smooth="yes"/>
      <point x="1076" y="1226"/>
      <point x="1216" y="1153"/>
      <point x="1216" y="964" type="curve" smooth="yes"/>
      <point x="1216" y="820"/>
      <point x="1159" y="739"/>
      <point x="1002" y="705" type="curve"/>
      <point x="1062" y="632"/>
      <point x="1167" y="433"/>
      <point x="1256" y="271" type="curve"/>
      <point x="1091" y="271" type="line"/>
      <point x="964" y="500" type="line"/>
      <point x="906" y="613"/>
      <point x="870" y="678"/>
    </contour>
  </outline>
</glyph>
<glyph name="macron" format="1">
  <advance width="912"/>
  <unicode hex="00AF"/>
  <outline>
    <contour>
      <point x="461" y="1098" type="move" name="_top"/>
    </contour>
    <contour>
      <point x="816" y="1530" type="line"/>
      <point x="816" y="1373" type="line"/>
      <point x="107" y="1373" type="line"/>
      <point x="107" y="1530" type="line"/>
    </contour>
  </outline>
</glyph>
<glyph name="degree" format="1">
  <advance width="850"/>
  <unicode hex="00B0"/>
  <outline>
    <contour>
      <point x="270" y="1164" type="curve" smooth="yes"/>
      <point x="270" y="1088"/>
      <point x="327" y="1018"/>
      <point x="427" y="1018" type="curve" smooth="yes"/>
      <point x="525" y="1018"/>
      <point x="583" y="1089"/>
      <point x="583" y="1164" type="curve" smooth="yes"/>
      <point x="583" y="1241"/>
      <point x="510" y="1307"/>
      <point x="427" y="1307" type="curve" smooth="yes"/>
      <point x="345" y="1307"/>
      <point x="270" y="1241"/>
    </contour>
    <contour>
      <point x="111" y="1167" type="curve" smooth="yes"/>
      <point x="111" y="1319"/>
      <point x="227" y="1454"/>
      <point x="427" y="1454" type="curve" smooth="yes"/>
      <point x="625" y="1454"/>
      <point x="742" y="1319"/>
      <point x="742" y="1167" type="curve" smooth="yes"/>
      <point x="742" y="1017"/>
      <point x="628" y="870"/>
      <point x="427" y="870" type="curve" smooth="yes"/>
      <point x="224" y="870"/>
      <point x="111" y="1015"/>
    </contour>
  </outline>
</glyph>
<glyph name="plusminus" format="1">
  <advance width="1288"/>
  <unicode hex="00B1"/>
  <outline>
    <contour>
      <point x="168" y="0" type="line"/>
      <point x="168" y="177" type="line"/>
      <point x="1126" y="177" type="line"/>
      <point x="1126" y="0" type="line"/>
    </contour>
    <contour>
      <point x="746" y="828" type="line"/>
      <point x="1127" y="828" type="line"/>
      <point x="1127" y="636" type="line"/>
      <point x="747" y="636" type="line"/>
      <point x="747" y="261" type="line"/>
      <point x="547" y="261" type="line"/>
      <point x="547" y="636" type="line"/>
      <point x="168" y="636" type="line"/>
      <point x="168" y="828" type="line"/>
      <point x="547" y="828" type="line"/>
      <point x="547" y="1195" type="line"/>
      <point x="746" y="1195" type="line"/>
    </contour>
  </outline>
</glyph>
<glyph name="acute" format="1">
  <advance width="619"/>
  <unicode hex="00B4"/>
  <outline>
    <contour>
      <point x="426" y="1098" type="move" name="_top"/>
    </contour>
    <contour>
      <point x="661" y="1578" type="line"/>
      <point x="346" y="1194" type="line"/>
      <point x="191" y="1194" type="line"/>
      <point x="362" y="1578" type="line"/>
    </contour>
  </outline>
</glyph>
<glyph name="paragraph" format="1">
  <advance width="1201"/>
  <unicode hex="00B6"/>
  <outline>
    <contour>
      <point x="419" y="-150" type="line"/>
      <point x="419" y="782" type="line"/>
      <point x="212" y="799"/>
      <point x="78" y="952"/>
      <point x="78" y="1144" type="curve" smooth="yes"/>
      <point x="78" y="1396"/>
      <point x="308" y="1486"/>
      <point x="607" y="1486" type="curve" smooth="yes"/>
      <point x="1026" y="1486" type="line"/>
      <point x="1026" y="1315" type="line"/>
      <point x="944" y="1315" type="line"/>
      <point x="944" y="-150" type="line"/>
      <point x="778" y="-150" type="line"/>
      <point x="778" y="1315" type="line"/>
      <point x="613" y="1315" type="line"/>
      <point x="613" y="-150" type="line"/>
    </contour>
  </outline>
</glyph>
<glyph name="periodcentered" format="1">
  <advance width="421"/>
  <unicode hex="00B7"/>
  <outline>
    <contour>
      <point x="332" y="739" type="line"/>
      <point x="332" y="487" type="line"/>
      <point x="90" y="487" type="line"/>
      <point x="90" y="739" type="line"/>
    </contour>
  </outline>
</glyph>
<glyph name="cedilla" format="1">
  <advance width="588"/>
  <unicode hex="00B8"/>
  <outline>
    <contour>
      <point x="271" y="-357" type="line"/>
      <point x="329" y="24" type="line"/>
      <point x="185" y="24" type="line"/>
      <point x="61" y="-357" type="line"/>
    </contour>
    <contour>
      <point x="216" y="0" type="move" name="_bottom"/>
    </contour>
  </outline>
</glyph>
<glyph name="uni00B9" format="1">
  <advance width="743"/>
  <unicode hex="00B9"/>
  <outline>
    <contour>
      <point x="132" y="1228" type="curve"/>
      <point x="132" y="1376" type="line"/>
      <point x="147" y="1384"/>
      <point x="330" y="1474"/>
      <point x="340" y="1484" type="curve"/>
      <point x="484" y="1484" type="line"/>
      <point x="484" y="749" type="line"/>
      <point x="624" y="749" type="line"/>
      <point x="624" y="600" type="line"/>
      <point x="151" y="600" type="line"/>
      <point x="151" y="749" type="line"/>
      <point x="293" y="749" type="line"/>
      <point x="293" y="1304" type="line"/>
      <point x="283" y="1298"/>
      <point x="143" y="1234"/>
    </contour>
  </outline>
</glyph>
<glyph name="guillemotright" format="1">
  <advance width="1168"/>
  <unicode hex="00BB"/>
  <outline>
    <contour>
      <point x="640" y="565" type="line"/>
      <point x="314" y="136" type="line"/>
      <point x="113" y="190" type="line"/>
      <point x="387" y="562" type="line"/>
      <point x="116" y="934" type="line"/>
      <point x="316" y="987" type="line"/>
    </contour>
    <contour>
      <point x="1071" y="565" type="line"/>
      <point x="749" y="136" type="line"/>
      <point x="545" y="190" type="line"/>
      <point x="822" y="562" type="line"/>
      <point x="550" y="934" type="line"/>
      <point x="753" y="987" type="line"/>
    </contour>
  </outline>
</glyph>
<glyph name="onequarter" format="1">
  <advance width="1731"/>
  <unicode hex="00BC"/>
  <outline>
    <contour>
      <point x="85" y="1228" type="curve"/>
      <point x="85" y="1376" type="line"/>
      <point x="100" y="1384"/>
      <point x="284" y="1474"/>
      <point x="294" y="1484" type="curve"/>
      <point x="437" y="1484" type="line"/>
      <point x="437" y="749" type="line"/>
      <point x="578" y="749" type="line"/>
      <point x="578" y="600" type="line"/>
      <point x="104" y="600" type="line"/>
      <point x="104" y="749" type="line"/>
      <point x="246" y="749" type="line"/>
      <point x="246" y="1304" type="line"/>
      <point x="237" y="1298"/>
      <point x="96" y="1234"/>
    </contour>
    <contour>
      <point x="1545" y="10" type="line"/>
      <point x="1388" y="10" type="line"/>
      <point x="1388" y="182" type="line"/>
      <point x="985" y="182" type="line"/>
      <point x="985" y="324" type="line"/>
      <point x="1372" y="865" type="line"/>
      <point x="1547" y="865" type="line"/>
      <point x="1547" y="317" type="line"/>
      <point x="1662" y="317" type="line"/>
      <point x="1664" y="182" type="line"/>
      <point x="1546" y="182" type="line"/>
    </contour>
    <contour>
      <point x="1327" y="1471" type="line"/>
      <point x="1521" y="1471" type="line"/>
      <point x="506" y="0" type="line"/>
      <point x="305" y="0" type="line"/>
    </contour>
    <contour>
      <point x="1176" y="317" type="line"/>
      <point x="1386" y="317" type="line"/>
      <point x="1386" y="317"/>
      <point x="1386" y="638"/>
      <point x="1387" y="645" type="curve"/>
    </contour>
  </outline>
</glyph>
<glyph name="onehalf" format="1">
  <advance width="1805"/>
  <unicode hex="00BD"/>
  <outline>
    <contour>
      <point x="106" y="1228" type="line"/>
      <point x="117" y="1234"/>
      <point x="257" y="1298"/>
      <point x="267" y="1304" type="curve"/>
      <point x="267" y="749" type="line"/>
      <point x="125" y="749" type="line"/>
      <point x="125" y="600" type="line"/>
      <point x="599" y="600" type="line"/>
      <point x="599" y="749" type="line"/>
      <point x="458" y="749" type="line"/>
      <point x="458" y="1484" type="line"/>
      <point x="289" y="1443" type="line"/>
      <point x="279" y="1433"/>
      <point x="121" y="1384"/>
      <point x="106" y="1376" type="curve"/>
    </contour>
    <contour>
      <point x="1542" y="555" type="curve" smooth="yes"/>
      <point x="1542" y="411"/>
      <point x="1336" y="276"/>
      <point x="1137" y="107" type="curve"/>
      <point x="1136" y="-29" type="line"/>
      <point x="1693" y="-29" type="line"/>
      <point x="1709" y="105" type="line"/>
      <point x="1374" y="105" type="line"/>
      <point x="1567" y="265"/>
      <point x="1710" y="368"/>
      <point x="1710" y="561" type="curve" smooth="yes"/>
      <point x="1710" y="735"/>
      <point x="1572" y="835"/>
      <point x="1424" y="835" type="curve" smooth="yes"/>
      <point x="1295" y="835"/>
      <point x="1185" y="779"/>
      <point x="1126" y="690" type="curve"/>
      <point x="1126" y="690"/>
      <point x="1175" y="606"/>
      <point x="1192" y="573" type="curve"/>
      <point x="1242" y="639"/>
      <point x="1329" y="684"/>
      <point x="1402" y="684" type="curve" smooth="yes"/>
      <point x="1468" y="684"/>
      <point x="1542" y="639"/>
    </contour>
    <contour>
      <point x="1331" y="1471" type="line"/>
      <point x="310" y="0" type="line"/>
      <point x="510" y="0" type="line"/>
      <point x="1529" y="1471" type="line"/>
    </contour>
  </outline>
</glyph>
<glyph name="threequarters" format="1">
  <advance width="1683"/>
  <unicode hex="00BE"/>
  <outline>
    <contour>
      <point x="141" y="1270" type="curve"/>
      <point x="79" y="1377" type="line"/>
      <point x="147" y="1433"/>
      <point x="251" y="1469"/>
      <point x="351" y="1470" type="curve" smooth="yes"/>
      <point x="495" y="1472"/>
      <point x="634" y="1402"/>
      <point x="634" y="1243" type="curve" smooth="yes"/>
      <point x="634" y="1223"/>
      <point x="591" y="1117"/>
      <point x="510" y="1081" type="curve"/>
      <point x="588" y="1052"/>
      <point x="652" y="977"/>
      <point x="652" y="883" type="curve" smooth="yes"/>
      <point x="652" y="710"/>
      <point x="504" y="620"/>
      <point x="343" y="620" type="curve" smooth="yes"/>
      <point x="254" y="620"/>
      <point x="162" y="648"/>
      <point x="88" y="703" type="curve"/>
      <point x="136" y="824" type="line"/>
      <point x="184" y="783"/>
      <point x="270" y="761"/>
      <point x="335" y="761" type="curve" smooth="yes"/>
      <point x="423" y="761"/>
      <point x="482" y="802"/>
      <point x="482" y="889" type="curve" smooth="yes"/>
      <point x="482" y="971"/>
      <point x="415" y="1005"/>
      <point x="301" y="1005" type="curve"/>
      <point x="224" y="1004" type="line"/>
      <point x="224" y="1139" type="line"/>
      <point x="302" y="1139" type="line" smooth="yes"/>
      <point x="415" y="1139"/>
      <point x="458" y="1179"/>
      <point x="458" y="1238" type="curve" smooth="yes"/>
      <point x="458" y="1293"/>
      <point x="420" y="1329"/>
      <point x="341" y="1329" type="curve" smooth="yes"/>
      <point x="268" y="1329"/>
      <point x="183" y="1301"/>
    </contour>
    <contour>
      <point x="1496" y="11" type="line"/>
      <point x="1339" y="11" type="line"/>
      <point x="1339" y="190" type="line"/>
      <point x="934" y="190" type="line"/>
      <point x="934" y="332" type="line"/>
      <point x="1322" y="889" type="line"/>
      <point x="1498" y="889" type="line"/>
      <point x="1498" y="325" type="line"/>
      <point x="1612" y="325" type="line"/>
      <point x="1614" y="190" type="line"/>
      <point x="1497" y="190" type="line"/>
    </contour>
    <contour>
      <point x="1299" y="1471" type="line"/>
      <point x="1495" y="1471" type="line"/>
      <point x="482" y="0" type="line"/>
      <point x="279" y="0" type="line"/>
    </contour>
    <contour>
      <point x="1126" y="325" type="line"/>
      <point x="1336" y="325" type="line"/>
      <point x="1336" y="387"/>
      <point x="1336" y="650"/>
      <point x="1337" y="665" type="curve"/>
    </contour>
  </outline>
</glyph>
<glyph name="AE" format="1">
  <advance width="2021"/>
  <unicode hex="00C6"/>
  <outline>
    <contour>
      <point x="38" y="0" type="line"/>
      <point x="340" y="0" type="line"/>
      <point x="545" y="375" type="line"/>
      <point x="1069" y="375" type="line"/>
      <point x="1099" y="0" type="line"/>
      <point x="1912" y="0" type="line"/>
      <point x="1925" y="196" type="line"/>
      <point x="1361" y="196" type="line"/>
      <point x="1322" y="655" type="line"/>
      <point x="1851" y="655" type="line"/>
      <point x="1851" y="850" type="line"/>
      <point x="1302" y="850" type="line"/>
      <point x="1269" y="1285" type="line"/>
      <point x="1875" y="1285" type="line"/>
      <point x="1891" y="1481" type="line"/>
      <point x="882" y="1481" type="line"/>
    </contour>
    <contour>
      <point x="638" y="572" type="line"/>
      <point x="1003" y="1235" type="line"/>
      <point x="1053" y="572" type="line"/>
    </contour>
    <contour>
      <point x="1011" y="1453" type="move" name="top"/>
    </contour>
  </outline>
</glyph>
<glyph name="Eth" format="1">
  <advance width="1524"/>
  <unicode hex="00D0"/>
  <outline>
    <contour>
      <point x="6" y="650" type="line"/>
      <point x="6" y="829" type="line"/>
      <point x="130" y="829" type="line"/>
      <point x="130" y="1463" type="line"/>
      <point x="522" y="1463" type="line" smooth="yes"/>
      <point x="1066" y="1463"/>
      <point x="1441" y="1271"/>
      <point x="1441" y="729" type="curve" smooth="yes"/>
      <point x="1441" y="251"/>
      <point x="1106" y="1"/>
      <point x="616" y="1" type="curve" smooth="yes"/>
      <point x="130" y="1" type="line"/>
      <point x="130" y="650" type="line"/>
    </contour>
    <contour>
      <point x="398" y="829" type="line"/>
      <point x="597" y="829" type="line"/>
      <point x="597" y="650" type="line"/>
      <point x="398" y="650" type="line"/>
      <point x="398" y="206" type="line"/>
      <point x="633" y="206" type="line" smooth="yes"/>
      <point x="976" y="206"/>
      <point x="1170" y="390"/>
      <point x="1170" y="725" type="curve" smooth="yes"/>
      <point x="1170" y="1128"/>
      <point x="951" y="1255"/>
      <point x="542" y="1255" type="curve" smooth="yes"/>
      <point x="398" y="1255" type="line"/>
    </contour>
  </outline>
</glyph>
<glyph name="multiply" format="1">
  <advance width="1395"/>
  <unicode hex="00D7"/>
  <outline>
    <contour>
      <point x="1149" y="718" type="line"/>
      <point x="901" y="477" type="line"/>
      <point x="974" y="405"/>
      <point x="981" y="412"/>
      <point x="1054" y="338" type="curve"/>
      <point x="877" y="147" type="line"/>
      <point x="618" y="387" type="line"/>
      <point x="456" y="253" type="line"/>
      <point x="278" y="447" type="line"/>
      <point x="524" y="689" type="line"/>
      <point x="373" y="827" type="line"/>
      <point x="549" y="1019" type="line"/>
      <point x="808" y="780" type="line"/>
      <point x="968" y="914" type="line"/>
    </contour>
  </outline>
</glyph>
<glyph name="Oslash" format="1">
  <advance width="1632"/>
  <unicode hex="00D8"/>
  <outline>
    <contour>
      <point x="816" y="1453" type="move" name="top"/>
    </contour>
    <contour>
      <point x="818" y="1284" type="curve" smooth="yes"/>
      <point x="508" y="1284"/>
      <point x="354" y="1053"/>
      <point x="354" y="738" type="curve" smooth="yes"/>
      <point x="354" y="526"/>
      <point x="423" y="357"/>
      <point x="560" y="267" type="curve"/>
      <point x="989" y="1257" type="line"/>
      <point x="939" y="1275"/>
      <point x="882" y="1284"/>
    </contour>
    <contour>
      <point x="1171" y="1673" type="line"/>
      <point x="1277" y="1631" type="line"/>
      <point x="1186" y="1423" type="line"/>
      <point x="1414" y="1305"/>
      <point x="1554" y="1068"/>
      <point x="1554" y="740" type="curve" smooth="yes"/>
      <point x="1554" y="270"/>
      <point x="1253" y="-21"/>
      <point x="815" y="-21" type="curve" smooth="yes"/>
      <point x="727" y="-21"/>
      <point x="644" y="-10"/>
      <point x="568" y="13" type="curve"/>
      <point x="475" y="-198" type="line"/>
      <point x="374" y="-156" type="line"/>
      <point x="466" y="52" type="line"/>
      <point x="228" y="167"/>
      <point x="80" y="409"/>
      <point x="80" y="740" type="curve" smooth="yes"/>
      <point x="80" y="1219"/>
      <point x="386" y="1505"/>
      <point x="819" y="1505" type="curve" smooth="yes"/>
      <point x="913" y="1505"/>
      <point x="1000" y="1492"/>
      <point x="1081" y="1466" type="curve"/>
    </contour>
    <contour>
      <point x="659" y="220" type="line"/>
      <point x="707" y="204"/>
      <point x="759" y="196"/>
      <point x="818" y="196" type="curve" smooth="yes"/>
      <point x="1129" y="196"/>
      <point x="1284" y="419"/>
      <point x="1284" y="738" type="curve" smooth="yes"/>
      <point x="1284" y="942"/>
      <point x="1219" y="1111"/>
      <point x="1089" y="1205" type="curve"/>
    </contour>
  </outline>
</glyph>
<glyph name="Thorn" format="1">
  <advance width="1327"/>
  <unicode hex="00DE"/>
  <outline>
    <contour>
      <point x="178" y="11" type="line"/>
      <point x="400" y="11" type="line"/>
      <point x="400" y="338" type="line"/>
      <point x="400" y="338"/>
      <point x="722" y="337"/>
      <point x="724" y="337" type="curve" smooth="yes"/>
      <point x="1040" y="337"/>
      <point x="1274" y="494"/>
      <point x="1274" y="785" type="curve" smooth="yes"/>
      <point x="1274" y="1108"/>
      <point x="1023" y="1229"/>
      <point x="687" y="1229" type="curve" smooth="yes"/>
      <point x="400" y="1229" type="line"/>
      <point x="400" y="1454" type="line"/>
      <point x="178" y="1454" type="line"/>
    </contour>
    <contour>
      <point x="401" y="534" type="line"/>
      <point x="400" y="1052" type="line"/>
      <point x="710" y="1052" type="line" smooth="yes"/>
      <point x="930" y="1052"/>
      <point x="1050" y="977"/>
      <point x="1050" y="793" type="curve" smooth="yes"/>
      <point x="1050" y="629"/>
      <point x="936" y="534"/>
      <point x="737" y="534" type="curve" smooth="yes"/>
    </contour>
  </outline>
</glyph>
<glyph name="ae" format="1">
  <advance width="1679"/>
  <unicode hex="00E6"/>
  <outline>
    <contour>
      <point x="839" y="1098" type="move" name="top"/>
    </contour>
    <contour>
      <point x="411" y="-22" type="curve" smooth="yes"/>
      <point x="604" y="-22"/>
      <point x="744" y="53"/>
      <point x="837" y="138" type="curve"/>
      <point x="916" y="41"/>
      <point x="1030" y="-21"/>
      <point x="1216" y="-21" type="curve" smooth="yes"/>
      <point x="1397" y="-21"/>
      <point x="1504" y="24"/>
      <point x="1591" y="87" type="curve"/>
      <point x="1519" y="249" type="line"/>
      <point x="1468" y="210"/>
      <point x="1361" y="168"/>
      <point x="1232" y="168" type="curve"/>
      <point x="1047" y="169"/>
      <point x="950" y="288"/>
      <point x="941" y="500" type="curve"/>
      <point x="1039" y="507"/>
      <point x="1420" y="535"/>
      <point x="1456" y="537" type="curve"/>
      <point x="1557" y="540"/>
      <point x="1613" y="565"/>
      <point x="1613" y="625" type="curve" smooth="yes"/>
      <point x="1613" y="895"/>
      <point x="1500" y="1135"/>
      <point x="1209" y="1135" type="curve" smooth="yes"/>
      <point x="1050" y="1135"/>
      <point x="920" y="1059"/>
      <point x="848" y="959" type="curve"/>
      <point x="809" y="1075"/>
      <point x="686" y="1137"/>
      <point x="514" y="1135" type="curve"/>
      <point x="342" y="1131"/>
      <point x="229" y="1097"/>
      <point x="134" y="1052" type="curve"/>
      <point x="183" y="872" type="line"/>
      <point x="240" y="896"/>
      <point x="378" y="949"/>
      <point x="507" y="949" type="curve"/>
      <point x="654" y="944"/>
      <point x="693" y="878"/>
      <point x="693" y="747" type="curve" smooth="yes"/>
      <point x="693" y="630" type="line"/>
      <point x="608" y="623" type="line"/>
      <point x="279" y="587"/>
      <point x="72" y="559"/>
      <point x="72" y="317" type="curve" smooth="yes"/>
      <point x="72" y="125"/>
      <point x="203" y="-22"/>
    </contour>
    <contour>
      <point x="449" y="150" type="curve" smooth="yes"/>
      <point x="356" y="150"/>
      <point x="306" y="205"/>
      <point x="306" y="305" type="curve" smooth="yes"/>
      <point x="306" y="414"/>
      <point x="408" y="440"/>
      <point x="606" y="463" type="curve" smooth="yes"/>
      <point x="611" y="464"/>
      <point x="692" y="475"/>
      <point x="697" y="475" type="curve"/>
      <point x="699" y="397"/>
      <point x="733" y="295"/>
      <point x="744" y="273" type="curve"/>
      <point x="658" y="207"/>
      <point x="553" y="150"/>
    </contour>
    <contour>
      <point x="944" y="644" type="line"/>
      <point x="960" y="874"/>
      <point x="1089" y="944"/>
      <point x="1207" y="944" type="curve" smooth="yes"/>
      <point x="1351" y="944"/>
      <point x="1381" y="820"/>
      <point x="1381" y="714" type="curve" smooth="yes"/>
      <point x="1381" y="697"/>
      <point x="1380" y="683"/>
      <point x="1380" y="683" type="curve"/>
    </contour>
  </outline>
</glyph>
<glyph name="eth" format="1">
  <advance width="1226"/>
  <unicode hex="00F0"/>
  <outline>
    <contour>
      <point x="626" y="774" type="curve" smooth="yes"/>
      <point x="432" y="774"/>
      <point x="323" y="656"/>
      <point x="323" y="477" type="curve" smooth="yes"/>
      <point x="323" y="304"/>
      <point x="439" y="178"/>
      <point x="632" y="178" type="curve" smooth="yes"/>
      <point x="823" y="178"/>
      <point x="934" y="296"/>
      <point x="934" y="472" type="curve" smooth="yes"/>
      <point x="934" y="648"/>
      <point x="822" y="774"/>
    </contour>
    <contour>
      <point x="577" y="929" type="curve" smooth="yes"/>
      <point x="636" y="929"/>
      <point x="731" y="904"/>
      <point x="745" y="894" type="curve"/>
      <point x="733" y="915"/>
      <point x="575" y="1094"/>
      <point x="536" y="1135" type="curve"/>
      <point x="286" y="1034" type="line"/>
      <point x="226" y="1203" type="line"/>
      <point x="409" y="1278" type="line"/>
      <point x="205" y="1505" type="line"/>
      <point x="504" y="1505" type="line"/>
      <point x="623" y="1366" type="line"/>
      <point x="895" y="1474" type="line"/>
      <point x="958" y="1306" type="line"/>
      <point x="747" y="1222" type="line"/>
      <point x="868" y="1088"/>
      <point x="974" y="969"/>
      <point x="1057" y="834" type="curve" smooth="yes"/>
      <point x="1120" y="729"/>
      <point x="1161" y="603"/>
      <point x="1163" y="457" type="curve"/>
      <point x="1163" y="158"/>
      <point x="957" y="-20"/>
      <point x="626" y="-20" type="curve" smooth="yes"/>
      <point x="301" y="-20"/>
      <point x="84" y="178"/>
      <point x="84" y="466" type="curve" smooth="yes"/>
      <point x="84" y="745"/>
      <point x="277" y="929"/>
    </contour>
  </outline>
</glyph>
<glyph name="divide" format="1">
  <advance width="1456"/>
  <unicode hex="00F7"/>
  <outline>
    <contour>
      <point x="1274" y="489" type="line"/>
      <point x="178" y="489" type="line"/>
      <point x="178" y="676" type="line"/>
      <point x="1274" y="676" type="line"/>
    </contour>
    <contour>
      <point x="874" y="1134" type="line"/>
      <point x="874" y="874" type="line"/>
      <point x="590" y="874" type="line"/>
      <point x="590" y="1134" type="line"/>
    </contour>
    <contour>
      <point x="865" y="281" type="line"/>
      <point x="865" y="21" type="line"/>
      <point x="590" y="21" type="line"/>
      <point x="590" y="281" type="line"/>
    </contour>
  </outline>
</glyph>
<glyph name="thorn" format="1">
  <advance width="1288"/>
  <unicode hex="00FE"/>
  <outline>
    <contour>
      <point x="385" y="118" type="curve"/>
      <point x="385" y="-431" type="line"/>
      <point x="160" y="-431" type="line"/>
      <point x="160" y="1205" type="line" smooth="yes"/>
      <point x="160" y="1270"/>
      <point x="155" y="1498"/>
      <point x="155" y="1498" type="curve"/>
      <point x="385" y="1498" type="line"/>
      <point x="385" y="938" type="line"/>
      <point x="407" y="970"/>
      <point x="527" y="1072"/>
      <point x="711" y="1072" type="curve" smooth="yes"/>
      <point x="1041" y="1072"/>
      <point x="1206" y="826"/>
      <point x="1206" y="521" type="curve" smooth="yes"/>
      <point x="1206" y="230"/>
      <point x="1055" y="-19"/>
      <point x="726" y="-19" type="curve" smooth="yes"/>
      <point x="520" y="-19"/>
      <point x="404" y="86"/>
    </contour>
    <contour>
      <point x="694" y="176" type="curve" smooth="yes"/>
      <point x="900" y="176"/>
      <point x="975" y="344"/>
      <point x="975" y="531" type="curve" smooth="yes"/>
      <point x="975" y="717"/>
      <point x="900" y="885"/>
      <point x="696" y="885" type="curve" smooth="yes"/>
      <point x="479" y="885"/>
      <point x="384" y="734"/>
      <point x="384" y="531" type="curve" smooth="yes"/>
      <point x="384" y="326"/>
      <point x="474" y="176"/>
    </contour>
  </outline>
</glyph>
<glyph name="dcroat" format="1">
  <advance width="1235"/>
  <unicode hex="0111"/>
  <outline>
    <contour>
      <point x="596" y="173" type="curve" smooth="yes"/>
      <point x="754" y="173"/>
      <point x="877" y="279"/>
      <point x="877" y="554" type="curve" smooth="yes"/>
      <point x="877" y="826"/>
      <point x="752" y="941"/>
      <point x="596" y="941" type="curve" smooth="yes"/>
      <point x="444" y="941"/>
      <point x="313" y="829"/>
      <point x="313" y="555" type="curve" smooth="yes"/>
      <point x="313" y="288"/>
      <point x="441" y="173"/>
    </contour>
    <contour>
      <point x="554" y="-21" type="curve"/>
      <point x="247" y="-16"/>
      <point x="65" y="232"/>
      <point x="65" y="564" type="curve" smooth="yes"/>
      <point x="65" y="872"/>
      <point x="242" y="1135"/>
      <point x="550" y="1135" type="curve" smooth="yes"/>
      <point x="725" y="1135"/>
      <point x="830" y="1054"/>
      <point x="874" y="967" type="curve"/>
      <point x="874" y="1209" type="line"/>
      <point x="589" y="1209" type="line"/>
      <point x="589" y="1351" type="line"/>
      <point x="874" y="1351" type="line"/>
      <point x="874" y="1497" type="line"/>
      <point x="1129" y="1515" type="line"/>
      <point x="1129" y="1351" type="line"/>
      <point x="1235" y="1351" type="line"/>
      <point x="1235" y="1209" type="line"/>
      <point x="1129" y="1209" type="line"/>
      <point x="1129" y="0" type="line"/>
      <point x="883" y="0" type="line"/>
      <point x="874" y="155" type="line"/>
      <point x="818" y="55"/>
      <point x="713" y="-21"/>
    </contour>
  </outline>
</glyph>
<glyph name="Hbar" format="1">
  <advance width="1491"/>
  <unicode hex="0126"/>
  <outline>
    <contour>
      <point x="398" y="1178" type="line"/>
      <point x="398" y="853" type="line"/>
      <point x="1095" y="853" type="line"/>
      <point x="1095" y="1178" type="line"/>
    </contour>
    <contour>
      <point x="1095" y="658" type="line"/>
      <point x="398" y="658" type="line"/>
      <point x="398" y="0" type="line"/>
      <point x="130" y="0" type="line"/>
      <point x="130" y="1178" type="line"/>
      <point x="45" y="1178" type="line"/>
      <point x="45" y="1310" type="line"/>
      <point x="130" y="1310" type="line"/>
      <point x="130" y="1458" type="line"/>
      <point x="398" y="1458" type="line"/>
      <point x="398" y="1310" type="line"/>
      <point x="1095" y="1310" type="line"/>
      <point x="1095" y="1458" type="line"/>
      <point x="1363" y="1458" type="line"/>
      <point x="1363" y="1310" type="line"/>
      <point x="1449" y="1310" type="line"/>
      <point x="1449" y="1178" type="line"/>
      <point x="1363" y="1178" type="line"/>
      <point x="1363" y="0" type="line"/>
      <point x="1095" y="0" type="line"/>
    </contour>
  </outline>
</glyph>
<glyph name="hbar" format="1">
  <advance width="1189"/>
  <unicode hex="0127"/>
  <outline>
    <contour>
      <point x="361" y="0" type="line"/>
      <point x="106" y="0" type="line"/>
      <point x="106" y="1225" type="line"/>
      <point x="5" y="1225" type="line"/>
      <point x="5" y="1360" type="line"/>
      <point x="106" y="1360" type="line"/>
      <point x="106" y="1496" type="line"/>
      <point x="361" y="1515" type="line"/>
      <point x="361" y="1360" type="line"/>
      <point x="659" y="1360" type="line"/>
      <point x="659" y="1225" type="line"/>
      <point x="361" y="1225" type="line"/>
      <point x="361" y="973" type="line"/>
      <point x="452" y="1069"/>
      <point x="573" y="1119"/>
      <point x="721" y="1119" type="curve" smooth="yes"/>
      <point x="932" y="1119"/>
      <point x="1094" y="1001"/>
      <point x="1094" y="667" type="curve" smooth="yes"/>
      <point x="1094" y="0" type="line"/>
      <point x="840" y="0" type="line"/>
      <point x="840" y="654" type="line" smooth="yes"/>
      <point x="840" y="838"/>
      <point x="808" y="927"/>
      <point x="660" y="927" type="curve" smooth="yes"/>
      <point x="526" y="927"/>
      <point x="410" y="841"/>
      <point x="361" y="745" type="curve"/>
    </contour>
  </outline>
</glyph>
<glyph name="dotlessi" format="1">
  <advance width="548"/>
  <unicode hex="0131"/>
  <outline>
    <contour>
      <point x="274" y="1098" type="move" name="top"/>
    </contour>
    <contour>
      <point x="493" y="10" type="move" name="ogonek"/>
    </contour>
    <contour>
      <point x="384" y="1098" type="line"/>
      <point x="384" y="0" type="line"/>
      <point x="129" y="0" type="line"/>
      <point x="129" y="1098" type="line"/>
    </contour>
  </outline>
</glyph>
<glyph name="kgreenlandic" format="1">
  <advance width="1124"/>
  <unicode hex="0138"/>
  <outline>
    <contour>
      <point x="836" y="0" type="line"/>
      <point x="428" y="494" type="line"/>
      <point x="364" y="458" type="line"/>
      <point x="364" y="0" type="line"/>
      <point x="115" y="0" type="line"/>
      <point x="115" y="1100" type="line"/>
      <point x="364" y="1100" type="line"/>
      <point x="364" y="634" type="line"/>
      <point x="793" y="1100" type="line"/>
      <point x="1106" y="1100" type="line"/>
      <point x="647" y="596" type="line"/>
      <point x="696" y="550"/>
      <point x="1110" y="46"/>
      <point x="1151" y="0" type="curve"/>
    </contour>
  </outline>
</glyph>
<glyph name="ldot" format="1">
  <advance width="658"/>
  <unicode hex="0140"/>
  <outline>
    <contour>
      <point x="989" y="739" type="line"/>
      <point x="989" y="487" type="line"/>
      <point x="748" y="487" type="line"/>
      <point x="748" y="739" type="line"/>
    </contour>
    <component base="l"/>
  </outline>
</glyph>
<glyph name="Lslash" format="1">
  <advance width="1012"/>
  <unicode hex="0141"/>
  <outline>
    <contour>
      <point x="-20" y="500" type="line"/>
      <point x="-20" y="685" type="line"/>
      <point x="131" y="774" type="line"/>
      <point x="131" y="1463" type="line"/>
      <point x="399" y="1463" type="line"/>
      <point x="399" y="932" type="line"/>
      <point x="722" y="1116" type="line"/>
      <point x="722" y="930" type="line"/>
      <point x="399" y="746" type="line"/>
      <point x="399" y="202" type="line"/>
      <point x="1018" y="202" type="line"/>
      <point x="1003" y="0" type="line"/>
      <point x="131" y="0" type="line"/>
      <point x="131" y="589" type="line"/>
    </contour>
  </outline>
</glyph>
<glyph name="lslash" format="1">
  <advance width="679"/>
  <unicode hex="0142"/>
  <outline>
    <contour>
      <point x="555" y="1125" type="line"/>
      <point x="555" y="943" type="line"/>
      <point x="397" y="845" type="line"/>
      <point x="397" y="438" type="line" smooth="yes"/>
      <point x="397" y="242"/>
      <point x="405" y="181"/>
      <point x="562" y="181" type="curve" smooth="yes"/>
      <point x="574" y="181"/>
      <point x="653" y="187"/>
      <point x="665" y="188" type="curve"/>
      <point x="681" y="-1" type="line"/>
      <point x="668" y="-2"/>
      <point x="562" y="-15"/>
      <point x="516" y="-15" type="curve" smooth="yes"/>
      <point x="198" y="-15"/>
      <point x="142" y="135"/>
      <point x="142" y="459" type="curve" smooth="yes"/>
      <point x="142" y="692" type="line"/>
      <point x="30" y="625" type="line"/>
      <point x="30" y="808" type="line"/>
      <point x="142" y="875" type="line"/>
      <point x="142" y="1495" type="line"/>
      <point x="397" y="1515" type="line"/>
      <point x="397" y="1028" type="line"/>
    </contour>
  </outline>
</glyph>
<glyph name="Eng" format="1">
  <advance width="1419"/>
  <unicode hex="014A"/>
  <outline>
    <contour>
      <point x="822" y="-309" type="curve"/>
      <point x="1208" y="-309"/>
      <point x="1308" y="-174"/>
      <point x="1308" y="145" type="curve" smooth="yes"/>
      <point x="1308" y="957" type="line" smooth="yes"/>
      <point x="1308" y="1291"/>
      <point x="1167" y="1489"/>
      <point x="848" y="1489" type="curve" smooth="yes"/>
      <point x="681" y="1489"/>
      <point x="494" y="1409"/>
      <point x="390" y="1285" type="curve"/>
      <point x="363" y="1463" type="line"/>
      <point x="130" y="1463" type="line"/>
      <point x="131" y="0" type="line"/>
      <point x="399" y="0" type="line"/>
      <point x="399" y="1056" type="line"/>
      <point x="489" y="1212"/>
      <point x="678" y="1278"/>
      <point x="803" y="1278" type="curve" smooth="yes"/>
      <point x="979" y="1278"/>
      <point x="1041" y="1182"/>
      <point x="1041" y="944" type="curve" smooth="yes"/>
      <point x="1041" y="140" type="line" smooth="yes"/>
      <point x="1041" y="-46"/>
      <point x="1014" y="-110"/>
      <point x="826" y="-110" type="curve" smooth="yes"/>
      <point x="820" y="-110"/>
      <point x="751" y="-110"/>
      <point x="717" y="-108" type="curve"/>
      <point x="737" y="-306" type="line"/>
      <point x="768" y="-309"/>
      <point x="816" y="-309"/>
    </contour>
  </outline>
</glyph>
<glyph name="eng" format="1">
  <advance width="1188"/>
  <unicode hex="014B"/>
  <outline>
    <contour>
      <point x="628" y="-372" type="line"/>
      <point x="691" y="-372" type="line" smooth="yes"/>
      <point x="1047" y="-372"/>
      <point x="1095" y="-214"/>
      <point x="1095" y="108" type="curve" smooth="yes"/>
      <point x="1095" y="668" type="line" smooth="yes"/>
      <point x="1095" y="945"/>
      <point x="986" y="1131"/>
      <point x="728" y="1135" type="curve" smooth="yes"/>
      <point x="568" y="1137"/>
      <point x="427" y="1055"/>
      <point x="341" y="952" type="curve"/>
      <point x="320" y="1098" type="line"/>
      <point x="107" y="1098" type="line"/>
      <point x="107" y="5" type="line"/>
      <point x="362" y="5" type="line"/>
      <point x="362" y="753" type="line"/>
      <point x="405" y="844"/>
      <point x="524" y="942"/>
      <point x="651" y="942" type="curve" smooth="yes"/>
      <point x="830" y="942"/>
      <point x="841" y="808"/>
      <point x="841" y="622" type="curve" smooth="yes"/>
      <point x="841" y="45" type="line" smooth="yes"/>
      <point x="841" y="-136"/>
      <point x="818" y="-180"/>
      <point x="657" y="-180" type="curve" smooth="yes"/>
      <point x="601" y="-180" type="line"/>
    </contour>
  </outline>
</glyph>
<glyph name="OE" format="1">
  <advance width="2176"/>
  <unicode hex="0152"/>
  <outline>
    <contour>
      <point x="1088" y="1453" type="move" name="top"/>
    </contour>
    <contour>
      <point x="809" y="1489" type="curve" smooth="yes"/>
      <point x="953" y="1489"/>
      <point x="1074" y="1448"/>
      <point x="1168" y="1384" type="curve"/>
      <point x="1168" y="1461" type="line"/>
      <point x="2101" y="1461" type="line"/>
      <point x="2083" y="1256" type="line"/>
      <point x="1425" y="1256" type="line"/>
      <point x="1425" y="863" type="line"/>
      <point x="2052" y="863" type="line"/>
      <point x="2052" y="661" type="line"/>
      <point x="1425" y="661" type="line"/>
      <point x="1425" y="209" type="line"/>
      <point x="2130" y="209" type="line"/>
      <point x="2113" y="4" type="line"/>
      <point x="1168" y="4" type="line"/>
      <point x="1168" y="85" type="line"/>
      <point x="1082" y="25"/>
      <point x="951" y="-19"/>
      <point x="815" y="-19" type="curve" smooth="yes"/>
      <point x="382" y="-19"/>
      <point x="81" y="298"/>
      <point x="81" y="738" type="curve" smooth="yes"/>
      <point x="83" y="1173"/>
      <point x="393" y="1489"/>
    </contour>
    <contour>
      <point x="1168" y="1153" type="line"/>
      <point x="1093" y="1227"/>
      <point x="974" y="1283"/>
      <point x="810" y="1283" type="curve" smooth="yes"/>
      <point x="507" y="1283"/>
      <point x="345" y="1020"/>
      <point x="343" y="735" type="curve" smooth="yes"/>
      <point x="343" y="447"/>
      <point x="494" y="189"/>
      <point x="813" y="188" type="curve" smooth="yes"/>
      <point x="973" y="188"/>
      <point x="1100" y="243"/>
      <point x="1168" y="305" type="curve"/>
    </contour>
  </outline>
</glyph>
<glyph name="uni018F" format="1">
  <advance width="1454"/>
  <unicode hex="018F"/>
  <outline>
    <contour>
      <point x="1061" y="595" type="curve"/>
      <point x="316" y="595" type="line"/>
      <point x="333" y="364"/>
      <point x="436" y="191"/>
      <point x="663" y="191" type="curve" smooth="yes"/>
      <point x="893" y="191"/>
      <point x="1025" y="362"/>
    </contour>
    <contour>
      <point x="652" y="-21" type="curve" smooth="yes"/>
      <point x="292" y="-21"/>
      <point x="82" y="221"/>
      <point x="66" y="703" type="curve" smooth="yes"/>
      <point x="65" y="730"/>
      <point x="67" y="770"/>
      <point x="67" y="788" type="curve"/>
      <point x="1071" y="788" type="line"/>
      <point x="1053" y="1091"/>
      <point x="888" y="1275"/>
      <point x="594" y="1275" type="curve" smooth="yes"/>
      <point x="436" y="1275"/>
      <point x="308" y="1228"/>
      <point x="207" y="1169" type="curve"/>
      <point x="122" y="1349" type="line"/>
      <point x="250" y="1447"/>
      <point x="404" y="1490"/>
      <point x="605" y="1490" type="curve" smooth="yes"/>
      <point x="1081" y="1490"/>
      <point x="1347" y="1160"/>
      <point x="1347" y="739" type="curve" smooth="yes"/>
      <point x="1347" y="279"/>
      <point x="1058" y="-21"/>
    </contour>
  </outline>
</glyph>
<glyph name="florin" format="1">
  <advance width="1055"/>
  <unicode hex="0192"/>
  <outline>
    <contour>
      <point x="438" y="787" type="curve"/>
      <point x="281" y="787" type="line"/>
      <point x="295" y="968" type="line"/>
      <point x="473" y="968" type="line"/>
      <point x="492" y="1098" type="line" smooth="yes"/>
      <point x="520" y="1293"/>
      <point x="608" y="1467"/>
      <point x="851" y="1467" type="curve" smooth="yes"/>
      <point x="902" y="1467"/>
      <point x="1002" y="1445"/>
      <point x="1012" y="1442" type="curve"/>
      <point x="1001" y="1242" type="line"/>
      <point x="992" y="1246"/>
      <point x="909" y="1275"/>
      <point x="875" y="1275" type="curve" smooth="yes"/>
      <point x="777" y="1275"/>
      <point x="749" y="1229"/>
      <point x="731" y="1136" type="curve" smooth="yes"/>
      <point x="699" y="968" type="line"/>
      <point x="893" y="968" type="line"/>
      <point x="879" y="785" type="line"/>
      <point x="667" y="785" type="line"/>
      <point x="537" y="128" type="line" smooth="yes"/>
      <point x="494" y="-86"/>
      <point x="433" y="-336"/>
      <point x="157" y="-336" type="curve" smooth="yes"/>
      <point x="126" y="-336"/>
      <point x="42" y="-316"/>
      <point x="33" y="-313" type="curve"/>
      <point x="50" y="-124" type="line"/>
      <point x="57" y="-127"/>
      <point x="126" y="-150"/>
      <point x="145" y="-150" type="curve" smooth="yes"/>
      <point x="229" y="-150"/>
      <point x="260" y="-64"/>
      <point x="284" y="32" type="curve" smooth="yes"/>
      <point x="347" y="271"/>
      <point x="388" y="536"/>
    </contour>
  </outline>
</glyph>
<glyph name="uni0237" format="1">
  <advance width="527"/>
  <unicode hex="0237"/>
  <outline>
    <contour>
      <point x="263" y="1098" type="move" name="top"/>
    </contour>
    <contour>
      <point x="410" y="1089" type="line"/>
      <point x="410" y="98" type="line" smooth="yes"/>
      <point x="410" y="-216"/>
      <point x="336" y="-364"/>
      <point x="2" y="-364" type="curve" smooth="yes"/>
      <point x="-38" y="-364" type="line"/>
      <point x="-43" y="-166" type="line"/>
      <point x="-8" y="-166" type="line" smooth="yes"/>
      <point x="156" y="-166"/>
      <point x="173" y="-114"/>
      <point x="173" y="55" type="curve" smooth="yes"/>
      <point x="173" y="1089" type="line"/>
    </contour>
  </outline>
</glyph>
<glyph name="uni0259" format="1">
  <advance width="1115"/>
  <unicode hex="0259"/>
  <outline>
    <contour>
      <point x="497" y="1135" type="curve" smooth="yes"/>
      <point x="316" y="1135"/>
      <point x="189" y="1080"/>
      <point x="96" y="1008" type="curve"/>
      <point x="169" y="843" type="line"/>
      <point x="237" y="894"/>
      <point x="349" y="945"/>
      <point x="489" y="945" type="curve" smooth="yes"/>
      <point x="680" y="945"/>
      <point x="799" y="831"/>
      <point x="804" y="614" type="curve"/>
      <point x="71" y="614" type="line"/>
      <point x="71" y="588"/>
      <point x="69" y="551"/>
      <point x="69" y="527" type="curve" smooth="yes"/>
      <point x="69" y="226"/>
      <point x="222" y="-21"/>
      <point x="536" y="-21" type="curve" smooth="yes"/>
      <point x="788" y="-21"/>
      <point x="1056" y="232"/>
      <point x="1056" y="557" type="curve" smooth="yes"/>
      <point x="1056" y="911"/>
      <point x="856" y="1135"/>
    </contour>
    <contour>
      <point x="537" y="169" type="curve" smooth="yes"/>
      <point x="391" y="169"/>
      <point x="302" y="275"/>
      <point x="302" y="471" type="curve"/>
      <point x="800" y="471" type="line"/>
      <point x="784" y="247"/>
      <point x="649" y="169"/>
    </contour>
  </outline>
</glyph>
<glyph name="afii57929" format="1">
  <advance width="386"/>
  <unicode hex="02BC"/>
  <outline>
    <contour>
      <point x="109" y="978" type="line"/>
      <point x="104" y="1483" type="line"/>
      <point x="307" y="1483" type="line"/>
      <point x="251" y="978" type="line"/>
    </contour>
  </outline>
</glyph>
<glyph name="circumflex" format="1">
  <advance width="774"/>
  <unicode hex="02C6"/>
  <outline>
    <contour>
      <point x="401" y="1098" type="move" name="_top"/>
    </contour>
    <contour>
      <point x="46" y="1162" type="line"/>
      <point x="297" y="1546" type="line"/>
      <point x="505" y="1546" type="line"/>
      <point x="756" y="1162" type="line"/>
      <point x="572" y="1162" type="line"/>
      <point x="398" y="1381" type="line"/>
      <point x="225" y="1162" type="line"/>
    </contour>
  </outline>
</glyph>
<glyph name="caron" format="1">
  <advance width="772"/>
  <unicode hex="02C7"/>
  <outline>
    <contour>
      <point x="403" y="1098" type="move" name="_top"/>
    </contour>
    <contour>
      <point x="40" y="1546" type="line"/>
      <point x="238" y="1546" type="line"/>
      <point x="398" y="1350" type="line"/>
      <point x="563" y="1546" type="line"/>
      <point x="766" y="1546" type="line"/>
      <point x="504" y="1193" type="line"/>
      <point x="302" y="1193" type="line"/>
    </contour>
  </outline>
</glyph>
<glyph name="breve" format="1">
  <advance width="710"/>
  <unicode hex="02D8"/>
  <outline>
    <contour>
      <point x="352" y="1098" type="move" name="_top"/>
    </contour>
    <contour>
      <point x="351" y="1229" type="curve" smooth="yes"/>
      <point x="183" y="1229"/>
      <point x="61" y="1309"/>
      <point x="61" y="1480" type="curve"/>
      <point x="228" y="1480" type="line"/>
      <point x="228" y="1413"/>
      <point x="265" y="1384"/>
      <point x="351" y="1384" type="curve" smooth="yes"/>
      <point x="438" y="1384"/>
      <point x="475" y="1413"/>
      <point x="475" y="1480" type="curve"/>
      <point x="643" y="1480" type="line"/>
      <point x="643" y="1308"/>
      <point x="520" y="1229"/>
    </contour>
  </outline>
</glyph>
<glyph name="dotaccent" format="1">
  <advance width="539"/>
  <unicode hex="02D9"/>
  <outline>
    <contour>
      <point x="358" y="1465" type="line"/>
      <point x="358" y="1248" type="line"/>
      <point x="157" y="1248" type="line"/>
      <point x="157" y="1465" type="line"/>
    </contour>
    <contour>
      <point x="258" y="1098" type="move" name="_top"/>
    </contour>
  </outline>
</glyph>
<glyph name="ring" format="1">
  <advance width="662"/>
  <unicode hex="02DA"/>
  <outline>
    <contour>
      <point x="330" y="1098" type="move" name="_top"/>
    </contour>
    <contour>
      <point x="330" y="1250" type="curve" smooth="yes"/>
      <point x="398" y="1250"/>
      <point x="436" y="1304"/>
      <point x="436" y="1362" type="curve" smooth="yes"/>
      <point x="436" y="1418"/>
      <point x="398" y="1474"/>
      <point x="330" y="1474" type="curve" smooth="yes"/>
      <point x="263" y="1474"/>
      <point x="223" y="1418"/>
      <point x="223" y="1362" type="curve" smooth="yes"/>
      <point x="223" y="1303"/>
      <point x="260" y="1250"/>
    </contour>
    <contour>
      <point x="330" y="1565" type="curve" smooth="yes"/>
      <point x="471" y="1565"/>
      <point x="550" y="1468"/>
      <point x="550" y="1362" type="curve" smooth="yes"/>
      <point x="550" y="1255"/>
      <point x="468" y="1158"/>
      <point x="330" y="1158" type="curve" smooth="yes"/>
      <point x="191" y="1158"/>
      <point x="109" y="1255"/>
      <point x="109" y="1362" type="curve" smooth="yes"/>
      <point x="109" y="1469"/>
      <point x="190" y="1565"/>
    </contour>
  </outline>
</glyph>
<glyph name="ogonek" format="1">
  <advance width="576"/>
  <unicode hex="02DB"/>
  <outline>
    <contour>
      <point x="513" y="10" type="move" name="_ogonek"/>
    </contour>
    <contour>
      <point x="371" y="-252" type="curve" smooth="yes"/>
      <point x="432" y="-252"/>
      <point x="500" y="-220"/>
      <point x="513" y="-214" type="curve"/>
      <point x="513" y="-355" type="line"/>
      <point x="454" y="-378"/>
      <point x="385" y="-392"/>
      <point x="321" y="-392" type="curve" smooth="yes"/>
      <point x="208" y="-392"/>
      <point x="114" y="-337"/>
      <point x="114" y="-220" type="curve" smooth="yes"/>
      <point x="114" y="-90"/>
      <point x="224" y="-12"/>
      <point x="304" y="34" type="curve"/>
      <point x="412" y="34" type="line"/>
      <point x="327" y="-30"/>
      <point x="289" y="-102"/>
      <point x="289" y="-165" type="curve" smooth="yes"/>
      <point x="289" y="-207"/>
      <point x="319" y="-252"/>
    </contour>
  </outline>
</glyph>
<glyph name="tilde" format="1">
  <advance width="786"/>
  <unicode hex="02DC"/>
  <outline>
    <contour>
      <point x="389" y="1098" type="move" name="_top"/>
    </contour>
    <contour>
      <point x="190" y="1229" type="curve"/>
      <point x="46" y="1229" type="line"/>
      <point x="46" y="1333"/>
      <point x="62" y="1469"/>
      <point x="218" y="1469" type="curve" smooth="yes"/>
      <point x="351" y="1469"/>
      <point x="497" y="1384"/>
      <point x="539" y="1384" type="curve" smooth="yes"/>
      <point x="572" y="1385"/>
      <point x="585" y="1416"/>
      <point x="586" y="1469" type="curve"/>
      <point x="733" y="1469" type="line"/>
      <point x="733" y="1374"/>
      <point x="722" y="1229"/>
      <point x="566" y="1229" type="curve" smooth="yes"/>
      <point x="458" y="1229"/>
      <point x="264" y="1320"/>
      <point x="240" y="1320" type="curve" smooth="yes"/>
      <point x="206" y="1319"/>
      <point x="190" y="1290"/>
    </contour>
  </outline>
</glyph>
<glyph name="hungarumlaut" format="1">
  <advance width="982"/>
  <unicode hex="02DD"/>
  <outline>
    <contour>
      <point x="541" y="1098" type="move" name="_top"/>
    </contour>
    <contour>
      <point x="622" y="1516" type="line"/>
      <point x="284" y="1155" type="line"/>
      <point x="150" y="1155" type="line"/>
      <point x="396" y="1516" type="line"/>
    </contour>
    <contour>
      <point x="933" y="1516" type="line"/>
      <point x="595" y="1155" type="line"/>
      <point x="461" y="1155" type="line"/>
      <point x="708" y="1516" type="line"/>
    </contour>
  </outline>
</glyph>
<glyph name="uni0307" format="1">
  <advance width="515"/>
  <unicode hex="0307"/>
  <outline>
    <contour>
      <point x="199" y="1438" type="line"/>
      <point x="358" y="1389" type="line"/>
      <point x="316" y="1221" type="line"/>
      <point x="157" y="1271" type="line"/>
    </contour>
    <contour>
      <point x="259" y="1098" type="move" name="_top"/>
    </contour>
  </outline>
</glyph>
<glyph name="uni030F" format="1">
  <advance width="982"/>
  <unicode hex="030F"/>
  <outline>
    <contour>
      <point x="434" y="1098" type="move" name="_top"/>
    </contour>
    <contour>
      <point x="315" y="1197" type="line"/>
      <point x="1" y="1535" type="line"/>
      <point x="276" y="1535" type="line"/>
      <point x="487" y="1197" type="line"/>
    </contour>
    <contour>
      <point x="680" y="1197" type="line"/>
      <point x="383" y="1535" type="line"/>
      <point x="641" y="1535" type="line"/>
      <point x="868" y="1197" type="line"/>
    </contour>
  </outline>
</glyph>
<glyph name="uni0311" format="1">
  <advance width="713"/>
  <unicode hex="0311"/>
  <outline>
    <contour>
      <point x="353" y="1480" type="curve" smooth="yes"/>
      <point x="506" y="1480"/>
      <point x="644" y="1272"/>
      <point x="644" y="1229" type="curve"/>
      <point x="477" y="1229" type="line"/>
      <point x="477" y="1253"/>
      <point x="432" y="1325"/>
      <point x="353" y="1325" type="curve" smooth="yes"/>
      <point x="274" y="1325"/>
      <point x="230" y="1253"/>
      <point x="230" y="1229" type="curve"/>
      <point x="63" y="1229" type="line"/>
      <point x="63" y="1272"/>
      <point x="200" y="1480"/>
    </contour>
  </outline>
</glyph>
<glyph name="Delta" format="1">
  <advance width="1265"/>
  <unicode hex="0394"/>
  <outline>
    <contour>
      <point x="-10" y="0" type="line"/>
      <point x="539" y="1496" type="line"/>
      <point x="724" y="1496" type="line"/>
      <point x="1275" y="0" type="line"/>
    </contour>
    <contour>
      <point x="1038" y="155" type="line"/>
      <point x="632" y="1306" type="line"/>
      <point x="231" y="155" type="line"/>
    </contour>
  </outline>
</glyph>
<glyph name="Epsilon" format="1">
  <advance width="1148"/>
  <unicode hex="0395"/>
  <outline>
    <contour>
      <point x="574" y="1453" type="move" name="top"/>
    </contour>
    <component base="E"/>
  </outline>
</glyph>
<glyph name="omicron" format="1">
  <advance width="1222"/>
  <unicode hex="03BF"/>
  <outline>
    <contour>
      <point x="610" y="1098" type="move" name="top"/>
    </contour>
    <component base="o"/>
  </outline>
</glyph>
<glyph name="pi" format="1">
  <advance width="1421"/>
  <unicode hex="03C0"/>
  <outline>
    <contour>
      <point x="1321" y="1107" type="line"/>
      <point x="1321" y="926" type="line"/>
      <point x="1125" y="926" type="line"/>
      <point x="1125" y="321" type="line" smooth="yes"/>
      <point x="1125" y="240"/>
      <point x="1133" y="193"/>
      <point x="1196" y="193" type="curve" smooth="yes"/>
      <point x="1229" y="193"/>
      <point x="1268" y="206"/>
      <point x="1300" y="216" type="curve"/>
      <point x="1298" y="168"/>
      <point x="1286" y="7"/>
      <point x="1286" y="7" type="curve"/>
      <point x="1241" y="-1"/>
      <point x="1200" y="-7"/>
      <point x="1154" y="-7" type="curve" smooth="yes"/>
      <point x="961" y="-7"/>
      <point x="919" y="125"/>
      <point x="919" y="312" type="curve" smooth="yes"/>
      <point x="921" y="929" type="line"/>
      <point x="565" y="929" type="line"/>
      <point x="552" y="591"/>
      <point x="518" y="206"/>
      <point x="408" y="1" type="curve"/>
      <point x="194" y="1" type="line"/>
      <point x="300" y="217"/>
      <point x="343" y="856"/>
      <point x="345" y="934" type="curve"/>
      <point x="227" y="928"/>
      <point x="159" y="901"/>
      <point x="84" y="858" type="curve"/>
      <point x="58" y="1033" type="line"/>
      <point x="148" y="1099"/>
      <point x="252" y="1107"/>
      <point x="426" y="1107" type="curve" smooth="yes"/>
    </contour>
  </outline>
</glyph>
<glyph name="afii10053" format="1">
  <advance width="1396"/>
  <unicode hex="0404"/>
  <outline>
    <contour>
      <point x="364" y="647" type="line"/>
      <point x="400" y="359"/>
      <point x="584" y="188"/>
      <point x="835" y="188" type="curve" smooth="yes"/>
      <point x="962" y="188"/>
      <point x="1093" y="237"/>
      <point x="1201" y="309" type="curve"/>
      <point x="1284" y="115" type="line"/>
      <point x="1135" y="27"/>
      <point x="975" y="-19"/>
      <point x="814" y="-19" type="curve" smooth="yes"/>
      <point x="410" y="-19"/>
      <point x="100" y="288"/>
      <point x="100" y="739" type="curve" smooth="yes"/>
      <point x="100" y="1191"/>
      <point x="420" y="1490"/>
      <point x="821" y="1490" type="curve" smooth="yes"/>
      <point x="983" y="1490"/>
      <point x="1144" y="1445"/>
      <point x="1284" y="1352" type="curve"/>
      <point x="1202" y="1154" type="line"/>
      <point x="1092" y="1233"/>
      <point x="963" y="1283"/>
      <point x="835" y="1283" type="curve" smooth="yes"/>
      <point x="582" y="1283"/>
      <point x="412" y="1103"/>
      <point x="368" y="849" type="curve"/>
      <point x="1037" y="849" type="line"/>
      <point x="1037" y="647" type="line"/>
    </contour>
  </outline>
</glyph>
<glyph name="afii10058" format="1">
  <advance width="1877"/>
  <unicode hex="0409"/>
  <outline>
    <contour>
      <point x="1120" y="1454" type="line"/>
      <point x="1120" y="879" type="line"/>
      <point x="1298" y="879" type="line" smooth="yes"/>
      <point x="1621" y="879"/>
      <point x="1889" y="756"/>
      <point x="1889" y="439" type="curve" smooth="yes"/>
      <point x="1889" y="131"/>
      <point x="1639" y="5"/>
      <point x="1303" y="5" type="curve" smooth="yes"/>
      <point x="908" y="5" type="line"/>
      <point x="876" y="1252" type="line"/>
      <point x="566" y="1252" type="line"/>
      <point x="580" y="439" type="line"/>
      <point x="580" y="120"/>
      <point x="489" y="-20"/>
      <point x="116" y="-20" type="curve" smooth="yes"/>
      <point x="61" y="-20" type="line"/>
      <point x="61" y="172" type="line"/>
      <point x="136" y="173" type="line" smooth="yes"/>
      <point x="298" y="176"/>
      <point x="322" y="238"/>
      <point x="322" y="392" type="curve" smooth="yes"/>
      <point x="321" y="1454" type="line"/>
    </contour>
    <contour>
      <point x="1318" y="676" type="curve" smooth="yes"/>
      <point x="1140" y="676" type="line"/>
      <point x="1140" y="214" type="line"/>
      <point x="1318" y="214" type="line" smooth="yes"/>
      <point x="1525" y="214"/>
      <point x="1662" y="286"/>
      <point x="1662" y="445" type="curve" smooth="yes"/>
      <point x="1662" y="602"/>
      <point x="1523" y="676"/>
    </contour>
  </outline>
</glyph>
<glyph name="afii10018" format="1">
  <advance width="1301"/>
  <unicode hex="0411"/>
  <outline>
    <contour>
      <point x="130" y="1458" type="line"/>
      <point x="1120" y="1458" type="line"/>
      <point x="1120" y="1255" type="line"/>
      <point x="399" y="1255" type="line"/>
      <point x="398" y="866" type="line"/>
      <point x="694" y="866" type="line" smooth="yes"/>
      <point x="991" y="866"/>
      <point x="1228" y="744"/>
      <point x="1228" y="432" type="curve" smooth="yes"/>
      <point x="1228" y="125"/>
      <point x="981" y="0"/>
      <point x="668" y="0" type="curve" smooth="yes"/>
      <point x="130" y="0" type="line"/>
    </contour>
    <contour>
      <point x="965" y="433" type="curve" smooth="yes"/>
      <point x="965" y="590"/>
      <point x="856" y="664"/>
      <point x="682" y="664" type="curve" smooth="yes"/>
      <point x="398" y="664" type="line"/>
      <point x="398" y="202" type="line"/>
      <point x="682" y="202" type="line" smooth="yes"/>
      <point x="857" y="202"/>
      <point x="965" y="274"/>
    </contour>
  </outline>
</glyph>
<glyph name="afii10020" format="1">
  <advance width="1454"/>
  <unicode hex="0413"/>
  <outline>
    <contour>
      <point x="728" y="1453" type="move" name="top"/>
    </contour>
    <contour>
      <point x="1048" y="1255" type="line"/>
      <point x="398" y="1255" type="line"/>
      <point x="398" y="0" type="line"/>
      <point x="130" y="0" type="line"/>
      <point x="130" y="1458" type="line"/>
      <point x="1070" y="1458" type="line"/>
    </contour>
  </outline>
</glyph>
<glyph name="afii10025" format="1">
  <advance width="1250"/>
  <unicode hex="0417"/>
  <outline>
    <contour>
      <point x="625" y="1453" type="move" name="top"/>
    </contour>
    <contour>
      <point x="625" y="0" type="move" name="bottom"/>
    </contour>
    <contour>
      <point x="644" y="645" type="curve" smooth="yes"/>
      <point x="455" y="645" type="line"/>
      <point x="455" y="853" type="line"/>
      <point x="647" y="853" type="line" smooth="yes"/>
      <point x="790" y="853"/>
      <point x="903" y="948"/>
      <point x="903" y="1064" type="curve" smooth="yes"/>
      <point x="901" y="1174"/>
      <point x="792" y="1275"/>
      <point x="627" y="1275" type="curve" smooth="yes"/>
      <point x="462" y="1275"/>
      <point x="352" y="1233"/>
      <point x="268" y="1173" type="curve"/>
      <point x="172" y="1352" type="line"/>
      <point x="291" y="1451"/>
      <point x="444" y="1491"/>
      <point x="636" y="1491" type="curve" smooth="yes"/>
      <point x="911" y="1491"/>
      <point x="1149" y="1320"/>
      <point x="1149" y="1097" type="curve" smooth="yes"/>
      <point x="1149" y="893"/>
      <point x="1073" y="799"/>
      <point x="967" y="751" type="curve"/>
      <point x="1096" y="694"/>
      <point x="1184" y="558"/>
      <point x="1184" y="413" type="curve" smooth="yes"/>
      <point x="1184" y="148"/>
      <point x="1004" y="-19"/>
      <point x="625" y="-19" type="curve" smooth="yes"/>
      <point x="427" y="-19"/>
      <point x="228" y="33"/>
      <point x="131" y="129" type="curve"/>
      <point x="159" y="177"/>
      <point x="199" y="263"/>
      <point x="225" y="314" type="curve"/>
      <point x="316" y="254"/>
      <point x="461" y="191"/>
      <point x="628" y="191" type="curve" smooth="yes"/>
      <point x="873" y="191"/>
      <point x="950" y="285"/>
      <point x="950" y="423" type="curve" smooth="yes"/>
      <point x="950" y="549"/>
      <point x="801" y="645"/>
    </contour>
  </outline>
</glyph>
<glyph name="afii10026" format="1">
  <advance width="1474"/>
  <unicode hex="0418"/>
  <outline>
    <contour>
      <point x="737" y="1453" type="move" name="top"/>
    </contour>
    <contour>
      <point x="130" y="0" type="line"/>
      <point x="130" y="1458" type="line"/>
      <point x="376" y="1458" type="line"/>
      <point x="376" y="418" type="line"/>
      <point x="441" y="517"/>
      <point x="1022" y="1251"/>
      <point x="1089" y="1349" type="curve"/>
      <point x="1092" y="1354"/>
      <point x="1108" y="1453"/>
      <point x="1111" y="1458" type="curve"/>
      <point x="1350" y="1458" type="line"/>
      <point x="1350" y="0" type="line"/>
      <point x="1105" y="0" type="line"/>
      <point x="1105" y="963" type="line"/>
      <point x="366" y="0" type="line"/>
    </contour>
  </outline>
</glyph>
<glyph name="afii10033" format="1">
  <advance width="1455"/>
  <unicode hex="041F"/>
  <outline>
    <contour>
      <point x="1064" y="1262" type="line"/>
      <point x="398" y="1262" type="line"/>
      <point x="398" y="0" type="line"/>
      <point x="130" y="0" type="line"/>
      <point x="130" y="1458" type="line"/>
      <point x="1332" y="1458" type="line"/>
      <point x="1332" y="0" type="line"/>
      <point x="1064" y="0" type="line"/>
    </contour>
  </outline>
</glyph>
<glyph name="afii10038" format="1">
  <advance width="1812"/>
  <unicode hex="0424"/>
  <outline>
    <contour>
      <point x="1036" y="1458" type="line"/>
      <point x="1036" y="1329" type="line"/>
      <point x="1443" y="1322"/>
      <point x="1735" y="1091"/>
      <point x="1735" y="754" type="curve" smooth="yes"/>
      <point x="1735" y="408"/>
      <point x="1443" y="169"/>
      <point x="1036" y="161" type="curve"/>
      <point x="1036" y="0" type="line"/>
      <point x="779" y="0" type="line"/>
      <point x="777" y="161" type="line" smooth="yes"/>
      <point x="368" y="170"/>
      <point x="81" y="413"/>
      <point x="81" y="754" type="curve" smooth="yes"/>
      <point x="81" y="1086"/>
      <point x="368" y="1320"/>
      <point x="777" y="1329" type="curve" smooth="yes"/>
      <point x="779" y="1458" type="line"/>
    </contour>
    <contour>
      <point x="777" y="1121" type="line" smooth="yes"/>
      <point x="487" y="1112"/>
      <point x="343" y="941"/>
      <point x="343" y="750" type="curve" smooth="yes"/>
      <point x="343" y="549"/>
      <point x="488" y="378"/>
      <point x="777" y="369" type="curve" smooth="yes"/>
    </contour>
    <contour>
      <point x="1036" y="1121" type="curve"/>
      <point x="1036" y="369" type="line"/>
      <point x="1328" y="378"/>
      <point x="1472" y="549"/>
      <point x="1472" y="750" type="curve" smooth="yes"/>
      <point x="1472" y="942"/>
      <point x="1329" y="1113"/>
    </contour>
  </outline>
</glyph>
<glyph name="afii10040" format="1">
  <advance width="1542"/>
  <unicode hex="0426"/>
  <outline>
    <contour>
      <point x="1095" y="196" type="line"/>
      <point x="1095" y="1458" type="line"/>
      <point x="1363" y="1458" type="line"/>
      <point x="1363" y="105" type="line"/>
      <point x="1508" y="105" type="line"/>
      <point x="1508" y="-340" type="line"/>
      <point x="1273" y="-340" type="line"/>
      <point x="1272" y="0" type="line"/>
      <point x="130" y="0" type="line"/>
      <point x="130" y="1458" type="line"/>
      <point x="398" y="1458" type="line"/>
      <point x="398" y="196" type="line"/>
    </contour>
  </outline>
</glyph>
<glyph name="afii10041" format="1">
  <advance width="1807"/>
  <unicode hex="0427"/>
  <outline>
    <contour>
      <point x="1073" y="814" type="curve"/>
      <point x="1073" y="1454" type="line"/>
      <point x="1315" y="1454" type="line"/>
      <point x="1315" y="11" type="line"/>
      <point x="1073" y="11" type="line"/>
      <point x="1072" y="602" type="line"/>
      <point x="1052" y="573"/>
      <point x="820" y="559"/>
      <point x="786" y="559" type="curve" smooth="yes"/>
      <point x="431" y="559"/>
      <point x="176" y="624"/>
      <point x="176" y="985" type="curve" smooth="yes"/>
      <point x="176" y="1454" type="line"/>
      <point x="401" y="1454" type="line"/>
      <point x="401" y="1010" type="line" smooth="yes"/>
      <point x="401" y="807"/>
      <point x="516" y="764"/>
      <point x="756" y="764" type="curve" smooth="yes"/>
      <point x="792" y="764"/>
      <point x="1073" y="797"/>
    </contour>
  </outline>
</glyph>
<glyph name="afii10042" format="1">
  <advance width="1833"/>
  <unicode hex="0428"/>
  <outline>
    <contour>
      <point x="398" y="196" type="line"/>
      <point x="803" y="196" type="line"/>
      <point x="803" y="1458" type="line"/>
      <point x="1071" y="1458" type="line"/>
      <point x="1071" y="196" type="line"/>
      <point x="1442" y="196" type="line"/>
      <point x="1442" y="1458" type="line"/>
      <point x="1709" y="1458" type="line"/>
      <point x="1709" y="0" type="line"/>
      <point x="130" y="0" type="line"/>
      <point x="130" y="1458" type="line"/>
      <point x="398" y="1458" type="line"/>
    </contour>
  </outline>
</glyph>
<glyph name="afii10043" format="1">
  <advance width="1894"/>
  <unicode hex="0429"/>
  <outline>
    <contour>
      <point x="1619" y="-340" type="line"/>
      <point x="1618" y="0" type="line"/>
      <point x="130" y="0" type="line"/>
      <point x="130" y="1458" type="line"/>
      <point x="398" y="1458" type="line"/>
      <point x="398" y="196" type="line"/>
      <point x="803" y="196" type="line"/>
      <point x="803" y="1458" type="line"/>
      <point x="1071" y="1458" type="line"/>
      <point x="1071" y="196" type="line"/>
      <point x="1442" y="196" type="line"/>
      <point x="1442" y="1458" type="line"/>
      <point x="1710" y="1458" type="line"/>
      <point x="1710" y="105" type="line"/>
      <point x="1854" y="105" type="line"/>
      <point x="1854" y="-340" type="line"/>
    </contour>
  </outline>
</glyph>
<glyph name="afii10044" format="1">
  <advance width="1547"/>
  <unicode hex="042A"/>
  <outline>
    <contour>
      <point x="387" y="11" type="line"/>
      <point x="387" y="1252" type="line"/>
      <point x="43" y="1252" type="line"/>
      <point x="43" y="1454" type="line"/>
      <point x="626" y="1454" type="line"/>
      <point x="626" y="932" type="line"/>
      <point x="892" y="932" type="line" smooth="yes"/>
      <point x="1210" y="932"/>
      <point x="1467" y="803"/>
      <point x="1467" y="484" type="curve" smooth="yes"/>
      <point x="1467" y="165"/>
      <point x="1281" y="11"/>
      <point x="902" y="11" type="curve" smooth="yes"/>
    </contour>
    <contour>
      <point x="1246" y="475" type="curve" smooth="yes"/>
      <point x="1246" y="630"/>
      <point x="1121" y="731"/>
      <point x="914" y="731" type="curve" smooth="yes"/>
      <point x="626" y="731" type="line"/>
      <point x="626" y="213" type="line"/>
      <point x="923" y="213" type="line" smooth="yes"/>
      <point x="1140" y="213"/>
      <point x="1246" y="314"/>
    </contour>
  </outline>
</glyph>
<glyph name="afii10046" format="1">
  <advance width="1291"/>
  <unicode hex="042C"/>
  <outline>
    <contour>
      <point x="410" y="1454" type="line"/>
      <point x="410" y="932" type="line"/>
      <point x="662" y="932" type="line" smooth="yes"/>
      <point x="993" y="932"/>
      <point x="1229" y="775"/>
      <point x="1229" y="475" type="curve" smooth="yes"/>
      <point x="1229" y="176"/>
      <point x="1005" y="11"/>
      <point x="667" y="11" type="curve" smooth="yes"/>
      <point x="178" y="11" type="line"/>
      <point x="178" y="1454" type="line"/>
    </contour>
    <contour>
      <point x="410" y="731" type="line"/>
      <point x="410" y="213" type="line"/>
      <point x="685" y="213" type="line" smooth="yes"/>
      <point x="897" y="213"/>
      <point x="1004" y="314"/>
      <point x="1004" y="475" type="curve" smooth="yes"/>
      <point x="1004" y="632"/>
      <point x="896" y="731"/>
      <point x="683" y="731" type="curve" smooth="yes"/>
    </contour>
  </outline>
</glyph>
<glyph name="afii10047" format="1">
  <advance width="1396"/>
  <unicode hex="042D"/>
  <outline>
    <contour>
      <point x="572" y="-19" type="curve" smooth="yes"/>
      <point x="411" y="-19"/>
      <point x="251" y="27"/>
      <point x="102" y="115" type="curve"/>
      <point x="185" y="309" type="line"/>
      <point x="293" y="237"/>
      <point x="424" y="188"/>
      <point x="552" y="188" type="curve" smooth="yes"/>
      <point x="802" y="188"/>
      <point x="985" y="359"/>
      <point x="1021" y="647" type="curve"/>
      <point x="348" y="647" type="line"/>
      <point x="348" y="849" type="line"/>
      <point x="1017" y="849" type="line"/>
      <point x="974" y="1103"/>
      <point x="804" y="1283"/>
      <point x="551" y="1283" type="curve" smooth="yes"/>
      <point x="423" y="1283"/>
      <point x="294" y="1233"/>
      <point x="184" y="1154" type="curve"/>
      <point x="101" y="1352" type="line"/>
      <point x="242" y="1445"/>
      <point x="405" y="1490"/>
      <point x="567" y="1490" type="curve" smooth="yes"/>
      <point x="967" y="1490"/>
      <point x="1286" y="1191"/>
      <point x="1286" y="739" type="curve" smooth="yes"/>
      <point x="1286" y="288"/>
      <point x="976" y="-19"/>
    </contour>
  </outline>
</glyph>
<glyph name="afii10048" format="1">
  <advance width="1678"/>
  <unicode hex="042E"/>
  <outline>
    <contour>
      <point x="1321" y="-19" type="curve" smooth="yes"/>
      <point x="914" y="-19"/>
      <point x="690" y="281"/>
      <point x="657" y="655" type="curve"/>
      <point x="410" y="655" type="line"/>
      <point x="410" y="11" type="line"/>
      <point x="178" y="11" type="line"/>
      <point x="178" y="1454" type="line"/>
      <point x="410" y="1454" type="line"/>
      <point x="410" y="851" type="line"/>
      <point x="662" y="851" type="line"/>
      <point x="704" y="1214"/>
      <point x="928" y="1490"/>
      <point x="1319" y="1490" type="curve" smooth="yes"/>
      <point x="1750" y="1490"/>
      <point x="1976" y="1155"/>
      <point x="1976" y="731" type="curve" smooth="yes"/>
      <point x="1976" y="314"/>
      <point x="1751" y="-19"/>
    </contour>
    <contour>
      <point x="1319" y="1283" type="curve" smooth="yes"/>
      <point x="1036" y="1283"/>
      <point x="913" y="1032"/>
      <point x="913" y="738" type="curve" smooth="yes"/>
      <point x="913" y="656"/>
      <point x="1037" y="188"/>
      <point x="1321" y="188" type="curve" smooth="yes"/>
      <point x="1607" y="188"/>
      <point x="1728" y="439"/>
      <point x="1728" y="738" type="curve" smooth="yes"/>
      <point x="1728" y="1031"/>
      <point x="1605" y="1283"/>
    </contour>
  </outline>
</glyph>
<glyph name="afii10049" format="1">
  <advance width="1319"/>
  <unicode hex="042F"/>
  <outline>
    <contour>
      <point x="922" y="0" type="line"/>
      <point x="922" y="608" type="line"/>
      <point x="716" y="608" type="line" smooth="yes"/>
      <point x="646" y="608"/>
      <point x="605" y="609"/>
      <point x="586" y="608" type="curve"/>
      <point x="586" y="608"/>
      <point x="487" y="418"/>
      <point x="459" y="359" type="curve" smooth="yes"/>
      <point x="288" y="0" type="line"/>
      <point x="1" y="0" type="line"/>
      <point x="12" y="24"/>
      <point x="191" y="388"/>
      <point x="211" y="428" type="curve" smooth="yes"/>
      <point x="262" y="528"/>
      <point x="298" y="605"/>
      <point x="345" y="658" type="curve"/>
      <point x="178" y="721"/>
      <point x="82" y="845"/>
      <point x="82" y="1045" type="curve" smooth="yes"/>
      <point x="82" y="1369"/>
      <point x="295" y="1458"/>
      <point x="645" y="1458" type="curve" smooth="yes"/>
      <point x="1191" y="1458" type="line"/>
      <point x="1191" y="0" type="line"/>
    </contour>
    <contour>
      <point x="629" y="805" type="curve" smooth="yes"/>
      <point x="922" y="805" type="line"/>
      <point x="922" y="1256" type="line"/>
      <point x="623" y="1256" type="line" smooth="yes"/>
      <point x="429" y="1256"/>
      <point x="332" y="1189"/>
      <point x="332" y="1040" type="curve" smooth="yes"/>
      <point x="332" y="880"/>
      <point x="415" y="805"/>
    </contour>
  </outline>
</glyph>
<glyph name="afii10066" format="1">
  <advance width="1089"/>
  <unicode hex="0431"/>
  <outline>
    <contour>
      <point x="615" y="528" type="curve" smooth="yes"/>
      <point x="361" y="528" type="line"/>
      <point x="361" y="184" type="line"/>
      <point x="619" y="184" type="line" smooth="yes"/>
      <point x="725" y="184"/>
      <point x="788" y="276"/>
      <point x="788" y="364" type="curve" smooth="yes"/>
      <point x="788" y="446"/>
      <point x="729" y="528"/>
    </contour>
    <contour>
      <point x="107" y="1098" type="line"/>
      <point x="909" y="1098" type="line"/>
      <point x="909" y="906" type="line"/>
      <point x="360" y="906" type="line"/>
      <point x="360" y="709" type="line"/>
      <point x="623" y="709" type="line" smooth="yes"/>
      <point x="839" y="709"/>
      <point x="1019" y="589"/>
      <point x="1019" y="362" type="curve" smooth="yes"/>
      <point x="1019" y="149"/>
      <point x="867" y="0"/>
      <point x="635" y="0" type="curve" smooth="yes"/>
      <point x="107" y="0" type="line"/>
    </contour>
  </outline>
</glyph>
<glyph name="afii10067" format="1">
  <advance width="1114"/>
  <unicode hex="0432"/>
  <outline>
    <contour>
      <point x="1051" y="319" type="curve" smooth="yes"/>
      <point x="1051" y="106"/>
      <point x="889" y="0"/>
      <point x="649" y="0" type="curve" smooth="yes"/>
      <point x="107" y="0" type="line"/>
      <point x="107" y="1098" type="line"/>
      <point x="628" y="1098" type="line" smooth="yes"/>
      <point x="865" y="1098"/>
      <point x="1021" y="998"/>
      <point x="1021" y="799" type="curve" smooth="yes"/>
      <point x="1021" y="700"/>
      <point x="964" y="609"/>
      <point x="856" y="574" type="curve"/>
      <point x="981" y="548"/>
      <point x="1050" y="428"/>
    </contour>
    <contour>
      <point x="657" y="477" type="curve" smooth="yes"/>
      <point x="361" y="477" type="line"/>
      <point x="361" y="184" type="line"/>
      <point x="657" y="184" type="line" smooth="yes"/>
      <point x="768" y="184"/>
      <point x="826" y="253"/>
      <point x="826" y="331" type="curve" smooth="yes"/>
      <point x="825" y="403"/>
      <point x="768" y="477"/>
    </contour>
    <contour>
      <point x="361" y="647" type="line"/>
      <point x="649" y="647" type="line" smooth="yes"/>
      <point x="746" y="647"/>
      <point x="795" y="713"/>
      <point x="795" y="777" type="curve" smooth="yes"/>
      <point x="795" y="844"/>
      <point x="747" y="904"/>
      <point x="649" y="904" type="curve" smooth="yes"/>
      <point x="361" y="904" type="line"/>
    </contour>
  </outline>
</glyph>
<glyph name="afii10068" format="1">
  <advance width="738"/>
  <unicode hex="0433"/>
  <outline>
    <contour>
      <point x="369" y="1098" type="move" name="top"/>
    </contour>
    <contour>
      <point x="687" y="901" type="line"/>
      <point x="361" y="901" type="line"/>
      <point x="361" y="0" type="line"/>
      <point x="107" y="0" type="line"/>
      <point x="107" y="1098" type="line"/>
      <point x="687" y="1098" type="line"/>
    </contour>
  </outline>
</glyph>
<glyph name="afii10069" format="1">
  <advance width="1214"/>
  <unicode hex="0434"/>
  <outline>
    <contour>
      <point x="39" y="-339" type="line"/>
      <point x="39" y="189" type="line"/>
      <point x="121" y="189" type="line"/>
      <point x="191" y="307"/>
      <point x="258" y="553"/>
      <point x="260" y="802" type="curve" smooth="yes"/>
      <point x="268" y="1098" type="line"/>
      <point x="1066" y="1098" type="line"/>
      <point x="1066" y="188" type="line"/>
      <point x="1187" y="188" type="line"/>
      <point x="1187" y="-339" type="line"/>
      <point x="967" y="-339" type="line"/>
      <point x="950" y="0" type="line"/>
      <point x="273" y="0" type="line"/>
      <point x="263" y="-339" type="line"/>
    </contour>
    <contour>
      <point x="408" y="188" type="curve"/>
      <point x="812" y="188" type="line"/>
      <point x="812" y="900" type="line"/>
      <point x="519" y="900" type="line"/>
      <point x="519" y="861"/>
      <point x="515" y="742"/>
      <point x="513" y="706" type="curve" smooth="yes"/>
      <point x="498" y="447"/>
      <point x="441" y="246"/>
    </contour>
  </outline>
</glyph>
<glyph name="afii10070" format="1">
  <advance width="1152"/>
  <unicode hex="0435"/>
  <outline>
    <contour>
      <point x="577" y="1098" type="move" name="top"/>
    </contour>
    <component base="e"/>
  </outline>
</glyph>
<glyph name="afii10072" format="1">
  <advance width="1574"/>
  <unicode hex="0436"/>
  <outline>
    <contour>
      <point x="670" y="620" type="line"/>
      <point x="670" y="1098" type="line"/>
      <point x="909" y="1098" type="line"/>
      <point x="909" y="620" type="line"/>
      <point x="1237" y="1098" type="line"/>
      <point x="1536" y="1098" type="line"/>
      <point x="1122" y="553" type="line"/>
      <point x="1555" y="0" type="line"/>
      <point x="1264" y="0" type="line"/>
      <point x="909" y="478" type="line"/>
      <point x="909" y="0" type="line"/>
      <point x="670" y="0" type="line"/>
      <point x="670" y="478" type="line"/>
      <point x="315" y="0" type="line"/>
      <point x="25" y="0" type="line"/>
      <point x="458" y="553" type="line"/>
      <point x="44" y="1098" type="line"/>
      <point x="343" y="1098" type="line"/>
    </contour>
  </outline>
</glyph>
<glyph name="afii10073" format="1">
  <advance width="1000"/>
  <unicode hex="0437"/>
  <outline>
    <contour>
      <point x="500" y="1098" type="move" name="top"/>
    </contour>
    <contour>
      <point x="500" y="0" type="move" name="bottom"/>
    </contour>
    <contour>
      <point x="474" y="-21" type="curve" smooth="yes"/>
      <point x="303" y="-21"/>
      <point x="164" y="18"/>
      <point x="77" y="86" type="curve"/>
      <point x="82" y="98"/>
      <point x="117" y="242"/>
      <point x="121" y="254" type="curve"/>
      <point x="198" y="203"/>
      <point x="334" y="168"/>
      <point x="482" y="168" type="curve" smooth="yes"/>
      <point x="644" y="168"/>
      <point x="710" y="228"/>
      <point x="710" y="327" type="curve" smooth="yes"/>
      <point x="710" y="403"/>
      <point x="636" y="461"/>
      <point x="513" y="461" type="curve" smooth="yes"/>
      <point x="290" y="461" type="line"/>
      <point x="290" y="638" type="line"/>
      <point x="513" y="638" type="line" smooth="yes"/>
      <point x="626" y="638"/>
      <point x="680" y="701"/>
      <point x="680" y="771" type="curve" smooth="yes"/>
      <point x="680" y="864"/>
      <point x="608" y="912"/>
      <point x="455" y="912" type="curve" smooth="yes"/>
      <point x="304" y="912"/>
      <point x="187" y="882"/>
      <point x="123" y="840" type="curve"/>
      <point x="123" y="840"/>
      <point x="74" y="1001"/>
      <point x="70" y="1010" type="curve"/>
      <point x="159" y="1073"/>
      <point x="322" y="1094"/>
      <point x="458" y="1094" type="curve" smooth="yes"/>
      <point x="715" y="1094"/>
      <point x="905" y="996"/>
      <point x="905" y="803" type="curve" smooth="yes"/>
      <point x="905" y="700"/>
      <point x="853" y="601"/>
      <point x="745" y="564" type="curve"/>
      <point x="857" y="528"/>
      <point x="933" y="418"/>
      <point x="934" y="305" type="curve" smooth="yes"/>
      <point x="934" y="74"/>
      <point x="739" y="-21"/>
    </contour>
  </outline>
</glyph>
<glyph name="afii10074" format="1">
  <advance width="1182"/>
  <unicode hex="0438"/>
  <outline>
    <contour>
      <point x="591" y="1098" type="move" name="top"/>
    </contour>
    <contour>
      <point x="1081" y="0" type="line"/>
      <point x="845" y="0" type="line"/>
      <point x="845" y="645" type="line"/>
      <point x="329" y="0" type="line"/>
      <point x="107" y="0" type="line"/>
      <point x="107" y="1098" type="line"/>
      <point x="346" y="1098" type="line"/>
      <point x="346" y="362" type="line"/>
      <point x="845" y="984" type="line"/>
      <point x="845" y="1098" type="line"/>
      <point x="1081" y="1098" type="line"/>
    </contour>
  </outline>
</glyph>
<glyph name="afii10076" format="1">
  <advance width="1126"/>
  <unicode hex="043A"/>
  <outline>
    <contour>
      <point x="564" y="1098" type="move" name="top"/>
    </contour>
    <contour>
      <point x="361" y="652" type="line"/>
      <point x="361" y="652"/>
      <point x="607" y="909"/>
      <point x="659" y="965" type="curve" smooth="yes"/>
      <point x="744" y="1057"/>
      <point x="809" y="1108"/>
      <point x="925" y="1108" type="curve" smooth="yes"/>
      <point x="989" y="1108"/>
      <point x="1041" y="1094"/>
      <point x="1050" y="1093" type="curve"/>
      <point x="1050" y="888" type="line"/>
      <point x="1043" y="889"/>
      <point x="972" y="903"/>
      <point x="947" y="903" type="curve" smooth="yes"/>
      <point x="885" y="903"/>
      <point x="846" y="841"/>
      <point x="778" y="770" type="curve"/>
      <point x="735" y="725"/>
      <point x="550" y="540"/>
      <point x="550" y="540" type="curve"/>
      <point x="1139" y="0" type="line"/>
      <point x="808" y="0" type="line"/>
      <point x="361" y="436" type="line"/>
      <point x="361" y="0" type="line"/>
      <point x="107" y="0" type="line"/>
      <point x="107" y="1098" type="line"/>
      <point x="361" y="1098" type="line"/>
    </contour>
  </outline>
</glyph>
<glyph name="afii10077" format="1">
  <advance width="1227"/>
  <unicode hex="043B"/>
  <outline>
    <contour>
      <point x="176" y="1098" type="line"/>
      <point x="1122" y="1098" type="line"/>
      <point x="1122" y="1" type="line"/>
      <point x="867" y="1" type="line"/>
      <point x="867" y="899" type="line"/>
      <point x="431" y="899" type="line"/>
      <point x="431" y="387" type="line" smooth="yes"/>
      <point x="431" y="98"/>
      <point x="292" y="-20"/>
      <point x="18" y="-27" type="curve" smooth="yes"/>
      <point x="8" y="-28"/>
      <point x="-12" y="-28"/>
      <point x="-22" y="-28" type="curve"/>
      <point x="-24" y="175" type="line"/>
      <point x="8" y="179" type="line"/>
      <point x="160" y="193"/>
      <point x="176" y="229"/>
      <point x="176" y="414" type="curve" smooth="yes"/>
    </contour>
  </outline>
</glyph>
<glyph name="afii10078" format="1">
  <advance width="1297"/>
  <unicode hex="043C"/>
  <outline>
    <contour>
      <point x="707" y="347" type="line"/>
      <point x="597" y="347" type="line"/>
      <point x="346" y="720" type="line"/>
      <point x="346" y="0" type="line"/>
      <point x="106" y="0" type="line"/>
      <point x="106" y="1098" type="line"/>
      <point x="339" y="1098" type="line"/>
      <point x="651" y="633" type="line"/>
      <point x="964" y="1098" type="line"/>
      <point x="1195" y="1098" type="line"/>
      <point x="1195" y="0" type="line"/>
      <point x="960" y="0" type="line"/>
      <point x="960" y="721" type="line"/>
    </contour>
  </outline>
</glyph>
<glyph name="afii10079" format="1">
  <advance width="1194"/>
  <unicode hex="043D"/>
  <outline>
    <contour>
      <point x="107" y="1098" type="line"/>
      <point x="361" y="1098" type="line"/>
      <point x="361" y="688" type="line"/>
      <point x="838" y="688" type="line"/>
      <point x="838" y="1098" type="line"/>
      <point x="1092" y="1098" type="line"/>
      <point x="1092" y="0" type="line"/>
      <point x="838" y="0" type="line"/>
      <point x="838" y="495" type="line"/>
      <point x="361" y="495" type="line"/>
      <point x="361" y="0" type="line"/>
      <point x="107" y="0" type="line"/>
    </contour>
  </outline>
</glyph>
<glyph name="afii10081" format="1">
  <advance width="1205"/>
  <unicode hex="043F"/>
  <outline>
    <contour>
      <point x="116" y="1098" type="line"/>
      <point x="1093" y="1098" type="line"/>
      <point x="1093" y="0" type="line"/>
      <point x="839" y="0" type="line"/>
      <point x="839" y="902" type="line"/>
      <point x="370" y="902" type="line"/>
      <point x="370" y="0" type="line"/>
      <point x="116" y="0" type="line"/>
    </contour>
  </outline>
</glyph>
<glyph name="afii10084" format="1">
  <advance width="898"/>
  <unicode hex="0442"/>
  <outline>
    <contour>
      <point x="10" y="1098" type="line"/>
      <point x="888" y="1098" type="line"/>
      <point x="888" y="919" type="line"/>
      <point x="580" y="919" type="line"/>
      <point x="580" y="0" type="line"/>
      <point x="326" y="0" type="line"/>
      <point x="326" y="919" type="line"/>
      <point x="10" y="919" type="line"/>
    </contour>
  </outline>
</glyph>
<glyph name="afii10085" format="1">
  <advance width="1110"/>
  <unicode hex="0443"/>
  <outline>
    <contour>
      <point x="556" y="1098" type="move" name="top"/>
    </contour>
    <contour>
      <point x="563" y="328" type="line"/>
      <point x="826" y="1098" type="line"/>
      <point x="1100" y="1098" type="line"/>
      <point x="664" y="-43" type="line" smooth="yes"/>
      <point x="551" y="-336"/>
      <point x="462" y="-410"/>
      <point x="194" y="-410" type="curve" smooth="yes"/>
      <point x="74" y="-410" type="line"/>
      <point x="46" y="-216" type="line"/>
      <point x="122" y="-216" type="line" smooth="yes"/>
      <point x="318" y="-216"/>
      <point x="357" y="-220"/>
      <point x="433" y="38" type="curve"/>
      <point x="-3" y="1098" type="line"/>
      <point x="265" y="1098" type="line"/>
    </contour>
  </outline>
</glyph>
<glyph name="afii10086" format="1">
  <advance width="1483"/>
  <unicode hex="0444"/>
  <outline>
    <contour>
      <point x="616" y="-185" type="line"/>
      <point x="871" y="-185" type="line"/>
      <point x="871" y="19" type="line"/>
      <point x="882" y="15"/>
      <point x="974" y="13"/>
      <point x="985" y="13" type="curve" smooth="yes"/>
      <point x="1249" y="13"/>
      <point x="1403" y="290"/>
      <point x="1403" y="551" type="curve" smooth="yes"/>
      <point x="1403" y="813"/>
      <point x="1235" y="1091"/>
      <point x="968" y="1091" type="curve" smooth="yes"/>
      <point x="957" y="1091"/>
      <point x="882" y="1088"/>
      <point x="871" y="1083" type="curve"/>
      <point x="871" y="1256" type="line"/>
      <point x="616" y="1256" type="line"/>
      <point x="616" y="1083" type="line"/>
      <point x="605" y="1088"/>
      <point x="531" y="1091"/>
      <point x="520" y="1091" type="curve" smooth="yes"/>
      <point x="253" y="1091"/>
      <point x="85" y="815"/>
      <point x="85" y="552" type="curve" smooth="yes"/>
      <point x="85" y="292"/>
      <point x="238" y="13"/>
      <point x="503" y="13" type="curve" smooth="yes"/>
      <point x="514" y="13"/>
      <point x="605" y="15"/>
      <point x="616" y="19" type="curve"/>
    </contour>
    <contour>
      <point x="507" y="188" type="curve"/>
      <point x="377" y="188"/>
      <point x="319" y="374"/>
      <point x="319" y="546" type="curve" smooth="yes"/>
      <point x="319" y="720"/>
      <point x="392" y="915"/>
      <point x="521" y="915" type="curve" smooth="yes"/>
      <point x="532" y="915"/>
      <point x="604" y="914"/>
      <point x="616" y="908" type="curve"/>
      <point x="616" y="194" type="line"/>
      <point x="604" y="189"/>
      <point x="518" y="188"/>
    </contour>
    <contour>
      <point x="980" y="188" type="curve" smooth="yes"/>
      <point x="969" y="188"/>
      <point x="883" y="189"/>
      <point x="871" y="195" type="curve"/>
      <point x="871" y="908" type="line"/>
      <point x="883" y="914"/>
      <point x="955" y="916"/>
      <point x="966" y="916" type="curve" smooth="yes"/>
      <point x="1095" y="916"/>
      <point x="1169" y="720"/>
      <point x="1169" y="547" type="curve" smooth="yes"/>
      <point x="1169" y="376"/>
      <point x="1109" y="188"/>
    </contour>
  </outline>
</glyph>
